<svg width="357" height="357" viewBox="0 0 357 357" fill="none" xmlns="http://www.w3.org/2000/svg">
<rect opacity="0.3" x="10.1052" width="346" height="346" rx="12" fill="url(#paint0_linear_610_15918)"/>
<rect x="0.105225" y="11" width="346" height="346" rx="12" fill="url(#paint1_linear_610_15918)"/>
<rect opacity="0.3" x="5.10522" y="6" width="346" height="346" rx="12" fill="url(#paint2_linear_610_15918)"/>
<rect x="9.82812" y="25.114" width="76.991" height="73.6881" rx="12" fill="#CFA120"/>
<rect x="174.4" y="25.114" width="76.991" height="73.6881" rx="12" fill="#CFA120"/>
<rect x="9.82812" y="105.058" width="76.991" height="73.6881" rx="12" fill="#CFA120"/>
<rect x="174.4" y="105.058" width="76.991" height="73.6881" rx="12" fill="#CFA120"/>
<rect x="9.82812" y="184.782" width="76.991" height="73.6881" rx="12" fill="#CFA120"/>
<rect x="174.4" y="184.782" width="76.991" height="73.6881" rx="12" fill="#CFA120"/>
<rect x="9.82812" y="265.029" width="76.991" height="73.6881" rx="12" fill="#CFA120"/>
<rect x="174.4" y="265.029" width="76.991" height="73.6881" rx="12" fill="#CFA120"/>
<rect x="92.1143" y="25.114" width="76.991" height="73.6881" rx="12" fill="#CFA120"/>
<rect x="256.686" y="25.114" width="76.991" height="73.6881" rx="12" fill="#CFA120"/>
<rect x="92.1143" y="105.058" width="76.991" height="73.6881" rx="12" fill="#CFA120"/>
<rect x="256.686" y="105.058" width="76.991" height="73.6881" rx="12" fill="#CFA120"/>
<rect x="92.1143" y="184.782" width="76.991" height="73.6881" rx="12" fill="#CFA120"/>
<rect x="256.686" y="184.782" width="76.991" height="73.6881" rx="12" fill="#CFA120"/>
<rect x="92.1143" y="265.029" width="76.991" height="73.6881" rx="12" fill="#CFA120"/>
<rect x="256.686" y="265.029" width="76.991" height="73.6881" rx="12" fill="#CFA120"/>
<defs>
<linearGradient id="paint0_linear_610_15918" x1="183.105" y1="0" x2="183.105" y2="346" gradientUnits="userSpaceOnUse">
<stop stop-color="#FFC830"/>
<stop offset="1" stop-color="#FFC830"/>
</linearGradient>
<linearGradient id="paint1_linear_610_15918" x1="173.105" y1="11" x2="173.105" y2="357" gradientUnits="userSpaceOnUse">
<stop stop-color="#FFC830"/>
<stop offset="1" stop-color="#FFC830"/>
</linearGradient>
<linearGradient id="paint2_linear_610_15918" x1="178.105" y1="6" x2="178.105" y2="352" gradientUnits="userSpaceOnUse">
<stop stop-color="#FFC830"/>
<stop offset="1" stop-color="#FFC830"/>
</linearGradient>
</defs>
</svg>
