<svg width="42" height="42" viewBox="0 0 42 42" fill="none" xmlns="http://www.w3.org/2000/svg">
<path d="M26.6817 25.0335V17.4272C26.6817 16.8909 26.4745 16.4155 26.06 16.001C25.6456 15.5866 25.1702 15.3794 24.6339 15.3794L16.9545 15.3794C16.4181 15.3794 15.9549 15.5861 15.5649 15.9996C15.1748 16.415 14.9798 16.8909 14.9798 17.4272C14.9798 17.9636 15.187 18.439 15.6014 18.8534C16.0159 19.2678 16.4913 19.4751 17.0276 19.4751H19.6606L14.9432 24.1924C14.5288 24.6068 14.3274 25.0881 14.3391 25.6361C14.3518 26.1851 14.5653 26.6669 14.9798 27.0813C15.3942 27.4958 15.8818 27.7025 16.4425 27.7015C17.0032 27.7025 17.4908 27.4958 17.9053 27.0813L22.586 22.4005L22.586 25.1066C22.586 25.6429 22.7933 26.1066 23.2077 26.4977C23.6221 26.8868 24.0975 27.0813 24.6339 27.0813C25.1702 27.0813 25.6456 26.8741 26.06 26.4596C26.4745 26.0452 26.6817 25.5698 26.6817 25.0335ZM35.4582 35.8578C33.4347 37.8812 31.1489 39.3986 28.6008 40.4098C26.0537 41.422 23.4637 41.9281 20.8307 41.9281C18.1978 41.9281 15.6078 41.422 13.0607 40.4098C10.5126 39.3986 8.22679 37.8812 6.20334 35.8578C4.17988 33.8343 2.66253 31.5485 1.65129 29.0004C0.63907 26.4533 0.132962 23.8633 0.132962 21.2303C0.132962 18.5974 0.638582 16.0069 1.64982 13.4588C2.66204 10.9117 4.17988 8.6264 6.20334 6.60294C8.22679 4.57948 10.5121 3.06164 13.0592 2.04943C15.6073 1.03819 18.1978 0.532565 20.8307 0.532563C23.4637 0.532562 26.0537 1.03867 28.6008 2.05089C31.1489 3.06213 33.4347 4.57948 35.4582 6.60294C37.4816 8.6264 38.999 10.9122 40.0102 13.4603C41.0224 16.0074 41.5285 18.5974 41.5285 21.2303C41.5285 23.8633 41.0224 26.4533 40.0102 29.0004C38.999 31.5485 37.4816 33.8343 35.4582 35.8578Z" fill="black" fill-opacity="0.61"/>
</svg>
