<svg width="316" height="27" viewBox="0 0 316 27" fill="none" xmlns="http://www.w3.org/2000/svg">
<path d="M23.499 13.1734C23.499 20.2921 18.4607 26.0628 12.2456 26.0628C6.03051 26.0628 0.992188 20.2921 0.992188 13.1734C0.992188 6.05481 6.03051 0.284027 12.2456 0.284027C18.4607 0.284027 23.499 6.05481 23.499 13.1734Z" fill="#181818"/>
<path d="M50.0058 13.1734C50.0058 20.2921 44.9675 26.0628 38.7524 26.0628C32.5373 26.0628 27.499 20.2921 27.499 13.1734C27.499 6.05481 32.5373 0.284027 38.7524 0.284027C44.9675 0.284027 50.0058 6.05481 50.0058 13.1734Z" fill="#181818"/>
<path d="M76.5127 13.1734C76.5127 20.2921 71.4743 26.0628 65.2593 26.0628C59.0442 26.0628 54.0059 20.2921 54.0059 13.1734C54.0059 6.05481 59.0442 0.284027 65.2593 0.284027C71.4743 0.284027 76.5127 6.05481 76.5127 13.1734Z" fill="#181818"/>
<path d="M103.02 13.1734C103.02 20.2921 97.9812 26.0628 91.7661 26.0628C85.551 26.0628 80.5127 20.2921 80.5127 13.1734C80.5127 6.05481 85.551 0.284027 91.7661 0.284027C97.9812 0.284027 103.02 6.05481 103.02 13.1734Z" fill="#181818"/>
<path d="M129.526 13.1734C129.526 20.2921 124.488 26.0628 118.273 26.0628C112.058 26.0628 107.02 20.2921 107.02 13.1734C107.02 6.05481 112.058 0.284027 118.273 0.284027C124.488 0.284027 129.526 6.05481 129.526 13.1734Z" fill="#181818"/>
<path d="M156.033 13.1734C156.033 20.2921 150.995 26.0628 144.78 26.0628C138.564 26.0628 133.526 20.2921 133.526 13.1734C133.526 6.05481 138.564 0.284027 144.78 0.284027C150.995 0.284027 156.033 6.05481 156.033 13.1734Z" fill="#181818"/>
<path d="M182.54 13.1734C182.54 20.2921 177.501 26.0628 171.286 26.0628C165.071 26.0628 160.033 20.2921 160.033 13.1734C160.033 6.05481 165.071 0.284027 171.286 0.284027C177.501 0.284027 182.54 6.05481 182.54 13.1734Z" fill="#181818"/>
<path d="M209.047 13.1734C209.047 20.2921 204.008 26.0628 197.793 26.0628C191.578 26.0628 186.54 20.2921 186.54 13.1734C186.54 6.05481 191.578 0.284027 197.793 0.284027C204.008 0.284027 209.047 6.05481 209.047 13.1734Z" fill="#181818"/>
<path d="M235.553 13.1734C235.553 20.2921 230.515 26.0628 224.3 26.0628C218.085 26.0628 213.047 20.2921 213.047 13.1734C213.047 6.05481 218.085 0.284027 224.3 0.284027C230.515 0.284027 235.553 6.05481 235.553 13.1734Z" fill="#181818"/>
<path d="M262.06 13.1734C262.06 20.2921 257.022 26.0628 250.807 26.0628C244.592 26.0628 239.553 20.2921 239.553 13.1734C239.553 6.05481 244.592 0.284027 250.807 0.284027C257.022 0.284027 262.06 6.05481 262.06 13.1734Z" fill="#181818"/>
<path d="M288.567 13.1734C288.567 20.2921 283.529 26.0628 277.314 26.0628C271.099 26.0628 266.06 20.2921 266.06 13.1734C266.06 6.05481 271.099 0.284027 277.314 0.284027C283.529 0.284027 288.567 6.05481 288.567 13.1734Z" fill="#181818"/>
<path d="M315.074 13.1734C315.074 20.2921 310.036 26.0628 303.821 26.0628C297.605 26.0628 292.567 20.2921 292.567 13.1734C292.567 6.05481 297.605 0.284027 303.821 0.284027C310.036 0.284027 315.074 6.05481 315.074 13.1734Z" fill="#181818"/>
</svg>
