<svg width="506" height="143" viewBox="0 0 506 143" fill="none" xmlns="http://www.w3.org/2000/svg">
<path d="M72.3208 118.221L45.631 121.665L42.4024 109.504H30.1337L27.4432 121.665L0 118.974L21.4164 47.2991L51.3349 45.7924L72.3208 118.221ZM40.4652 93.0377L36.3757 74.3118L32.3937 93.0377H40.4652Z" fill="black"/>
<path d="M101.54 47.0839L97.773 120.373L75.0651 121.557L72.9127 48.5906L101.54 47.0839Z" fill="black"/>
<path d="M106.921 93.1454L106.705 77.0023L141.467 75.388L141.682 93.7911L106.921 93.1454Z" fill="black"/>
<path d="M211.904 47.4067L192.21 120.158L165.52 121.665L141.305 51.3887L166.811 49.021L177.143 89.9167L187.152 45.7924L211.904 47.4067Z" fill="black"/>
<path d="M270.826 79.37C270.826 82.4909 270.611 85.6119 270.181 88.7329C264.046 89.1275 257.948 89.7733 251.885 90.6701C245.823 91.531 239.76 92.392 233.697 93.253C234.63 95.8359 236.083 97.8986 238.056 99.4411C240.065 100.984 242.451 101.755 245.213 101.755C246.648 101.755 248.208 101.486 249.894 100.948C251.616 100.41 253.32 99.7461 255.006 98.9568C256.692 98.1318 258.307 97.2529 259.849 96.3202C261.392 95.3874 262.719 94.5444 263.831 93.7911L261.248 118.221C259.849 119.297 258.325 120.212 256.674 120.965C255.06 121.719 253.374 122.328 251.616 122.795C249.858 123.261 248.083 123.602 246.289 123.817C244.495 124.032 242.738 124.14 241.016 124.14C237.464 124.14 234.218 123.656 231.276 122.687C228.334 121.719 225.662 120.373 223.258 118.651C220.891 116.894 218.81 114.831 217.016 112.463C215.223 110.096 213.734 107.513 212.55 104.715C211.366 101.916 210.469 98.9568 209.86 95.8359C209.25 92.7149 208.945 89.558 208.945 86.3653C208.945 83.029 209.25 79.6928 209.86 76.3566C210.469 73.0204 211.384 69.8097 212.604 66.7246C213.859 63.6395 215.42 60.7875 217.285 58.1688C219.187 55.5141 221.393 53.2003 223.904 51.2273C226.415 49.2542 229.249 47.7117 232.406 46.5996C235.599 45.4875 239.114 44.9315 242.953 44.9315C246.145 44.9315 249.051 45.3799 251.67 46.2767C254.325 47.1377 256.674 48.3574 258.719 49.9358C260.8 51.4784 262.593 53.3259 264.1 55.4783C265.643 57.6307 266.898 59.9983 267.867 62.5812C268.871 65.1282 269.607 67.8367 270.073 70.7065C270.575 73.5405 270.826 76.4283 270.826 79.37ZM249.302 76.5718C249.302 75.5674 249.195 74.545 248.979 73.5047C248.764 72.4285 248.406 71.4599 247.903 70.5989C247.437 69.7379 246.809 69.0384 246.02 68.5003C245.231 67.9263 244.244 67.6394 243.06 67.6394C241.625 67.6394 240.352 68.034 239.24 68.8232C238.164 69.5765 237.231 70.5451 236.442 71.7289C235.653 72.8769 235.007 74.1324 234.505 75.4956C234.002 76.8588 233.626 78.1144 233.375 79.2623L249.302 77.7557V76.5718Z" fill="black"/>
<path d="M337.443 70.9756C337.443 73.7737 337.192 76.3207 336.69 78.6166C336.224 80.8766 335.47 82.9573 334.43 84.8586C333.39 86.7599 332.044 88.5177 330.394 90.132C328.744 91.7463 326.753 93.2888 324.421 94.7597L337.228 117.575L313.014 122.31L304.727 99.3873L298.054 99.6026L297.086 121.988H273.947C274.127 113.808 274.288 105.665 274.432 97.5578C274.611 89.4504 274.808 81.3071 275.024 73.128C275.095 69.0025 275.167 64.913 275.239 60.8593C275.311 56.8056 275.454 52.716 275.669 48.5906C278.18 47.6579 280.656 46.8866 283.095 46.2767C285.535 45.6669 287.974 45.2005 290.413 44.8777C292.889 44.5189 295.382 44.2858 297.893 44.1781C300.44 44.0346 303.041 43.9629 305.695 43.9629C309.785 43.9629 313.731 44.5369 317.534 45.6848C321.372 46.7969 324.762 48.4829 327.704 50.743C330.645 53.003 332.995 55.8191 334.753 59.1912C336.547 62.5633 337.443 66.4914 337.443 70.9756ZM313.336 72.6975C313.336 71.1908 313.121 69.8097 312.691 68.5541C312.296 67.2986 311.686 66.2223 310.861 65.3255C310.072 64.3928 309.067 63.6753 307.848 63.1731C306.664 62.635 305.265 62.366 303.651 62.366C302.933 62.366 302.234 62.4198 301.552 62.5274C300.87 62.5991 300.207 62.7247 299.561 62.9041L298.7 82.9214H299.992C301.534 82.9214 303.095 82.7241 304.673 82.3295C306.287 81.9349 307.722 81.3251 308.978 80.5C310.269 79.6749 311.31 78.6166 312.099 77.3252C312.924 76.0337 313.336 74.4912 313.336 72.6975Z" fill="black"/>
<path d="M396.365 95.2978C396.365 100.212 395.504 104.463 393.783 108.051C392.097 111.602 389.765 114.544 386.787 116.876C383.846 119.172 380.384 120.876 376.402 121.988C372.456 123.064 368.205 123.602 363.649 123.602C361.891 123.602 359.954 123.369 357.837 122.902C355.757 122.436 353.64 121.862 351.488 121.18C349.335 120.463 347.255 119.71 345.246 118.92C343.273 118.095 341.515 117.324 339.972 116.607L342.34 95.513C345.389 97.3425 348.761 98.7416 352.456 99.7102C356.187 100.643 359.846 101.109 363.434 101.109C364.115 101.109 364.94 101.091 365.909 101.055C366.878 100.984 367.792 100.822 368.653 100.571C369.55 100.284 370.303 99.8716 370.913 99.3335C371.523 98.7954 371.828 98.0241 371.828 97.0197C371.828 96.3381 371.613 95.7641 371.182 95.2978C370.752 94.7955 370.196 94.4009 369.514 94.1139C368.833 93.7911 368.061 93.5579 367.2 93.4144C366.339 93.235 365.496 93.1095 364.671 93.0377C363.846 92.966 363.075 92.9301 362.357 92.9301C361.64 92.9301 361.066 92.9301 360.636 92.9301C357.55 92.9301 354.734 92.4458 352.187 91.4772C349.676 90.5087 347.506 89.1455 345.676 87.3877C343.883 85.594 342.484 83.4416 341.479 80.9305C340.475 78.3834 339.972 75.5674 339.972 72.4823C339.972 68.2492 340.815 64.4646 342.502 61.1283C344.223 57.7562 346.501 54.9043 349.335 52.5725C352.205 50.2049 355.488 48.3933 359.183 47.1377C362.878 45.8821 366.698 45.2543 370.644 45.2543C372.402 45.2543 374.214 45.3261 376.079 45.4696C377.944 45.5772 379.792 45.7924 381.621 46.1153C383.487 46.4382 385.299 46.8507 387.056 47.3529C388.814 47.8552 390.482 48.4829 392.061 49.2363L390.016 71.0832C387.576 70.2581 385.012 69.5765 382.321 69.0384C379.666 68.4644 377.066 68.1775 374.519 68.1775C374.052 68.1775 373.442 68.1954 372.689 68.2313C371.972 68.2313 371.2 68.2851 370.375 68.3927C369.586 68.4644 368.779 68.59 367.954 68.7694C367.129 68.9487 366.393 69.1998 365.747 69.5227C365.102 69.8097 364.582 70.2043 364.187 70.7065C363.792 71.2088 363.613 71.8007 363.649 72.4823C363.685 73.2715 363.972 73.8813 364.51 74.3118C365.084 74.7423 365.801 75.0651 366.662 75.2804C367.559 75.4598 368.528 75.5494 369.568 75.5494C370.644 75.5494 371.702 75.5315 372.743 75.4956C373.783 75.4239 374.752 75.3701 375.649 75.3342C376.545 75.2625 377.281 75.2445 377.855 75.2804C380.725 75.4598 383.308 76.0696 385.603 77.1099C387.899 78.1503 389.836 79.5314 391.415 81.2533C393.029 82.9752 394.249 85.038 395.074 87.4415C395.935 89.8091 396.365 92.4279 396.365 95.2978Z" fill="black"/>
<path d="M459.915 79.37C459.915 82.4909 459.7 85.6119 459.27 88.7329C453.135 89.1275 447.037 89.7733 440.974 90.6701C434.911 91.531 428.849 92.392 422.786 93.253C423.719 95.8359 425.172 97.8986 427.145 99.4411C429.154 100.984 431.539 101.755 434.302 101.755C435.737 101.755 437.297 101.486 438.983 100.948C440.705 100.41 442.409 99.7461 444.095 98.9568C445.781 98.1318 447.395 97.2529 448.938 96.3202C450.481 95.3874 451.808 94.5444 452.92 93.7911L450.337 118.221C448.938 119.297 447.413 120.212 445.763 120.965C444.149 121.719 442.463 122.328 440.705 122.795C438.947 123.261 437.171 123.602 435.378 123.817C433.584 124.032 431.826 124.14 430.104 124.14C426.553 124.14 423.306 123.656 420.365 122.687C417.423 121.719 414.751 120.373 412.347 118.651C409.979 116.894 407.899 114.831 406.105 112.463C404.311 110.096 402.823 107.513 401.639 104.715C400.455 101.916 399.558 98.9568 398.948 95.8359C398.338 92.7149 398.034 89.558 398.034 86.3653C398.034 83.029 398.338 79.6928 398.948 76.3566C399.558 73.0204 400.473 69.8097 401.693 66.7246C402.948 63.6395 404.509 60.7875 406.374 58.1688C408.275 55.5141 410.482 53.2003 412.993 51.2273C415.504 49.2542 418.338 47.7117 421.495 46.5996C424.688 45.4875 428.203 44.9315 432.042 44.9315C435.234 44.9315 438.14 45.3799 440.759 46.2767C443.413 47.1377 445.763 48.3574 447.808 49.9358C449.889 51.4784 451.682 53.3259 453.189 55.4783C454.732 57.6307 455.987 59.9983 456.956 62.5812C457.96 65.1282 458.696 67.8367 459.162 70.7065C459.664 73.5405 459.915 76.4283 459.915 79.37ZM438.391 76.5718C438.391 75.5674 438.284 74.545 438.068 73.5047C437.853 72.4285 437.494 71.4599 436.992 70.5989C436.526 69.7379 435.898 69.0384 435.109 68.5003C434.32 67.9263 433.333 67.6394 432.149 67.6394C430.714 67.6394 429.441 68.034 428.329 68.8232C427.252 69.5765 426.32 70.5451 425.531 71.7289C424.741 72.8769 424.096 74.1324 423.593 75.4956C423.091 76.8588 422.714 78.1144 422.463 79.2623L438.391 77.7557V76.5718Z" fill="black"/>
<path d="M500.131 47.5376L481.683 106.218L460.667 101.368L472.298 41.1145L500.131 47.5376ZM478.555 123.922C478.17 125.589 477.49 127.067 476.514 128.357C475.538 129.648 474.379 130.696 473.036 131.503C471.722 132.357 470.276 132.92 468.697 133.194C467.11 133.506 465.502 133.474 463.874 133.098C462.208 132.713 460.729 132.033 459.439 131.057C458.14 130.119 457.068 128.975 456.223 127.623C455.407 126.318 454.844 124.872 454.532 123.284C454.258 121.705 454.314 120.083 454.698 118.417C455.074 116.789 455.735 115.306 456.682 113.969C457.666 112.641 458.811 111.569 460.116 110.753C461.468 109.908 462.937 109.33 464.525 109.018C466.112 108.707 467.739 108.743 469.405 109.128C471.034 109.503 472.493 110.179 473.783 111.155C475.074 112.131 476.123 113.29 476.929 114.633C477.783 115.947 478.361 117.416 478.664 119.042C478.967 120.667 478.931 122.294 478.555 123.922Z" fill="black"/>
<path fill-rule="evenodd" clip-rule="evenodd" d="M506 44.1796L484.79 111.647L479.601 110.45C480.044 111.004 480.452 111.587 480.824 112.199C481.998 114.027 482.776 116.044 483.178 118.201C483.598 120.453 483.545 122.718 483.029 124.955C482.508 127.214 481.564 129.292 480.177 131.127C478.875 132.848 477.303 134.284 475.47 135.398C473.655 136.564 471.663 137.333 469.532 137.71C467.306 138.139 465.061 138.084 462.841 137.572C460.599 137.055 458.535 136.121 456.71 134.751C454.95 133.472 453.481 131.9 452.329 130.057C451.202 128.253 450.44 126.277 450.026 124.169L450.017 124.119L450.008 124.069C449.623 121.847 449.711 119.606 450.224 117.384C450.731 115.186 451.635 113.15 452.934 111.315L452.963 111.275L452.993 111.235C454.294 109.479 455.855 108.001 457.683 106.859C458.297 106.475 458.93 106.132 459.58 105.829L455.319 104.846L468.692 35.5698L506 44.1796ZM459.439 131.057C460.729 132.033 462.208 132.713 463.874 133.098C465.502 133.474 467.11 133.506 468.697 133.194C470.276 132.92 471.722 132.357 473.036 131.503C474.379 130.696 475.538 129.648 476.514 128.357C477.49 127.067 478.17 125.589 478.555 123.922C478.931 122.294 478.967 120.667 478.664 119.042C478.361 117.416 477.783 115.947 476.929 114.633C476.123 113.29 475.074 112.131 473.783 111.155C472.493 110.179 471.034 109.503 469.405 109.128C467.739 108.743 466.112 108.707 464.525 109.018C462.937 109.33 461.468 109.908 460.116 110.753C458.811 111.569 457.666 112.641 456.682 113.969C455.735 115.306 455.074 116.789 454.698 118.417C454.314 120.083 454.258 121.706 454.532 123.284C454.844 124.872 455.407 126.318 456.223 127.623C457.068 128.975 458.14 130.119 459.439 131.057ZM500.131 47.5376L472.298 41.1145L460.667 101.368L481.683 106.218L500.131 47.5376Z" fill="white"/>
<path d="M138.615 22.2774L130.608 23.3105L129.639 19.6622H125.959L125.152 23.3105L116.919 22.5034L123.344 1.00087L132.319 0.548863L138.615 22.2774ZM129.058 14.7225L127.831 9.10467L126.637 14.7225H129.058Z" fill="black"/>
<path d="M163.701 10.8481C163.701 12.3548 163.508 13.7054 163.12 14.9C162.733 16.0946 162.189 17.1547 161.49 18.0802C160.801 18.995 159.978 19.7752 159.02 20.4209C158.062 21.0667 157.013 21.5994 155.872 22.0191C154.731 22.4281 153.515 22.7294 152.224 22.9231C150.943 23.1168 149.625 23.2137 148.268 23.2137C147.763 23.2137 147.268 23.2029 146.783 23.1814C146.299 23.1491 145.804 23.1061 145.298 23.0523L145.75 2.03402C146.934 1.65735 148.15 1.39368 149.398 1.24301C150.658 1.08158 151.906 1.00087 153.144 1.00087C154.683 1.00087 156.098 1.21611 157.389 1.64659C158.681 2.07707 159.795 2.71203 160.731 3.55147C161.667 4.38014 162.394 5.40792 162.91 6.63479C163.438 7.8509 163.701 9.25534 163.701 10.8481ZM152.724 17.047C153.37 16.9502 153.956 16.7565 154.484 16.4659C155.022 16.1646 155.484 15.7987 155.872 15.3682C156.259 14.9269 156.555 14.4319 156.76 13.883C156.975 13.3234 157.083 12.7315 157.083 12.1073C157.083 11.4938 157.018 10.9235 156.889 10.3961C156.76 9.85802 156.55 9.39525 156.259 9.00782C155.969 8.60962 155.587 8.29752 155.113 8.07152C154.64 7.83476 154.058 7.70561 153.37 7.68409L152.724 17.047Z" fill="black"/>
<path d="M182.734 10.6221C182.734 11.5584 182.669 12.4947 182.54 13.431C180.7 13.5494 178.87 13.7431 177.052 14.0122C175.233 14.2704 173.414 14.5287 171.595 14.787C171.875 15.5619 172.311 16.1807 172.903 16.6435C173.505 17.1062 174.221 17.3376 175.05 17.3376C175.48 17.3376 175.948 17.2569 176.454 17.0955C176.971 16.934 177.482 16.735 177.988 16.4982C178.494 16.2507 178.978 15.987 179.441 15.7072C179.903 15.4274 180.302 15.1745 180.635 14.9485L179.86 22.2774C179.441 22.6003 178.983 22.8747 178.488 23.1007C178.004 23.3267 177.498 23.5096 176.971 23.6496C176.443 23.7895 175.911 23.8917 175.373 23.9563C174.835 24.0208 174.307 24.0531 173.791 24.0531C172.725 24.0531 171.751 23.9078 170.869 23.6173C169.986 23.3267 169.184 22.9231 168.463 22.4065C167.753 21.8792 167.129 21.2604 166.591 20.5501C166.053 19.8398 165.606 19.0649 165.251 18.2255C164.896 17.3861 164.627 16.4982 164.444 15.5619C164.261 14.6256 164.169 13.6785 164.169 12.7207C164.169 11.7198 164.261 10.719 164.444 9.71811C164.627 8.71724 164.901 7.75404 165.267 6.82851C165.644 5.90297 166.112 5.04739 166.672 4.26176C167.242 3.46537 167.904 2.77122 168.657 2.17931C169.41 1.5874 170.261 1.12463 171.208 0.791009C172.166 0.457386 173.22 0.290575 174.372 0.290575C175.33 0.290575 176.201 0.4251 176.987 0.694151C177.783 0.952439 178.488 1.31835 179.102 1.79188C179.726 2.25464 180.264 2.80889 180.716 3.45461C181.179 4.10033 181.555 4.81063 181.846 5.58549C182.147 6.3496 182.368 7.16213 182.508 8.02309C182.659 8.87329 182.734 9.73963 182.734 10.6221ZM176.277 9.78268C176.277 9.48135 176.244 9.17463 176.18 8.86253C176.115 8.53967 176.008 8.24909 175.857 7.9908C175.717 7.73252 175.529 7.52266 175.292 7.36123C175.055 7.18903 174.759 7.10294 174.404 7.10294C173.974 7.10294 173.592 7.22132 173.258 7.45808C172.935 7.68409 172.655 7.97466 172.418 8.32981C172.182 8.67419 171.988 9.05086 171.837 9.45982C171.687 9.86878 171.574 10.2454 171.498 10.5898L176.277 10.1378V9.78268Z" fill="black"/>
<path d="M200.346 15.4005C200.346 16.8749 200.088 18.1502 199.571 19.2264C199.065 20.2918 198.366 21.1743 197.472 21.8738C196.59 22.5626 195.551 23.0738 194.357 23.4074C193.173 23.7303 191.898 23.8917 190.531 23.8917C190.004 23.8917 189.422 23.8217 188.788 23.6818C188.163 23.5419 187.528 23.3697 186.883 23.1653C186.237 22.95 185.613 22.724 185.01 22.4873C184.418 22.2397 183.891 22.0083 183.428 21.7931L184.138 15.465C185.053 16.0139 186.065 16.4336 187.173 16.7242C188.292 17.004 189.39 17.1439 190.466 17.1439C190.671 17.1439 190.918 17.1385 191.209 17.1278C191.5 17.1062 191.774 17.0578 192.032 16.9825C192.301 16.8964 192.527 16.7726 192.71 16.6112C192.893 16.4498 192.985 16.2184 192.985 15.917C192.985 15.7126 192.92 15.5404 192.791 15.4005C192.662 15.2498 192.495 15.1314 192.291 15.0453C192.086 14.9485 191.855 14.8785 191.596 14.8355C191.338 14.7816 191.085 14.744 190.838 14.7225C190.59 14.7009 190.359 14.6902 190.144 14.6902C189.928 14.6902 189.756 14.6902 189.627 14.6902C188.701 14.6902 187.857 14.5449 187.092 14.2543C186.339 13.9637 185.688 13.5548 185.139 13.0274C184.601 12.4893 184.181 11.8436 183.88 11.0903C183.579 10.3262 183.428 9.48135 183.428 8.55581C183.428 7.28589 183.681 6.1505 184.187 5.14963C184.703 4.138 185.387 3.28242 186.237 2.58289C187.098 1.87259 188.083 1.32911 189.191 0.952439C190.3 0.575768 191.446 0.387433 192.63 0.387433C193.157 0.387433 193.7 0.408957 194.26 0.452005C194.82 0.484291 195.374 0.548863 195.923 0.645722C196.482 0.74258 197.026 0.866343 197.553 1.01701C198.081 1.16768 198.581 1.35602 199.054 1.58202L198.441 8.13609C197.709 7.88857 196.94 7.68409 196.133 7.52266C195.336 7.35046 194.556 7.26437 193.792 7.26437C193.652 7.26437 193.469 7.26975 193.243 7.28051C193.028 7.28051 192.796 7.29665 192.549 7.32894C192.312 7.35046 192.07 7.38813 191.822 7.44194C191.575 7.49575 191.354 7.57109 191.161 7.66794C190.967 7.75404 190.811 7.87242 190.692 8.02309C190.574 8.17376 190.52 8.35133 190.531 8.55581C190.542 8.79258 190.628 8.97553 190.789 9.10467C190.961 9.23382 191.177 9.33068 191.435 9.39525C191.704 9.44906 191.995 9.47596 192.307 9.47596C192.63 9.47596 192.947 9.47058 193.259 9.45982C193.571 9.4383 193.862 9.42215 194.131 9.41139C194.4 9.38987 194.621 9.38449 194.793 9.39525C195.654 9.44906 196.429 9.63201 197.117 9.94411C197.806 10.2562 198.387 10.6705 198.861 11.1871C199.345 11.7037 199.711 12.3225 199.959 13.0436C200.217 13.7539 200.346 14.5395 200.346 15.4005Z" fill="black"/>
<path d="M209.822 0.936296L208.692 22.9231L201.88 23.2783L201.234 1.3883L209.822 0.936296Z" fill="black"/>
<path d="M230.663 20.0497C230.157 20.6846 229.533 21.2389 228.79 21.7124C228.047 22.1859 227.251 22.5787 226.401 22.8908C225.551 23.2029 224.679 23.4397 223.786 23.6011C222.892 23.7518 222.042 23.8271 221.235 23.8271C219.675 23.8271 218.238 23.5635 216.925 23.0361C215.612 22.5088 214.476 21.777 213.519 20.8407C212.572 19.8936 211.829 18.769 211.291 17.4668C210.753 16.1646 210.484 14.744 210.484 13.205C210.484 12.0319 210.618 10.8912 210.887 9.78268C211.156 8.67419 211.538 7.63566 212.033 6.66708C212.539 5.69849 213.153 4.81063 213.874 4.00347C214.595 3.19632 215.413 2.50217 216.328 1.92102C217.242 1.33987 218.243 0.893248 219.33 0.581149C220.428 0.258289 221.59 0.0968582 222.817 0.0968582C223.28 0.0968582 223.775 0.118382 224.302 0.16143C224.83 0.193716 225.352 0.258289 225.868 0.355147C226.395 0.441243 226.907 0.565006 227.402 0.726437C227.897 0.887867 228.349 1.08696 228.758 1.32373L228.306 7.49037C227.703 7.26437 227.079 7.1137 226.433 7.03837C225.798 6.95227 225.174 6.90922 224.56 6.90922C223.7 6.90922 222.892 7.0276 222.139 7.26437C221.396 7.49037 220.745 7.82937 220.186 8.28138C219.637 8.73338 219.201 9.29839 218.878 9.9764C218.555 10.6544 218.394 11.44 218.394 12.3333C218.394 12.8929 218.469 13.4364 218.62 13.9637C218.771 14.4803 218.997 14.9431 219.298 15.352C219.61 15.7502 219.992 16.0731 220.444 16.3206C220.907 16.5681 221.44 16.6919 222.042 16.6919C222.451 16.6919 222.871 16.6381 223.301 16.5305C223.743 16.4229 224.119 16.2399 224.431 15.9816L224.496 14.7225L220.622 14.6579L220.815 9.81497C222.419 9.76116 224.022 9.71811 225.626 9.68582C227.229 9.64278 228.844 9.58897 230.469 9.52439L230.663 20.0497Z" fill="black"/>
<path d="M251.939 15.4973C251.939 16.7134 251.923 17.9188 251.891 19.1134C251.869 20.2972 251.831 21.4918 251.778 22.6971L242.479 22.5357C242.802 20.6308 243.082 18.7313 243.319 16.8372C243.555 14.9323 243.674 13.0113 243.674 11.0741C243.674 10.9342 243.668 10.7082 243.658 10.3961C243.647 10.084 243.625 9.73425 243.593 9.34682C243.561 8.94862 243.512 8.54505 243.448 8.13609C243.394 7.71637 243.313 7.33432 243.206 6.98994C243.109 6.64555 242.985 6.36574 242.834 6.1505C242.695 5.9245 242.522 5.81149 242.318 5.81149C241.952 5.81149 241.64 5.91911 241.382 6.13435C241.134 6.3496 240.924 6.62941 240.752 6.97379C240.591 7.30742 240.461 7.68409 240.365 8.10381C240.268 8.52352 240.192 8.94324 240.139 9.36296C240.095 9.78268 240.063 10.1809 240.042 10.5575C240.031 10.9235 240.026 11.2248 240.026 11.4616C239.972 13.3664 239.929 15.2606 239.896 17.1439C239.864 19.0165 239.821 20.9106 239.767 22.8263L231.534 23.1814C231.75 19.3824 231.954 15.6049 232.148 11.849C232.352 8.09304 232.514 4.31557 232.632 0.516577L240.252 0.129144L240.187 2.71203C240.488 2.34612 240.811 2.00174 241.156 1.67888C241.511 1.35602 241.887 1.08158 242.286 0.855581C242.684 0.618817 243.103 0.435862 243.545 0.306718C243.997 0.166811 244.47 0.0968582 244.965 0.0968582C245.88 0.0968582 246.682 0.247527 247.371 0.548863C248.059 0.8502 248.651 1.25916 249.146 1.77573C249.641 2.29231 250.056 2.90575 250.389 3.61604C250.723 4.31557 250.992 5.06353 251.197 5.85992C251.401 6.65631 251.557 7.49037 251.665 8.36209C251.772 9.22306 251.842 10.0733 251.875 10.9127C251.918 11.7521 251.939 12.5647 251.939 13.3503C251.939 14.1359 251.939 14.8516 251.939 15.4973Z" fill="black"/>
<path d="M271.488 10.6221C271.488 11.5584 271.424 12.4947 271.295 13.431C269.454 13.5494 267.625 13.7431 265.806 14.0122C263.987 14.2704 262.168 14.5287 260.35 14.787C260.629 15.5619 261.065 16.1807 261.657 16.6435C262.26 17.1062 262.976 17.3376 263.804 17.3376C264.235 17.3376 264.703 17.2569 265.209 17.0955C265.725 16.934 266.236 16.735 266.742 16.4982C267.248 16.2507 267.732 15.987 268.195 15.7072C268.658 15.4274 269.056 15.1745 269.39 14.9485L268.615 22.2774C268.195 22.6003 267.738 22.8747 267.243 23.1007C266.758 23.3267 266.253 23.5096 265.725 23.6496C265.198 23.7895 264.665 23.8917 264.127 23.9563C263.589 24.0208 263.062 24.0531 262.545 24.0531C261.48 24.0531 260.506 23.9078 259.623 23.6173C258.741 23.3267 257.939 22.9231 257.218 22.4065C256.508 21.8792 255.883 21.2604 255.345 20.5501C254.807 19.8398 254.361 19.0649 254.005 18.2255C253.65 17.3861 253.381 16.4982 253.198 15.5619C253.015 14.6256 252.924 13.6785 252.924 12.7207C252.924 11.7198 253.015 10.719 253.198 9.71811C253.381 8.71724 253.656 7.75404 254.022 6.82851C254.398 5.90297 254.866 5.04739 255.426 4.26176C255.996 3.46537 256.658 2.77122 257.412 2.17931C258.165 1.5874 259.015 1.12463 259.962 0.791009C260.92 0.457386 261.975 0.290575 263.126 0.290575C264.084 0.290575 264.956 0.4251 265.741 0.694151C266.538 0.952439 267.243 1.31835 267.856 1.79188C268.48 2.25464 269.018 2.80889 269.47 3.45461C269.933 4.10033 270.31 4.81063 270.6 5.58549C270.902 6.3496 271.122 7.16213 271.262 8.02309C271.413 8.87329 271.488 9.73963 271.488 10.6221ZM265.031 9.78268C265.031 9.48135 264.999 9.17463 264.934 8.86253C264.87 8.53967 264.762 8.24909 264.611 7.9908C264.471 7.73252 264.283 7.52266 264.046 7.36123C263.81 7.18903 263.514 7.10294 263.159 7.10294C262.728 7.10294 262.346 7.22132 262.012 7.45808C261.689 7.68409 261.41 7.97466 261.173 8.32981C260.936 8.67419 260.742 9.05086 260.592 9.45982C260.441 9.86878 260.328 10.2454 260.253 10.5898L265.031 10.1378V9.78268Z" fill="black"/>
<path d="M291.473 8.10381C291.473 8.94324 291.398 9.70735 291.247 10.3961C291.107 11.0741 290.881 11.6983 290.569 12.2687C290.257 12.8391 289.854 13.3664 289.359 13.8507C288.864 14.335 288.266 14.7978 287.567 15.239L291.409 22.0837L284.144 23.5043L281.658 16.6273L279.657 16.6919L279.366 23.4074H272.425C272.478 20.9537 272.527 18.5107 272.57 16.0785C272.624 13.6462 272.683 11.2033 272.747 8.74953C272.769 7.51189 272.791 6.28502 272.812 5.06891C272.834 3.85281 272.877 2.62593 272.941 1.3883C273.695 1.10849 274.437 0.877105 275.169 0.694151C275.901 0.511196 276.633 0.37129 277.364 0.274432C278.107 0.166811 278.855 0.0968582 279.608 0.0645722C280.372 0.0215241 281.153 0 281.949 0C283.176 0 284.36 0.172192 285.5 0.516577C286.652 0.8502 287.669 1.35602 288.552 2.03402C289.434 2.71203 290.139 3.55685 290.666 4.56848C291.204 5.58011 291.473 6.75855 291.473 8.10381ZM284.241 8.62038C284.241 8.16838 284.177 7.75404 284.048 7.37737C283.929 7.0007 283.746 6.67784 283.499 6.40879C283.262 6.12897 282.961 5.91373 282.595 5.76307C282.24 5.60163 281.82 5.52092 281.336 5.52092C281.12 5.52092 280.91 5.53706 280.706 5.56935C280.502 5.59087 280.302 5.62854 280.109 5.68235L279.85 11.6876H280.238C280.701 11.6876 281.169 11.6284 281.642 11.51C282.127 11.3916 282.557 11.2087 282.934 10.9611C283.321 10.7136 283.633 10.3961 283.87 10.0087C284.118 9.62125 284.241 9.15848 284.241 8.62038Z" fill="black"/>
<path d="M307.487 0.936296L306.357 22.9231L299.545 23.2783L298.899 1.3883L307.487 0.936296Z" fill="black"/>
<path d="M328.845 15.4973C328.845 16.7134 328.828 17.9188 328.796 19.1134C328.775 20.2972 328.737 21.4918 328.683 22.6971L319.385 22.5357C319.708 20.6308 319.987 18.7313 320.224 16.8372C320.461 14.9323 320.579 13.0113 320.579 11.0741C320.579 10.9342 320.574 10.7082 320.563 10.3961C320.552 10.084 320.531 9.73425 320.499 9.34682C320.466 8.94862 320.418 8.54505 320.353 8.13609C320.299 7.71637 320.219 7.33432 320.111 6.98994C320.014 6.64555 319.891 6.36574 319.74 6.1505C319.6 5.9245 319.428 5.81149 319.223 5.81149C318.857 5.81149 318.545 5.91911 318.287 6.13435C318.039 6.3496 317.83 6.62941 317.657 6.97379C317.496 7.30742 317.367 7.68409 317.27 8.10381C317.173 8.52352 317.098 8.94324 317.044 9.36296C317.001 9.78268 316.969 10.1809 316.947 10.5575C316.936 10.9235 316.931 11.2248 316.931 11.4616C316.877 13.3664 316.834 15.2606 316.802 17.1439C316.77 19.0165 316.726 20.9106 316.673 22.8263L308.44 23.1814C308.655 19.3824 308.859 15.6049 309.053 11.849C309.258 8.09304 309.419 4.31557 309.537 0.516577L317.157 0.129144L317.092 2.71203C317.394 2.34612 317.717 2.00174 318.061 1.67888C318.416 1.35602 318.793 1.08158 319.191 0.855581C319.589 0.618817 320.009 0.435862 320.45 0.306718C320.902 0.166811 321.376 0.0968582 321.871 0.0968582C322.786 0.0968582 323.587 0.247527 324.276 0.548863C324.965 0.8502 325.557 1.25916 326.052 1.77573C326.547 2.29231 326.961 2.90575 327.295 3.61604C327.628 4.31557 327.897 5.06353 328.102 5.85992C328.306 6.65631 328.462 7.49037 328.57 8.36209C328.678 9.22306 328.748 10.0733 328.78 10.9127C328.823 11.7521 328.845 12.5647 328.845 13.3503C328.845 14.1359 328.845 14.8516 328.845 15.4973Z" fill="black"/>
<path d="M353.931 0.90401L353.769 7.74866L348.959 7.94238L348.378 22.9231L341.565 23.2783L340.952 8.29752L336.141 8.55581L336.335 0.936296L353.931 0.90401Z" fill="black"/>
<path d="M374.013 23.02L365.941 23.4074L365.877 16.595H362.164L361.938 23.6657H354.706L355.319 0.968582L363.003 1.32373L362.519 12.9144H366.103L366.135 0.774866L373.496 0.968582L374.013 23.02Z" fill="black"/>
<path d="M393.562 10.6221C393.562 11.5584 393.497 12.4947 393.368 13.431C391.528 13.5494 389.698 13.7431 387.88 14.0122C386.061 14.2704 384.242 14.5287 382.423 14.787C382.703 15.5619 383.139 16.1807 383.731 16.6435C384.334 17.1062 385.049 17.3376 385.878 17.3376C386.308 17.3376 386.777 17.2569 387.282 17.0955C387.799 16.934 388.31 16.735 388.816 16.4982C389.322 16.2507 389.806 15.987 390.269 15.7072C390.732 15.4274 391.13 15.1745 391.463 14.9485L390.689 22.2774C390.269 22.6003 389.811 22.8747 389.316 23.1007C388.832 23.3267 388.326 23.5096 387.799 23.6496C387.272 23.7895 386.739 23.8917 386.201 23.9563C385.663 24.0208 385.135 24.0531 384.619 24.0531C383.553 24.0531 382.579 23.9078 381.697 23.6173C380.814 23.3267 380.013 22.9231 379.292 22.4065C378.581 21.8792 377.957 21.2604 377.419 20.5501C376.881 19.8398 376.434 19.0649 376.079 18.2255C375.724 17.3861 375.455 16.4982 375.272 15.5619C375.089 14.6256 374.997 13.6785 374.997 12.7207C374.997 11.7198 375.089 10.719 375.272 9.71811C375.455 8.71724 375.729 7.75404 376.095 6.82851C376.472 5.90297 376.94 5.04739 377.5 4.26176C378.07 3.46537 378.732 2.77122 379.485 2.17931C380.239 1.5874 381.089 1.12463 382.036 0.791009C382.994 0.457386 384.048 0.290575 385.2 0.290575C386.158 0.290575 387.029 0.4251 387.815 0.694151C388.611 0.952439 389.316 1.31835 389.93 1.79188C390.554 2.25464 391.092 2.80889 391.544 3.45461C392.007 4.10033 392.384 4.81063 392.674 5.58549C392.975 6.3496 393.196 7.16213 393.336 8.02309C393.487 8.87329 393.562 9.73963 393.562 10.6221ZM387.105 9.78268C387.105 9.48135 387.072 9.17463 387.008 8.86253C386.943 8.53967 386.836 8.24909 386.685 7.9908C386.545 7.73252 386.357 7.52266 386.12 7.36123C385.883 7.18903 385.587 7.10294 385.232 7.10294C384.802 7.10294 384.42 7.22132 384.086 7.45808C383.763 7.68409 383.483 7.97466 383.247 8.32981C383.01 8.67419 382.816 9.05086 382.665 9.45982C382.515 9.86878 382.402 10.2454 382.326 10.5898L387.105 10.1378V9.78268Z" fill="black"/>
</svg>
