<svg width="562" height="161" viewBox="0 0 562 161" fill="none" xmlns="http://www.w3.org/2000/svg">
<path d="M156.823 91.6168C156.823 94.9176 156.527 97.9221 155.934 100.63C155.384 103.296 154.496 105.751 153.268 107.994C152.041 110.237 150.454 112.31 148.508 114.214C146.561 116.119 144.212 117.938 141.462 119.673L156.569 146.588L128.005 152.173L118.229 125.132L110.358 125.386L109.216 151.793H81.9207C82.1322 142.144 82.3227 132.538 82.4919 122.974C82.7035 113.41 82.9363 103.804 83.1902 94.1559C83.2748 89.2893 83.3595 84.4651 83.4441 79.6832C83.5287 74.9013 83.698 70.0771 83.9519 65.2106C86.9141 64.1103 89.8341 63.2005 92.7117 62.4811C95.5893 61.7617 98.4669 61.2115 101.344 60.8307C104.264 60.4075 107.205 60.1324 110.168 60.0055C113.172 59.8362 116.24 59.7516 119.372 59.7516C124.196 59.7516 128.851 60.4287 133.337 61.7828C137.865 63.0947 141.864 65.0836 145.334 67.7496C148.804 70.4156 151.576 73.7376 153.649 77.7154C155.765 81.6933 156.823 86.3271 156.823 91.6168ZM128.385 93.6481C128.385 91.8707 128.132 90.2415 127.624 88.7604C127.158 87.2792 126.439 86.0097 125.466 84.9518C124.535 83.8515 123.35 83.0052 121.911 82.4127C120.514 81.7779 118.864 81.4606 116.96 81.4606C116.113 81.4606 115.288 81.524 114.484 81.651C113.68 81.7356 112.897 81.8837 112.135 82.0953L111.12 105.709H112.643C114.463 105.709 116.304 105.476 118.166 105.01C120.07 104.545 121.763 103.825 123.244 102.852C124.767 101.879 125.995 100.63 126.926 99.107C127.899 97.5836 128.385 95.7639 128.385 93.6481Z" fill="black"/>
<path d="M239.723 104.185C239.723 108.036 239.279 111.76 238.39 115.357C237.502 118.912 236.211 122.255 234.518 125.386C232.868 128.518 230.837 131.395 228.425 134.019C226.055 136.601 223.368 138.822 220.363 140.684C217.401 142.546 214.163 144.006 210.651 145.064C207.139 146.08 203.415 146.588 199.479 146.588C195.671 146.588 192.031 146.101 188.561 145.128C185.134 144.154 181.917 142.8 178.913 141.065C175.908 139.288 173.179 137.172 170.724 134.717C168.312 132.221 166.239 129.47 164.504 126.465C162.811 123.419 161.478 120.16 160.505 116.69C159.574 113.22 159.108 109.602 159.108 105.836C159.108 102.154 159.552 98.5569 160.441 95.0445C161.33 91.4899 162.599 88.1468 164.25 85.0152C165.942 81.8837 167.974 79.0061 170.344 76.3824C172.713 73.7587 175.358 71.4947 178.278 69.5904C181.24 67.6861 184.435 66.205 187.863 65.1471C191.291 64.0891 194.909 63.5602 198.718 63.5602C204.854 63.5602 210.44 64.5123 215.475 66.4166C220.553 68.3209 224.87 71.0504 228.425 74.6051C232.022 78.1175 234.793 82.3915 236.74 87.4274C238.729 92.4208 239.723 98.0068 239.723 104.185ZM211.54 105.836C211.54 104.016 211.265 102.26 210.715 100.567C210.207 98.832 209.445 97.3085 208.429 95.9967C207.414 94.6425 206.144 93.5634 204.621 92.7594C203.14 91.913 201.426 91.4899 199.479 91.4899C197.49 91.4899 195.713 91.8496 194.147 92.569C192.581 93.2884 191.227 94.2828 190.085 95.5524C188.984 96.7796 188.138 98.2395 187.546 99.9322C186.953 101.583 186.657 103.339 186.657 105.201C186.657 106.978 186.911 108.755 187.419 110.533C187.927 112.31 188.688 113.918 189.704 115.357C190.719 116.796 191.968 117.96 193.449 118.848C194.972 119.737 196.729 120.181 198.718 120.181C200.706 120.181 202.484 119.8 204.05 119.039C205.658 118.235 207.012 117.177 208.112 115.865C209.212 114.511 210.059 112.966 210.651 111.231C211.244 109.496 211.54 107.698 211.54 105.836Z" fill="black"/>
<path d="M302.629 100.504C302.629 103 302.629 105.476 302.629 107.93C302.629 110.385 302.502 112.86 302.248 115.357C301.782 120.647 300.64 125.661 298.82 130.401C297 135.098 294.525 139.224 291.393 142.779C288.304 146.334 284.538 149.148 280.094 151.221C275.651 153.295 270.552 154.332 264.797 154.332C262.554 154.332 260.205 154.141 257.751 153.76C255.339 153.38 252.927 152.808 250.514 152.046C248.145 151.285 245.859 150.354 243.659 149.254C241.501 148.111 239.575 146.799 237.883 145.318L241.818 119.039C244.315 121.451 247.087 123.419 250.134 124.942C253.18 126.423 256.502 127.164 260.099 127.164C262.427 127.164 264.395 126.825 266.003 126.148C267.611 125.471 268.944 124.54 270.002 123.355C271.06 122.17 271.885 120.795 272.477 119.229C273.112 117.621 273.556 115.928 273.81 114.151C274.107 112.331 274.276 110.469 274.318 108.565C274.403 106.661 274.445 104.778 274.445 102.916C274.445 96.1871 274.107 89.5009 273.429 82.857C272.752 76.1708 272.16 69.4846 271.652 62.7984L300.724 60.8941C301.994 74.0973 302.629 87.3004 302.629 100.504Z" fill="black"/>
<path d="M379.118 101.519C379.118 105.201 378.864 108.882 378.356 112.564C371.12 113.03 363.926 113.791 356.774 114.849C349.622 115.865 342.471 116.88 335.319 117.896C336.419 120.943 338.133 123.376 340.461 125.196C342.83 127.016 345.645 127.925 348.903 127.925C350.596 127.925 352.437 127.608 354.426 126.973C356.457 126.338 358.467 125.556 360.456 124.625C362.445 123.651 364.349 122.615 366.169 121.514C367.988 120.414 369.554 119.42 370.866 118.531L367.819 147.349C366.169 148.619 364.37 149.698 362.424 150.587C360.519 151.475 358.53 152.195 356.457 152.745C354.383 153.295 352.288 153.697 350.173 153.951C348.057 154.205 345.983 154.332 343.952 154.332C339.762 154.332 335.933 153.76 332.463 152.618C328.993 151.475 325.84 149.888 323.005 147.857C320.212 145.783 317.757 143.35 315.641 140.557C313.525 137.764 311.769 134.717 310.373 131.417C308.976 128.116 307.918 124.625 307.199 120.943C306.48 117.261 306.12 113.537 306.12 109.771C306.12 105.836 306.48 101.9 307.199 97.9645C307.918 94.0289 308.997 90.2415 310.436 86.6022C311.917 82.9628 313.758 79.5986 315.959 76.5094C318.202 73.3779 320.804 70.6484 323.766 68.3209C326.729 65.9934 330.072 64.1738 333.796 62.8619C337.562 61.5501 341.709 60.8941 346.237 60.8941C350.003 60.8941 353.431 61.4231 356.52 62.4811C359.652 63.4967 362.424 64.9355 364.836 66.7975C367.29 68.6171 369.406 70.7965 371.183 73.3356C373.003 75.8746 374.484 78.6676 375.627 81.7145C376.812 84.719 377.679 87.914 378.229 91.2994C378.822 94.6425 379.118 98.0491 379.118 101.519ZM353.727 98.2184C353.727 97.0335 353.6 95.8274 353.346 94.6002C353.093 93.3307 352.669 92.1881 352.077 91.1725C351.527 90.1568 350.786 89.3316 349.855 88.6969C348.924 88.0198 347.76 87.6813 346.364 87.6813C344.671 87.6813 343.169 88.1468 341.857 89.0777C340.588 89.9664 339.487 91.109 338.556 92.5055C337.625 93.8596 336.864 95.3408 336.271 96.9488C335.679 98.5569 335.234 100.038 334.938 101.392L353.727 99.6149V98.2184Z" fill="black"/>
<path d="M443.864 66.0992L441.579 92.8863C440.352 92.5478 439.146 92.315 437.961 92.1881C436.776 92.0611 435.57 91.9977 434.343 91.9977C431.338 91.9977 428.46 92.3785 425.71 93.1402C423.001 93.902 420.589 95.0657 418.473 96.6315C416.4 98.1972 414.728 100.186 413.459 102.598C412.232 104.968 411.618 107.782 411.618 111.041C411.618 113.41 411.956 115.484 412.634 117.261C413.353 118.996 414.347 120.456 415.617 121.641C416.929 122.784 418.495 123.651 420.314 124.244C422.176 124.836 424.229 125.132 426.471 125.132C428.037 125.132 429.645 124.984 431.296 124.688C432.946 124.35 434.596 123.905 436.247 123.355C437.897 122.805 439.484 122.17 441.008 121.451C442.531 120.731 443.949 119.97 445.26 119.166L444.245 149C442.594 149.846 440.817 150.608 438.913 151.285C437.009 151.92 435.041 152.47 433.01 152.935C431.021 153.443 429.01 153.824 426.979 154.078C424.99 154.332 423.086 154.459 421.266 154.459C415.257 154.459 409.777 153.337 404.826 151.094C399.917 148.852 395.685 145.805 392.131 141.954C388.618 138.06 385.889 133.554 383.942 128.433C381.996 123.313 381.022 117.854 381.022 112.056C381.022 105.116 381.996 98.6415 383.942 92.6324C385.931 86.6233 388.83 81.4182 392.638 77.0172C396.489 72.5738 401.229 69.1038 406.857 66.607C412.528 64.068 419.024 62.7984 426.344 62.7984C429.264 62.7984 432.227 63.0312 435.231 63.4967C438.236 63.9622 441.113 64.8297 443.864 66.0992Z" fill="black"/>
<path d="M517.179 63.3063L516.545 90.2203L497.629 90.982L495.344 149.888L468.556 151.285L466.144 92.3785L447.228 93.3941L447.99 63.4332L517.179 63.3063Z" fill="black"/>
<path d="M79.0577 81.2677C79.8831 85.2887 80.0139 88.977 79.4501 92.3328C78.8862 95.6886 77.7897 98.7649 76.1607 101.562C74.5646 104.309 72.5231 106.78 70.0362 108.975C67.5408 111.129 64.7828 113.056 61.7622 114.756C58.7745 116.406 55.6114 117.833 52.2729 119.037C48.9259 120.199 45.5986 121.142 42.2908 121.864L47.7288 148.353L18.7531 154.301C17.7829 149.576 16.8383 144.974 15.9192 140.497C15.0415 136.012 14.1517 131.572 13.2496 127.178C12.3805 122.734 11.4863 118.274 10.5672 113.797C9.6896 109.311 8.78216 104.681 7.84495 99.905C6.88961 94.8307 5.8721 89.7692 4.79241 84.7204C3.71271 79.6716 2.76959 74.5516 1.96305 69.3604C6.94567 66.6958 12.0091 64.4251 17.1534 62.5482C22.2978 60.6713 27.6887 59.1541 33.3264 57.9968C36.5183 57.3415 39.7655 56.9556 43.068 56.8392C46.362 56.6814 49.5748 56.8642 52.7063 57.3878C55.8792 57.9028 58.8837 58.7548 61.7199 59.9437C64.5889 61.0827 67.1737 62.6257 69.4742 64.5726C71.7747 66.5196 73.7495 68.879 75.3985 71.6508C77.0891 74.4142 78.3088 77.6198 79.0577 81.2677ZM51.8839 89.0496C51.3307 86.3551 50.0719 84.432 48.1074 83.2801C46.1758 82.0782 43.9043 81.7453 41.2927 82.2815C40.4222 82.4602 39.5273 82.7303 38.6079 83.0918C37.7215 83.4034 36.885 83.748 36.0985 84.1254L39.0798 102.435C39.6771 102.399 40.2453 102.325 40.7841 102.215C41.323 102.104 41.8826 101.989 42.463 101.87C43.9553 101.564 45.3344 101.021 46.6002 100.243C47.9075 99.4564 49.0064 98.4964 49.897 97.3631C50.779 96.1885 51.4033 94.9155 51.7698 93.5442C52.1692 92.123 52.2073 90.6248 51.8839 89.0496Z" fill="black"/>
<path d="M561.257 62.3139L544.434 127.147L521.311 123.032L530.635 56.8649L561.257 62.3139ZM542.009 146.573C541.682 148.406 541.024 150.051 540.034 151.508C539.044 152.966 537.841 154.17 536.426 155.122C535.044 156.122 533.502 156.815 531.801 157.2C530.091 157.626 528.341 157.68 526.549 157.362C524.716 157.035 523.071 156.377 521.614 155.387C520.149 154.439 518.92 153.253 517.927 151.83C516.968 150.456 516.275 148.914 515.849 147.205C515.464 145.503 515.435 143.736 515.761 141.902C516.08 140.111 516.717 138.462 517.673 136.956C518.67 135.457 519.856 134.228 521.23 133.269C522.653 132.276 524.219 131.566 525.929 131.139C527.638 130.713 529.409 130.663 531.242 130.989C533.034 131.308 534.658 131.962 536.115 132.952C537.573 133.942 538.777 135.145 539.728 136.561C540.729 137.942 541.439 139.508 541.858 141.259C542.277 143.01 542.327 144.781 542.009 146.573Z" fill="black"/>
<path d="M93.6638 19.6676C93.6638 20.8199 93.6638 21.9625 93.6638 23.0953C93.6638 24.2281 93.6052 25.3707 93.488 26.5231C93.2732 28.9645 92.7458 31.2789 91.906 33.4664C91.0662 35.6344 89.9236 37.5387 88.4783 39.1793C87.0525 40.8199 85.3142 42.1188 83.2634 43.0758C81.2126 44.0328 78.8591 44.5114 76.2029 44.5114C75.1677 44.5114 74.0837 44.4235 72.9509 44.2477C71.8376 44.0719 70.7244 43.8082 69.6111 43.4567C68.5173 43.1051 67.4626 42.6754 66.447 42.1676C65.4509 41.6403 64.5623 41.0348 63.781 40.3512L65.5974 28.2223C66.7498 29.3356 68.0291 30.2438 69.4353 30.9469C70.8416 31.6305 72.3748 31.9723 74.0349 31.9723C75.1091 31.9723 76.0173 31.816 76.7595 31.5035C77.5017 31.191 78.1169 30.7614 78.6052 30.2145C79.0935 29.6676 79.4744 29.0328 79.7478 28.3102C80.0408 27.568 80.2458 26.7867 80.363 25.9664C80.4998 25.1266 80.5779 24.2672 80.5974 23.3883C80.6365 22.5094 80.656 21.6403 80.656 20.7809C80.656 17.6754 80.4998 14.5895 80.1873 11.5231C79.8748 8.43713 79.6013 5.3512 79.3669 2.26526L92.7849 1.38635C93.3708 7.4801 93.6638 13.5739 93.6638 19.6676Z" fill="black"/>
<path d="M131.193 2.55823C130.314 9.43323 129.562 16.2789 128.937 23.0953C128.312 29.8922 127.717 36.7379 127.15 43.6324L115.138 44.5114L115.666 39.9996C115.275 40.4489 114.816 40.8395 114.289 41.1715C113.781 41.5035 113.234 41.777 112.648 41.9918C112.062 42.1871 111.457 42.3336 110.832 42.4313C110.207 42.5094 109.611 42.5387 109.045 42.5192C107.717 42.4996 106.467 42.2457 105.295 41.7574C104.123 41.2496 103.049 40.5856 102.072 39.7653C101.095 38.9254 100.217 37.9586 99.4353 36.8649C98.6541 35.7516 97.99 34.5895 97.4431 33.3785C96.9158 32.1481 96.5056 30.8981 96.2126 29.6285C95.9392 28.359 95.8025 27.1285 95.8025 25.9371C95.8025 24.1793 95.8318 22.3629 95.8904 20.4879C95.9685 18.5934 96.0955 16.6989 96.2712 14.8043C96.447 12.9098 96.6716 11.0348 96.9451 9.17932C97.238 7.32385 97.5994 5.54651 98.0291 3.84729C100.412 3.96448 102.804 4.0719 105.207 4.16956C107.609 4.26721 110.002 4.29651 112.385 4.25745C111.935 5.95667 111.486 7.66565 111.037 9.3844C110.607 11.0836 110.217 12.8024 109.865 14.5406C109.513 16.2594 109.23 17.9879 109.015 19.7262C108.801 21.4645 108.693 23.2223 108.693 24.9996C108.693 25.4098 108.713 25.9957 108.752 26.7574C108.791 27.5192 108.888 28.2711 109.045 29.0133C109.22 29.7555 109.474 30.4098 109.806 30.9762C110.158 31.5231 110.646 31.7965 111.271 31.7965C112.013 31.7965 112.677 31.484 113.263 30.859C113.849 30.2145 114.367 29.3551 114.816 28.2809C115.265 27.2067 115.646 25.9664 115.959 24.5602C116.291 23.1539 116.564 21.6891 116.779 20.1656C117.013 18.6227 117.199 17.0699 117.336 15.5074C117.472 13.9449 117.57 12.4801 117.629 11.1129C117.707 9.7262 117.756 8.48596 117.775 7.39221C117.814 6.29846 117.834 5.44885 117.834 4.84338C117.834 4.45276 117.824 4.0719 117.804 3.70081C117.785 3.32971 117.756 2.94885 117.717 2.55823C118.986 2.59729 120.246 2.62659 121.496 2.64612C122.746 2.66565 124.006 2.67542 125.275 2.67542C126.252 2.67542 127.228 2.67542 128.205 2.67542C129.201 2.65588 130.197 2.61682 131.193 2.55823Z" fill="black"/>
<path d="M162.687 28.8082C162.687 31.484 162.219 33.7985 161.281 35.7516C160.363 37.6852 159.094 39.2867 157.472 40.5563C155.871 41.8063 153.986 42.734 151.818 43.3395C149.67 43.9254 147.355 44.2184 144.875 44.2184C143.918 44.2184 142.863 44.0914 141.711 43.8375C140.578 43.5836 139.426 43.2711 138.254 42.9C137.082 42.5094 135.949 42.0992 134.855 41.6696C133.781 41.2203 132.824 40.8004 131.984 40.4098L133.273 28.9254C134.933 29.9215 136.769 30.6832 138.781 31.2106C140.812 31.7184 142.804 31.9723 144.758 31.9723C145.129 31.9723 145.578 31.9625 146.105 31.943C146.633 31.9039 147.131 31.816 147.599 31.6793C148.088 31.5231 148.498 31.2985 148.83 31.0055C149.162 30.7125 149.328 30.2926 149.328 29.7457C149.328 29.3746 149.211 29.0621 148.976 28.8082C148.742 28.5348 148.439 28.3199 148.068 28.1637C147.697 27.9879 147.277 27.861 146.808 27.7828C146.34 27.6852 145.881 27.6168 145.431 27.5778C144.982 27.5387 144.562 27.5192 144.172 27.5192C143.781 27.5192 143.469 27.5192 143.234 27.5192C141.554 27.5192 140.021 27.2555 138.635 26.7281C137.267 26.2008 136.086 25.4586 135.09 24.5016C134.113 23.525 133.351 22.3531 132.804 20.986C132.258 19.5992 131.984 18.066 131.984 16.3864C131.984 14.0817 132.443 12.0211 133.361 10.2047C134.299 8.36877 135.539 6.81604 137.082 5.54651C138.644 4.25745 140.431 3.27112 142.443 2.58752C144.455 1.90393 146.535 1.56213 148.683 1.56213C149.64 1.56213 150.627 1.6012 151.642 1.67932C152.658 1.73792 153.664 1.8551 154.66 2.03088C155.676 2.20667 156.662 2.43127 157.619 2.70471C158.576 2.97815 159.484 3.31995 160.344 3.7301L159.23 15.6246C157.902 15.1754 156.506 14.8043 155.041 14.5114C153.595 14.1989 152.179 14.0426 150.793 14.0426C150.539 14.0426 150.207 14.0524 149.797 14.0719C149.406 14.0719 148.986 14.1012 148.537 14.1598C148.107 14.1989 147.668 14.2672 147.219 14.3649C146.769 14.4625 146.369 14.5992 146.017 14.775C145.666 14.9313 145.383 15.1461 145.168 15.4196C144.953 15.693 144.855 16.0153 144.875 16.3864C144.894 16.816 145.051 17.1481 145.344 17.3824C145.656 17.6168 146.047 17.7926 146.515 17.9098C147.004 18.0074 147.531 18.0563 148.097 18.0563C148.683 18.0563 149.26 18.0465 149.826 18.027C150.392 17.9879 150.92 17.9586 151.408 17.9391C151.896 17.9 152.297 17.8903 152.609 17.9098C154.172 18.0074 155.578 18.3395 156.828 18.9059C158.078 19.4723 159.133 20.2242 159.992 21.1617C160.871 22.0992 161.535 23.2223 161.984 24.5309C162.453 25.8199 162.687 27.2457 162.687 28.8082Z" fill="black"/>
<path d="M194.914 2.49963L194.621 14.9215L185.89 15.2731L184.836 42.4606L172.472 43.1051L171.359 15.9176L162.629 16.3864L162.98 2.55823L194.914 2.49963Z" fill="black"/>
<path d="M244.513 21.3668C244.513 23.1442 244.308 24.8629 243.898 26.5231C243.488 28.1637 242.892 29.7067 242.111 31.152C241.349 32.5973 240.412 33.9254 239.299 35.1364C238.205 36.3278 236.965 37.3531 235.578 38.2125C234.211 39.0719 232.717 39.7457 231.095 40.234C229.474 40.7028 227.756 40.9371 225.939 40.9371C224.181 40.9371 222.502 40.7125 220.9 40.2633C219.318 39.8141 217.834 39.1891 216.447 38.3883C215.06 37.568 213.801 36.5914 212.668 35.4586C211.554 34.3063 210.597 33.0367 209.797 31.65C209.015 30.2438 208.4 28.7399 207.951 27.1383C207.521 25.5367 207.306 23.8668 207.306 22.1285C207.306 20.4293 207.511 18.7692 207.922 17.1481C208.332 15.5074 208.918 13.9645 209.679 12.5192C210.461 11.0739 211.398 9.74573 212.492 8.53479C213.586 7.32385 214.806 6.27893 216.154 5.40002C217.521 4.52112 218.996 3.83752 220.578 3.34924C222.16 2.86096 223.83 2.61682 225.588 2.61682C228.42 2.61682 230.998 3.05627 233.322 3.93518C235.666 4.81409 237.658 6.07385 239.299 7.71448C240.959 9.33557 242.238 11.3082 243.136 13.6324C244.054 15.9371 244.513 18.5153 244.513 21.3668ZM231.506 22.1285C231.506 21.2887 231.379 20.4781 231.125 19.6969C230.89 18.8961 230.539 18.193 230.07 17.5875C229.601 16.9625 229.015 16.4645 228.312 16.0934C227.629 15.7028 226.838 15.5074 225.939 15.5074C225.021 15.5074 224.201 15.6735 223.478 16.0055C222.756 16.3375 222.131 16.7965 221.603 17.3824C221.095 17.9489 220.705 18.6227 220.431 19.4039C220.158 20.1656 220.021 20.9762 220.021 21.8356C220.021 22.6559 220.138 23.4762 220.373 24.2965C220.607 25.1168 220.959 25.859 221.427 26.5231C221.896 27.1871 222.472 27.7242 223.156 28.1344C223.859 28.5446 224.67 28.7496 225.588 28.7496C226.506 28.7496 227.326 28.5739 228.049 28.2223C228.791 27.8512 229.416 27.3629 229.924 26.7574C230.431 26.1324 230.822 25.4196 231.095 24.6188C231.369 23.818 231.506 22.9879 231.506 22.1285Z" fill="black"/>
<path d="M282.57 28.984C282.57 31.191 282.541 33.3785 282.482 35.5465C282.443 37.6949 282.375 39.8629 282.277 42.0504L265.402 41.7574C265.988 38.3004 266.496 34.8531 266.926 31.4156C267.355 27.9586 267.57 24.4723 267.57 20.9567C267.57 20.7028 267.56 20.2926 267.541 19.7262C267.521 19.1598 267.482 18.525 267.424 17.8219C267.365 17.0992 267.277 16.3668 267.16 15.6246C267.062 14.8629 266.916 14.1696 266.72 13.5446C266.545 12.9196 266.32 12.4117 266.047 12.0211C265.793 11.611 265.48 11.4059 265.109 11.4059C264.445 11.4059 263.879 11.6012 263.41 11.9918C262.961 12.3824 262.58 12.8903 262.267 13.5153C261.974 14.1207 261.74 14.8043 261.564 15.566C261.388 16.3278 261.252 17.0895 261.154 17.8512C261.076 18.6129 261.017 19.3356 260.978 20.0192C260.959 20.6832 260.949 21.2301 260.949 21.6598C260.851 25.1168 260.773 28.5543 260.715 31.9723C260.656 35.3707 260.578 38.8082 260.48 42.2848L245.539 42.9293C245.929 36.0348 246.301 29.1793 246.652 22.3629C247.023 15.5465 247.316 8.69104 247.531 1.79651L261.359 1.09338L261.242 5.78088C261.789 5.11682 262.375 4.49182 263 3.90588C263.644 3.31995 264.328 2.8219 265.051 2.41174C265.773 1.98206 266.535 1.65002 267.336 1.41565C268.156 1.16174 269.015 1.03479 269.914 1.03479C271.574 1.03479 273.029 1.30823 274.279 1.8551C275.529 2.40198 276.603 3.14417 277.502 4.08167C278.4 5.01917 279.152 6.13245 279.758 7.42151C280.363 8.69104 280.851 10.0485 281.222 11.4938C281.594 12.9391 281.877 14.4528 282.072 16.0348C282.267 17.5973 282.394 19.1403 282.453 20.6637C282.531 22.1871 282.57 23.6617 282.57 25.0875C282.57 26.5133 282.57 27.8121 282.57 28.984Z" fill="black"/>
<path d="M318.049 20.1364C318.049 21.8356 317.931 23.5348 317.697 25.234C314.357 25.4489 311.037 25.8004 307.736 26.2887C304.435 26.7574 301.135 27.2262 297.834 27.6949C298.342 29.1012 299.133 30.2242 300.207 31.0641C301.301 31.9039 302.599 32.3239 304.103 32.3239C304.885 32.3239 305.734 32.1774 306.652 31.8844C307.59 31.5914 308.517 31.2301 309.435 30.8004C310.353 30.3512 311.232 29.8727 312.072 29.3649C312.912 28.8571 313.635 28.3981 314.24 27.9879L312.834 41.2887C312.072 41.8746 311.242 42.3727 310.344 42.7828C309.465 43.193 308.547 43.525 307.59 43.7789C306.633 44.0328 305.666 44.2184 304.689 44.3356C303.713 44.4528 302.756 44.5114 301.818 44.5114C299.885 44.5114 298.117 44.2477 296.515 43.7203C294.914 43.193 293.459 42.4606 292.15 41.5231C290.861 40.566 289.728 39.443 288.752 38.1539C287.775 36.8649 286.965 35.4586 286.32 33.9352C285.676 32.4117 285.187 30.8004 284.855 29.1012C284.523 27.402 284.357 25.6832 284.357 23.9449C284.357 22.1285 284.523 20.3121 284.855 18.4957C285.187 16.6793 285.685 14.9313 286.349 13.2516C287.033 11.5719 287.883 10.0192 288.898 8.59338C289.933 7.14807 291.135 5.88831 292.502 4.81409C293.869 3.73987 295.412 2.90002 297.131 2.29456C298.869 1.68909 300.783 1.38635 302.873 1.38635C304.611 1.38635 306.193 1.63049 307.619 2.11877C309.064 2.58752 310.344 3.25159 311.457 4.11096C312.59 4.95081 313.566 5.95667 314.386 7.12854C315.226 8.30042 315.91 9.58948 316.437 10.9957C316.984 12.3824 317.385 13.8571 317.638 15.4196C317.912 16.9625 318.049 18.5348 318.049 20.1364ZM306.33 18.6129C306.33 18.066 306.271 17.5094 306.154 16.943C306.037 16.3571 305.842 15.8297 305.568 15.361C305.314 14.8922 304.972 14.5114 304.543 14.2184C304.113 13.9059 303.576 13.7496 302.931 13.7496C302.15 13.7496 301.457 13.9645 300.851 14.3942C300.265 14.8043 299.758 15.3317 299.328 15.9762C298.898 16.6012 298.547 17.2848 298.273 18.027C298 18.7692 297.795 19.4528 297.658 20.0778L306.33 19.2574V18.6129Z" fill="black"/>
<path d="M382.912 23.9449C382.912 26.7379 382.824 29.5211 382.648 32.2946C382.472 35.068 382.267 37.8512 382.033 40.6442L366.974 41.3473C367.424 37.9489 367.824 34.5504 368.176 31.152C368.547 27.734 368.732 24.316 368.732 20.8981C368.732 20.6832 368.722 20.3121 368.703 19.7848C368.683 19.2379 368.644 18.6227 368.586 17.9391C368.547 17.2555 368.478 16.5524 368.381 15.8297C368.302 15.0875 368.185 14.4137 368.029 13.8082C367.892 13.1832 367.717 12.6754 367.502 12.2848C367.287 11.8942 367.033 11.6989 366.74 11.6989C366.056 11.6989 365.519 11.9625 365.129 12.4899C364.738 12.9977 364.445 13.6129 364.25 14.3356C364.074 15.0582 363.967 15.8004 363.927 16.5621C363.888 17.3043 363.869 17.9098 363.869 18.3785C363.869 19.1989 363.888 20.0192 363.927 20.8395C363.967 21.6598 363.986 22.4996 363.986 23.359C363.986 26.3864 363.908 29.4039 363.752 32.4117C363.615 35.4196 363.439 38.4371 363.224 41.4645L349.338 41.9918C349.787 38.5934 350.177 35.2047 350.51 31.8258C350.861 28.4274 351.037 25.0192 351.037 21.6012C351.037 21.3864 351.027 20.9957 351.008 20.4293C350.988 19.8629 350.949 19.2281 350.89 18.525C350.851 17.8219 350.783 17.0895 350.685 16.3278C350.588 15.566 350.461 14.8727 350.304 14.2477C350.168 13.6031 349.992 13.0758 349.777 12.6656C349.562 12.2555 349.299 12.0504 348.986 12.0504C348.498 12.0504 348.088 12.2457 347.756 12.6364C347.424 13.0074 347.15 13.4957 346.935 14.1012C346.74 14.7067 346.584 15.3805 346.467 16.1227C346.369 16.8453 346.291 17.5582 346.232 18.2614C346.193 18.9645 346.164 19.6188 346.144 20.2242C346.144 20.8102 346.135 21.2496 346.115 21.5426L345.47 42.9293H330.705C331.017 39.6285 331.33 36.318 331.642 32.9977C331.974 29.6774 332.258 26.3668 332.492 23.066C332.746 19.7457 332.951 16.4254 333.107 13.1051C333.263 9.78479 333.342 6.46448 333.342 3.14417L347.287 2.55823L347.228 5.95667C347.658 5.40979 348.146 4.86292 348.693 4.31604C349.24 3.74963 349.816 3.25159 350.422 2.8219C351.047 2.37268 351.701 2.01135 352.385 1.73792C353.088 1.46448 353.81 1.32776 354.552 1.32776C355.51 1.32776 356.369 1.40588 357.131 1.56213C357.892 1.69885 358.576 1.94299 359.181 2.29456C359.806 2.64612 360.353 3.1344 360.822 3.7594C361.291 4.36487 361.701 5.13635 362.052 6.07385C362.677 5.39026 363.302 4.75549 363.927 4.16956C364.572 3.58362 365.246 3.08557 365.949 2.67542C366.652 2.24573 367.414 1.9137 368.234 1.67932C369.054 1.44495 369.963 1.32776 370.959 1.32776C372.853 1.32776 374.465 1.69885 375.793 2.44104C377.121 3.1637 378.224 4.13049 379.103 5.34143C380.002 6.55237 380.695 7.93909 381.183 9.50159C381.691 11.0641 382.072 12.6852 382.326 14.3649C382.58 16.0446 382.736 17.7145 382.795 19.3746C382.873 21.0348 382.912 22.5582 382.912 23.9449Z" fill="black"/>
<path d="M421.818 21.3668C421.818 23.1442 421.613 24.8629 421.203 26.5231C420.793 28.1637 420.197 29.7067 419.416 31.152C418.654 32.5973 417.717 33.9254 416.603 35.1364C415.51 36.3278 414.269 37.3531 412.883 38.2125C411.515 39.0719 410.021 39.7457 408.4 40.234C406.779 40.7028 405.06 40.9371 403.244 40.9371C401.486 40.9371 399.806 40.7125 398.205 40.2633C396.623 39.8141 395.138 39.1891 393.752 38.3883C392.365 37.568 391.105 36.5914 389.972 35.4586C388.859 34.3063 387.902 33.0367 387.101 31.65C386.32 30.2438 385.705 28.7399 385.256 27.1383C384.826 25.5367 384.611 23.8668 384.611 22.1285C384.611 20.4293 384.816 18.7692 385.226 17.1481C385.636 15.5074 386.222 13.9645 386.984 12.5192C387.765 11.0739 388.703 9.74573 389.797 8.53479C390.89 7.32385 392.111 6.27893 393.459 5.40002C394.826 4.52112 396.301 3.83752 397.883 3.34924C399.465 2.86096 401.135 2.61682 402.892 2.61682C405.724 2.61682 408.302 3.05627 410.627 3.93518C412.97 4.81409 414.963 6.07385 416.603 7.71448C418.263 9.33557 419.543 11.3082 420.441 13.6324C421.359 15.9371 421.818 18.5153 421.818 21.3668ZM408.81 22.1285C408.81 21.2887 408.683 20.4781 408.429 19.6969C408.195 18.8961 407.844 18.193 407.375 17.5875C406.906 16.9625 406.32 16.4645 405.617 16.0934C404.933 15.7028 404.142 15.5074 403.244 15.5074C402.326 15.5074 401.506 15.6735 400.783 16.0055C400.06 16.3375 399.435 16.7965 398.908 17.3824C398.4 17.9489 398.01 18.6227 397.736 19.4039C397.463 20.1656 397.326 20.9762 397.326 21.8356C397.326 22.6559 397.443 23.4762 397.677 24.2965C397.912 25.1168 398.263 25.859 398.732 26.5231C399.201 27.1871 399.777 27.7242 400.461 28.1344C401.164 28.5446 401.974 28.7496 402.892 28.7496C403.81 28.7496 404.631 28.5739 405.353 28.2223C406.095 27.8512 406.72 27.3629 407.228 26.7574C407.736 26.1324 408.127 25.4196 408.4 24.6188C408.674 23.818 408.81 22.9879 408.81 22.1285Z" fill="black"/>
<path d="M458.205 15.566C458.205 17.0895 458.068 18.4762 457.795 19.7262C457.541 20.9567 457.131 22.0895 456.564 23.1246C455.998 24.1598 455.265 25.1168 454.367 25.9957C453.469 26.8746 452.385 27.7145 451.115 28.5153L458.088 40.9371L444.904 43.5153L440.392 31.0348L436.76 31.152L436.232 43.3395H423.635C423.732 38.8864 423.82 34.4528 423.898 30.0387C423.996 25.6246 424.103 21.191 424.22 16.7379C424.26 14.4918 424.299 12.2653 424.338 10.0582C424.377 7.8512 424.455 5.62463 424.572 3.37854C425.939 2.87073 427.287 2.45081 428.615 2.11877C429.943 1.78674 431.271 1.53284 432.599 1.35706C433.947 1.16174 435.304 1.03479 436.672 0.976196C438.058 0.898071 439.474 0.859009 440.92 0.859009C443.146 0.859009 445.295 1.17151 447.365 1.79651C449.455 2.40198 451.301 3.31995 452.902 4.55042C454.504 5.78088 455.783 7.31409 456.74 9.15002C457.717 10.986 458.205 13.1246 458.205 15.566ZM445.08 16.5035C445.08 15.6832 444.963 14.9313 444.728 14.2477C444.513 13.5641 444.181 12.9781 443.732 12.4899C443.302 11.9821 442.756 11.5914 442.092 11.318C441.447 11.025 440.685 10.8785 439.806 10.8785C439.416 10.8785 439.035 10.9078 438.664 10.9664C438.293 11.0055 437.931 11.0739 437.58 11.1715L437.111 22.0699H437.814C438.654 22.0699 439.504 21.9625 440.363 21.7477C441.242 21.5328 442.023 21.2008 442.707 20.7516C443.41 20.3024 443.976 19.7262 444.406 19.0231C444.855 18.3199 445.08 17.4801 445.08 16.5035Z" fill="black"/>
<path d="M492.658 20.1364C492.658 21.8356 492.541 23.5348 492.306 25.234C488.967 25.4489 485.646 25.8004 482.345 26.2887C479.045 26.7574 475.744 27.2262 472.443 27.6949C472.951 29.1012 473.742 30.2242 474.816 31.0641C475.91 31.9039 477.209 32.3239 478.713 32.3239C479.494 32.3239 480.344 32.1774 481.261 31.8844C482.199 31.5914 483.127 31.2301 484.045 30.8004C484.963 30.3512 485.842 29.8727 486.681 29.3649C487.521 28.8571 488.244 28.3981 488.849 27.9879L487.443 41.2887C486.681 41.8746 485.851 42.3727 484.953 42.7828C484.074 43.193 483.156 43.525 482.199 43.7789C481.242 44.0328 480.275 44.2184 479.299 44.3356C478.322 44.4528 477.365 44.5114 476.427 44.5114C474.494 44.5114 472.726 44.2477 471.125 43.7203C469.523 43.193 468.068 42.4606 466.76 41.5231C465.47 40.566 464.338 39.443 463.361 38.1539C462.385 36.8649 461.574 35.4586 460.929 33.9352C460.285 32.4117 459.797 30.8004 459.465 29.1012C459.133 27.402 458.967 25.6832 458.967 23.9449C458.967 22.1285 459.133 20.3121 459.465 18.4957C459.797 16.6793 460.295 14.9313 460.959 13.2516C461.642 11.5719 462.492 10.0192 463.508 8.59338C464.543 7.14807 465.744 5.88831 467.111 4.81409C468.478 3.73987 470.021 2.90002 471.74 2.29456C473.478 1.68909 475.392 1.38635 477.482 1.38635C479.22 1.38635 480.802 1.63049 482.228 2.11877C483.674 2.58752 484.953 3.25159 486.066 4.11096C487.199 4.95081 488.176 5.95667 488.996 7.12854C489.836 8.30042 490.519 9.58948 491.047 10.9957C491.594 12.3824 491.994 13.8571 492.248 15.4196C492.521 16.9625 492.658 18.5348 492.658 20.1364ZM480.939 18.6129C480.939 18.066 480.881 17.5094 480.763 16.943C480.646 16.3571 480.451 15.8297 480.177 15.361C479.924 14.8922 479.582 14.5114 479.152 14.2184C478.722 13.9059 478.185 13.7496 477.541 13.7496C476.76 13.7496 476.066 13.9645 475.461 14.3942C474.875 14.8043 474.367 15.3317 473.937 15.9762C473.508 16.6012 473.156 17.2848 472.883 18.027C472.609 18.7692 472.404 19.4528 472.267 20.0778L480.939 19.2574V18.6129Z" fill="black"/>
</svg>
