<svg width="551" height="155" viewBox="0 0 551 155" fill="none" xmlns="http://www.w3.org/2000/svg">
<path d="M78.75 128.73L49.6875 132.48L46.1719 119.238H32.8125L29.8828 132.48L0 129.551L23.3203 51.5039L55.8984 49.8633L78.75 128.73ZM44.0625 101.309L39.6094 80.918L35.2734 101.309H44.0625Z" fill="black"/>
<path d="M110.566 51.2695L106.465 131.074L81.7383 132.363L79.3945 52.9102L110.566 51.2695Z" fill="black"/>
<path d="M116.426 101.426L116.191 83.8477L154.043 82.0898L154.277 102.129L116.426 101.426Z" fill="black"/>
<path d="M230.742 51.6211L209.297 130.84L180.234 132.48L153.867 55.957L181.641 53.3789L192.891 97.9102L203.789 49.8633L230.742 51.6211Z" fill="black"/>
<path d="M294.902 86.4258C294.902 89.8242 294.668 93.2227 294.199 96.6211C287.52 97.0508 280.879 97.7539 274.277 98.7305C267.676 99.668 261.074 100.605 254.473 101.543C255.488 104.355 257.07 106.602 259.219 108.281C261.406 109.961 264.004 110.801 267.012 110.801C268.574 110.801 270.273 110.508 272.109 109.922C273.984 109.336 275.84 108.613 277.676 107.754C279.512 106.855 281.27 105.898 282.949 104.883C284.629 103.867 286.074 102.949 287.285 102.129L284.473 128.73C282.949 129.902 281.289 130.898 279.492 131.719C277.734 132.539 275.898 133.203 273.984 133.711C272.07 134.219 270.137 134.59 268.184 134.824C266.23 135.059 264.316 135.176 262.441 135.176C258.574 135.176 255.039 134.648 251.836 133.594C248.633 132.539 245.723 131.074 243.105 129.199C240.527 127.285 238.262 125.039 236.309 122.461C234.355 119.883 232.734 117.07 231.445 114.023C230.156 110.977 229.18 107.754 228.516 104.355C227.852 100.957 227.52 97.5195 227.52 94.043C227.52 90.4102 227.852 86.7773 228.516 83.1445C229.18 79.5117 230.176 76.0156 231.504 72.6562C232.871 69.2969 234.57 66.1914 236.602 63.3398C238.672 60.4492 241.074 57.9297 243.809 55.7812C246.543 53.6328 249.629 51.9531 253.066 50.7422C256.543 49.5312 260.371 48.9258 264.551 48.9258C268.027 48.9258 271.191 49.4141 274.043 50.3906C276.934 51.3281 279.492 52.6562 281.719 54.375C283.984 56.0547 285.938 58.0664 287.578 60.4102C289.258 62.7539 290.625 65.332 291.68 68.1445C292.773 70.918 293.574 73.8672 294.082 76.9922C294.629 80.0781 294.902 83.2227 294.902 86.4258ZM271.465 83.3789C271.465 82.2852 271.348 81.1719 271.113 80.0391C270.879 78.8672 270.488 77.8125 269.941 76.875C269.434 75.9375 268.75 75.1758 267.891 74.5898C267.031 73.9648 265.957 73.6523 264.668 73.6523C263.105 73.6523 261.719 74.082 260.508 74.9414C259.336 75.7617 258.32 76.8164 257.461 78.1055C256.602 79.3555 255.898 80.7227 255.352 82.207C254.805 83.6914 254.395 85.0586 254.121 86.3086L271.465 84.668V83.3789Z" fill="black"/>
<path d="M367.441 77.2852C367.441 80.332 367.168 83.1055 366.621 85.6055C366.113 88.0664 365.293 90.332 364.16 92.4023C363.027 94.4727 361.562 96.3867 359.766 98.1445C357.969 99.9023 355.801 101.582 353.262 103.184L367.207 128.027L340.84 133.184L331.816 108.223L324.551 108.457L323.496 132.832H298.301C298.496 123.926 298.672 115.059 298.828 106.23C299.023 97.4023 299.238 88.5352 299.473 79.6289C299.551 75.1367 299.629 70.6836 299.707 66.2695C299.785 61.8555 299.941 57.4023 300.176 52.9102C302.91 51.8945 305.605 51.0547 308.262 50.3906C310.918 49.7266 313.574 49.2188 316.23 48.8672C318.926 48.4766 321.641 48.2227 324.375 48.1055C327.148 47.9492 329.98 47.8711 332.871 47.8711C337.324 47.8711 341.621 48.4961 345.762 49.7461C349.941 50.957 353.633 52.793 356.836 55.2539C360.039 57.7148 362.598 60.7812 364.512 64.4531C366.465 68.125 367.441 72.4023 367.441 77.2852ZM341.191 79.1602C341.191 77.5195 340.957 76.0156 340.488 74.6484C340.059 73.2812 339.395 72.1094 338.496 71.1328C337.637 70.1172 336.543 69.3359 335.215 68.7891C333.926 68.2031 332.402 67.9102 330.645 67.9102C329.863 67.9102 329.102 67.9688 328.359 68.0859C327.617 68.1641 326.895 68.3008 326.191 68.4961L325.254 90.293H326.66C328.34 90.293 330.039 90.0781 331.758 89.6484C333.516 89.2188 335.078 88.5547 336.445 87.6562C337.852 86.7578 338.984 85.6055 339.844 84.1992C340.742 82.793 341.191 81.1133 341.191 79.1602Z" fill="black"/>
<path d="M431.602 103.77C431.602 109.121 430.664 113.75 428.789 117.656C426.953 121.523 424.414 124.727 421.172 127.266C417.969 129.766 414.199 131.621 409.863 132.832C405.566 134.004 400.938 134.59 395.977 134.59C394.062 134.59 391.953 134.336 389.648 133.828C387.383 133.32 385.078 132.695 382.734 131.953C380.391 131.172 378.125 130.352 375.938 129.492C373.789 128.594 371.875 127.754 370.195 126.973L372.773 104.004C376.094 105.996 379.766 107.52 383.789 108.574C387.852 109.59 391.836 110.098 395.742 110.098C396.484 110.098 397.383 110.078 398.438 110.039C399.492 109.961 400.488 109.785 401.426 109.512C402.402 109.199 403.223 108.75 403.887 108.164C404.551 107.578 404.883 106.738 404.883 105.645C404.883 104.902 404.648 104.277 404.18 103.77C403.711 103.223 403.105 102.793 402.363 102.48C401.621 102.129 400.781 101.875 399.844 101.719C398.906 101.523 397.988 101.387 397.09 101.309C396.191 101.23 395.352 101.191 394.57 101.191C393.789 101.191 393.164 101.191 392.695 101.191C389.336 101.191 386.27 100.664 383.496 99.6094C380.762 98.5547 378.398 97.0703 376.406 95.1562C374.453 93.2031 372.93 90.8594 371.836 88.125C370.742 85.3516 370.195 82.2852 370.195 78.9258C370.195 74.3164 371.113 70.1953 372.949 66.5625C374.824 62.8906 377.305 59.7852 380.391 57.2461C383.516 54.668 387.09 52.6953 391.113 51.3281C395.137 49.9609 399.297 49.2773 403.594 49.2773C405.508 49.2773 407.48 49.3555 409.512 49.5117C411.543 49.6289 413.555 49.8633 415.547 50.2148C417.578 50.5664 419.551 51.0156 421.465 51.5625C423.379 52.1094 425.195 52.793 426.914 53.6133L424.688 77.4023C422.031 76.5039 419.238 75.7617 416.309 75.1758C413.418 74.5508 410.586 74.2383 407.812 74.2383C407.305 74.2383 406.641 74.2578 405.82 74.2969C405.039 74.2969 404.199 74.3555 403.301 74.4727C402.441 74.5508 401.562 74.6875 400.664 74.8828C399.766 75.0781 398.965 75.3516 398.262 75.7031C397.559 76.0156 396.992 76.4453 396.562 76.9922C396.133 77.5391 395.938 78.1836 395.977 78.9258C396.016 79.7852 396.328 80.4492 396.914 80.918C397.539 81.3867 398.32 81.7383 399.258 81.9727C400.234 82.168 401.289 82.2656 402.422 82.2656C403.594 82.2656 404.746 82.2461 405.879 82.207C407.012 82.1289 408.066 82.0703 409.043 82.0312C410.02 81.9531 410.82 81.9336 411.445 81.9727C414.57 82.168 417.383 82.832 419.883 83.9648C422.383 85.0977 424.492 86.6016 426.211 88.4766C427.969 90.3516 429.297 92.5977 430.195 95.2148C431.133 97.793 431.602 100.645 431.602 103.77Z" fill="black"/>
<path d="M500.801 86.4258C500.801 89.8242 500.566 93.2227 500.098 96.6211C493.418 97.0508 486.777 97.7539 480.176 98.7305C473.574 99.668 466.973 100.605 460.371 101.543C461.387 104.355 462.969 106.602 465.117 108.281C467.305 109.961 469.902 110.801 472.91 110.801C474.473 110.801 476.172 110.508 478.008 109.922C479.883 109.336 481.738 108.613 483.574 107.754C485.41 106.855 487.168 105.898 488.848 104.883C490.527 103.867 491.973 102.949 493.184 102.129L490.371 128.73C488.848 129.902 487.188 130.898 485.391 131.719C483.633 132.539 481.797 133.203 479.883 133.711C477.969 134.219 476.035 134.59 474.082 134.824C472.129 135.059 470.215 135.176 468.34 135.176C464.473 135.176 460.938 134.648 457.734 133.594C454.531 132.539 451.621 131.074 449.004 129.199C446.426 127.285 444.16 125.039 442.207 122.461C440.254 119.883 438.633 117.07 437.344 114.023C436.055 110.977 435.078 107.754 434.414 104.355C433.75 100.957 433.418 97.5195 433.418 94.043C433.418 90.4102 433.75 86.7773 434.414 83.1445C435.078 79.5117 436.074 76.0156 437.402 72.6562C438.77 69.2969 440.469 66.1914 442.5 63.3398C444.57 60.4492 446.973 57.9297 449.707 55.7812C452.441 53.6328 455.527 51.9531 458.965 50.7422C462.441 49.5312 466.27 48.9258 470.449 48.9258C473.926 48.9258 477.09 49.4141 479.941 50.3906C482.832 51.3281 485.391 52.6562 487.617 54.375C489.883 56.0547 491.836 58.0664 493.477 60.4102C495.156 62.7539 496.523 65.332 497.578 68.1445C498.672 70.918 499.473 73.8672 499.98 76.9922C500.527 80.0781 500.801 83.2227 500.801 86.4258ZM477.363 83.3789C477.363 82.2852 477.246 81.1719 477.012 80.0391C476.777 78.8672 476.387 77.8125 475.84 76.875C475.332 75.9375 474.648 75.1758 473.789 74.5898C472.93 73.9648 471.855 73.6523 470.566 73.6523C469.004 73.6523 467.617 74.082 466.406 74.9414C465.234 75.7617 464.219 76.8164 463.359 78.1055C462.5 79.3555 461.797 80.7227 461.25 82.207C460.703 83.6914 460.293 85.0586 460.02 86.3086L477.363 84.668V83.3789Z" fill="black"/>
<path d="M544.592 51.7636L524.504 115.66L501.619 110.379L514.285 44.7695L544.592 51.7636ZM521.097 134.939C520.679 136.753 519.938 138.363 518.875 139.768C517.813 141.173 516.55 142.315 515.088 143.194C513.658 144.123 512.083 144.737 510.364 145.035C508.635 145.374 506.884 145.339 505.111 144.93C503.297 144.511 501.687 143.771 500.282 142.708C498.867 141.687 497.7 140.44 496.78 138.969C495.892 137.548 495.278 135.973 494.939 134.244C494.641 132.525 494.701 130.758 495.12 128.944C495.529 127.171 496.249 125.556 497.28 124.1C498.352 122.654 499.599 121.487 501.02 120.599C502.491 119.679 504.091 119.049 505.82 118.71C507.549 118.371 509.32 118.41 511.135 118.829C512.908 119.238 514.497 119.974 515.902 121.037C517.307 122.099 518.449 123.362 519.327 124.824C520.257 126.254 520.886 127.855 521.216 129.624C521.546 131.394 521.506 133.166 521.097 134.939Z" fill="black"/>
<path fill-rule="evenodd" clip-rule="evenodd" d="M550.982 48.1071L527.887 121.572L522.237 120.269C522.719 120.872 523.163 121.507 523.568 122.174C524.847 124.164 525.694 126.36 526.132 128.708C526.589 131.162 526.531 133.628 525.969 136.063C525.401 138.523 524.374 140.786 522.863 142.784C521.446 144.658 519.734 146.222 517.738 147.434C515.762 148.704 513.593 149.542 511.272 149.952C508.848 150.42 506.404 150.36 503.987 149.802C501.545 149.238 499.298 148.222 497.311 146.73C495.394 145.338 493.795 143.626 492.54 141.619C491.313 139.654 490.483 137.503 490.033 135.207L490.022 135.153L490.013 135.098C489.593 132.679 489.69 130.239 490.248 127.82C490.8 125.425 491.785 123.209 493.199 121.211L493.231 121.167L493.263 121.123C494.68 119.212 496.38 117.603 498.37 116.359C499.039 115.941 499.728 115.567 500.436 115.237L495.796 114.167L510.358 38.7319L550.982 48.1071ZM500.282 142.708C501.687 143.771 503.297 144.511 505.111 144.93C506.884 145.339 508.635 145.374 510.364 145.035C512.083 144.737 513.658 144.123 515.088 143.194C516.55 142.315 517.813 141.173 518.875 139.768C519.938 138.363 520.679 136.753 521.097 134.939C521.506 133.166 521.546 131.394 521.216 129.624C520.886 127.855 520.257 126.254 519.327 124.824C518.449 123.362 517.307 122.099 515.902 121.037C514.497 119.974 512.908 119.238 511.135 118.829C509.32 118.41 507.549 118.371 505.82 118.71C504.092 119.049 502.491 119.679 501.02 120.599C499.599 121.487 498.352 122.654 497.28 124.101C496.249 125.556 495.529 127.171 495.12 128.944C494.701 130.758 494.641 132.525 494.939 134.244C495.278 135.973 495.892 137.548 496.78 138.969C497.7 140.44 498.867 141.687 500.282 142.708ZM544.592 51.7637L514.285 44.7696L501.619 110.379L524.504 115.66L544.592 51.7637Z" fill="white"/>
<path d="M150.938 24.2578L142.219 25.3828L141.164 21.4102H137.156L136.277 25.3828L127.312 24.5039L134.309 1.08984L144.082 0.597656L150.938 24.2578ZM140.531 16.0312L139.195 9.91406L137.895 16.0312H140.531Z" fill="black"/>
<path d="M178.254 11.8125C178.254 13.4531 178.043 14.9238 177.621 16.2246C177.199 17.5254 176.607 18.6797 175.846 19.6875C175.096 20.6836 174.199 21.5332 173.156 22.2363C172.113 22.9395 170.971 23.5195 169.729 23.9766C168.486 24.4219 167.162 24.75 165.756 24.9609C164.361 25.1719 162.926 25.2773 161.449 25.2773C160.898 25.2773 160.359 25.2656 159.832 25.2422C159.305 25.207 158.766 25.1602 158.215 25.1016L158.707 2.21484C159.996 1.80469 161.32 1.51758 162.68 1.35352C164.051 1.17773 165.41 1.08984 166.758 1.08984C168.434 1.08984 169.975 1.32422 171.381 1.79297C172.787 2.26172 174 2.95312 175.02 3.86719C176.039 4.76953 176.83 5.88867 177.393 7.22461C177.967 8.54883 178.254 10.0781 178.254 11.8125ZM166.301 18.5625C167.004 18.457 167.643 18.2461 168.217 17.9297C168.803 17.6016 169.307 17.2031 169.729 16.7344C170.15 16.2539 170.473 15.7148 170.695 15.1172C170.93 14.5078 171.047 13.8633 171.047 13.1836C171.047 12.5156 170.977 11.8945 170.836 11.3203C170.695 10.7344 170.467 10.2305 170.15 9.80859C169.834 9.375 169.418 9.03516 168.902 8.78906C168.387 8.53125 167.754 8.39062 167.004 8.36719L166.301 18.5625Z" fill="black"/>
<path d="M198.979 11.5664C198.979 12.5859 198.908 13.6055 198.768 14.625C196.764 14.7539 194.771 14.9648 192.791 15.2578C190.811 15.5391 188.83 15.8203 186.85 16.1016C187.154 16.9453 187.629 17.6191 188.273 18.123C188.93 18.627 189.709 18.8789 190.611 18.8789C191.08 18.8789 191.59 18.791 192.141 18.6152C192.703 18.4395 193.26 18.2227 193.811 17.9648C194.361 17.6953 194.889 17.4082 195.393 17.1035C195.896 16.7988 196.33 16.5234 196.693 16.2773L195.85 24.2578C195.393 24.6094 194.895 24.9082 194.355 25.1543C193.828 25.4004 193.277 25.5996 192.703 25.752C192.129 25.9043 191.549 26.0156 190.963 26.0859C190.377 26.1562 189.803 26.1914 189.24 26.1914C188.08 26.1914 187.02 26.0332 186.059 25.7168C185.098 25.4004 184.225 24.9609 183.439 24.3984C182.666 23.8242 181.986 23.1504 181.4 22.377C180.814 21.6035 180.328 20.7598 179.941 19.8457C179.555 18.9316 179.262 17.9648 179.062 16.9453C178.863 15.9258 178.764 14.8945 178.764 13.8516C178.764 12.7617 178.863 11.6719 179.062 10.582C179.262 9.49219 179.561 8.44336 179.959 7.43555C180.369 6.42773 180.879 5.49609 181.488 4.64062C182.109 3.77344 182.83 3.01758 183.65 2.37305C184.471 1.72852 185.396 1.22461 186.428 0.861328C187.471 0.498047 188.619 0.316406 189.873 0.316406C190.916 0.316406 191.865 0.462891 192.721 0.755859C193.588 1.03711 194.355 1.43555 195.023 1.95117C195.703 2.45508 196.289 3.05859 196.781 3.76172C197.285 4.46484 197.695 5.23828 198.012 6.08203C198.34 6.91406 198.58 7.79883 198.732 8.73633C198.896 9.66211 198.979 10.6055 198.979 11.5664ZM191.947 10.6523C191.947 10.3242 191.912 9.99023 191.842 9.65039C191.771 9.29883 191.654 8.98242 191.49 8.70117C191.338 8.41992 191.133 8.19141 190.875 8.01562C190.617 7.82812 190.295 7.73438 189.908 7.73438C189.439 7.73438 189.023 7.86328 188.66 8.12109C188.309 8.36719 188.004 8.68359 187.746 9.07031C187.488 9.44531 187.277 9.85547 187.113 10.3008C186.949 10.7461 186.826 11.1562 186.744 11.5312L191.947 11.0391V10.6523Z" fill="black"/>
<path d="M218.156 16.7695C218.156 18.375 217.875 19.7637 217.312 20.9355C216.762 22.0957 216 23.0566 215.027 23.8184C214.066 24.5684 212.936 25.125 211.635 25.4883C210.346 25.8398 208.957 26.0156 207.469 26.0156C206.895 26.0156 206.262 25.9395 205.57 25.7871C204.891 25.6348 204.199 25.4473 203.496 25.2246C202.793 24.9902 202.113 24.7441 201.457 24.4863C200.812 24.2168 200.238 23.9648 199.734 23.7305L200.508 16.8398C201.504 17.4375 202.605 17.8945 203.812 18.2109C205.031 18.5156 206.227 18.668 207.398 18.668C207.621 18.668 207.891 18.6621 208.207 18.6504C208.523 18.627 208.822 18.5742 209.104 18.4922C209.396 18.3984 209.643 18.2637 209.842 18.0879C210.041 17.9121 210.141 17.6602 210.141 17.332C210.141 17.1094 210.07 16.9219 209.93 16.7695C209.789 16.6055 209.607 16.4766 209.385 16.3828C209.162 16.2773 208.91 16.2012 208.629 16.1543C208.348 16.0957 208.072 16.0547 207.803 16.0312C207.533 16.0078 207.281 15.9961 207.047 15.9961C206.812 15.9961 206.625 15.9961 206.484 15.9961C205.477 15.9961 204.557 15.8379 203.725 15.5215C202.904 15.2051 202.195 14.7598 201.598 14.1855C201.012 13.5996 200.555 12.8965 200.227 12.0762C199.898 11.2441 199.734 10.3242 199.734 9.31641C199.734 7.93359 200.01 6.69727 200.561 5.60742C201.123 4.50586 201.867 3.57422 202.793 2.8125C203.73 2.03906 204.803 1.44727 206.01 1.03711C207.217 0.626953 208.465 0.421875 209.754 0.421875C210.328 0.421875 210.92 0.445312 211.529 0.492188C212.139 0.527344 212.742 0.597656 213.34 0.703125C213.949 0.808594 214.541 0.943359 215.115 1.10742C215.689 1.27148 216.234 1.47656 216.75 1.72266L216.082 8.85938C215.285 8.58984 214.447 8.36719 213.568 8.19141C212.701 8.00391 211.852 7.91016 211.02 7.91016C210.867 7.91016 210.668 7.91602 210.422 7.92773C210.188 7.92773 209.936 7.94531 209.666 7.98047C209.408 8.00391 209.145 8.04492 208.875 8.10352C208.605 8.16211 208.365 8.24414 208.154 8.34961C207.943 8.44336 207.773 8.57227 207.645 8.73633C207.516 8.90039 207.457 9.09375 207.469 9.31641C207.48 9.57422 207.574 9.77344 207.75 9.91406C207.938 10.0547 208.172 10.1602 208.453 10.2305C208.746 10.2891 209.062 10.3184 209.402 10.3184C209.754 10.3184 210.1 10.3125 210.439 10.3008C210.779 10.2773 211.096 10.2598 211.389 10.248C211.682 10.2246 211.922 10.2188 212.109 10.2305C213.047 10.2891 213.891 10.4883 214.641 10.8281C215.391 11.168 216.023 11.6191 216.539 12.1816C217.066 12.7441 217.465 13.418 217.734 14.2031C218.016 14.9766 218.156 15.832 218.156 16.7695Z" fill="black"/>
<path d="M228.475 1.01953L227.244 24.9609L219.826 25.3477L219.123 1.51172L228.475 1.01953Z" fill="black"/>
<path d="M251.168 21.832C250.617 22.5234 249.938 23.127 249.129 23.6426C248.32 24.1582 247.453 24.5859 246.527 24.9258C245.602 25.2656 244.652 25.5234 243.68 25.6992C242.707 25.8633 241.781 25.9453 240.902 25.9453C239.203 25.9453 237.639 25.6582 236.209 25.084C234.779 24.5098 233.543 23.7129 232.5 22.6934C231.469 21.6621 230.66 20.4375 230.074 19.0195C229.488 17.6016 229.195 16.0547 229.195 14.3789C229.195 13.1016 229.342 11.8594 229.635 10.6523C229.928 9.44531 230.344 8.31445 230.883 7.25977C231.434 6.20508 232.102 5.23828 232.887 4.35938C233.672 3.48047 234.562 2.72461 235.559 2.0918C236.555 1.45898 237.645 0.972656 238.828 0.632812C240.023 0.28125 241.289 0.105469 242.625 0.105469C243.129 0.105469 243.668 0.128906 244.242 0.175781C244.816 0.210938 245.385 0.28125 245.947 0.386719C246.521 0.480469 247.078 0.615234 247.617 0.791016C248.156 0.966797 248.648 1.18359 249.094 1.44141L248.602 8.15625C247.945 7.91016 247.266 7.74609 246.562 7.66406C245.871 7.57031 245.191 7.52344 244.523 7.52344C243.586 7.52344 242.707 7.65234 241.887 7.91016C241.078 8.15625 240.369 8.52539 239.76 9.01758C239.162 9.50977 238.688 10.125 238.336 10.8633C237.984 11.6016 237.809 12.457 237.809 13.4297C237.809 14.0391 237.891 14.6309 238.055 15.2051C238.219 15.7676 238.465 16.2715 238.793 16.7168C239.133 17.1504 239.549 17.502 240.041 17.7715C240.545 18.041 241.125 18.1758 241.781 18.1758C242.227 18.1758 242.684 18.1172 243.152 18C243.633 17.8828 244.043 17.6836 244.383 17.4023L244.453 16.0312L240.234 15.9609L240.445 10.6875C242.191 10.6289 243.938 10.582 245.684 10.5469C247.43 10.5 249.188 10.4414 250.957 10.3711L251.168 21.832Z" fill="black"/>
<path d="M274.336 16.875C274.336 18.1992 274.318 19.5117 274.283 20.8125C274.26 22.1016 274.219 23.4023 274.16 24.7148L264.035 24.5391C264.387 22.4648 264.691 20.3965 264.949 18.334C265.207 16.2598 265.336 14.168 265.336 12.0586C265.336 11.9062 265.33 11.6602 265.318 11.3203C265.307 10.9805 265.283 10.5996 265.248 10.1777C265.213 9.74414 265.16 9.30469 265.09 8.85938C265.031 8.40234 264.943 7.98633 264.826 7.61133C264.721 7.23633 264.586 6.93164 264.422 6.69727C264.27 6.45117 264.082 6.32812 263.859 6.32812C263.461 6.32812 263.121 6.44531 262.84 6.67969C262.57 6.91406 262.342 7.21875 262.154 7.59375C261.979 7.95703 261.838 8.36719 261.732 8.82422C261.627 9.28125 261.545 9.73828 261.486 10.1953C261.439 10.6523 261.404 11.0859 261.381 11.4961C261.369 11.8945 261.363 12.2227 261.363 12.4805C261.305 14.5547 261.258 16.6172 261.223 18.668C261.188 20.707 261.141 22.7695 261.082 24.8555L252.117 25.2422C252.352 21.1055 252.574 16.9922 252.785 12.9023C253.008 8.8125 253.184 4.69922 253.312 0.5625L261.609 0.140625L261.539 2.95312C261.867 2.55469 262.219 2.17969 262.594 1.82812C262.98 1.47656 263.391 1.17773 263.824 0.931641C264.258 0.673828 264.715 0.474609 265.195 0.333984C265.688 0.181641 266.203 0.105469 266.742 0.105469C267.738 0.105469 268.611 0.269531 269.361 0.597656C270.111 0.925781 270.756 1.37109 271.295 1.93359C271.834 2.49609 272.285 3.16406 272.648 3.9375C273.012 4.69922 273.305 5.51367 273.527 6.38086C273.75 7.24805 273.92 8.15625 274.037 9.10547C274.154 10.043 274.23 10.9688 274.266 11.8828C274.312 12.7969 274.336 13.6816 274.336 14.5371C274.336 15.3926 274.336 16.1719 274.336 16.875Z" fill="black"/>
<path d="M295.623 11.5664C295.623 12.5859 295.553 13.6055 295.412 14.625C293.408 14.7539 291.416 14.9648 289.436 15.2578C287.455 15.5391 285.475 15.8203 283.494 16.1016C283.799 16.9453 284.273 17.6191 284.918 18.123C285.574 18.627 286.354 18.8789 287.256 18.8789C287.725 18.8789 288.234 18.791 288.785 18.6152C289.348 18.4395 289.904 18.2227 290.455 17.9648C291.006 17.6953 291.533 17.4082 292.037 17.1035C292.541 16.7988 292.975 16.5234 293.338 16.2773L292.494 24.2578C292.037 24.6094 291.539 24.9082 291 25.1543C290.473 25.4004 289.922 25.5996 289.348 25.752C288.773 25.9043 288.193 26.0156 287.607 26.0859C287.021 26.1562 286.447 26.1914 285.885 26.1914C284.725 26.1914 283.664 26.0332 282.703 25.7168C281.742 25.4004 280.869 24.9609 280.084 24.3984C279.311 23.8242 278.631 23.1504 278.045 22.377C277.459 21.6035 276.973 20.7598 276.586 19.8457C276.199 18.9316 275.906 17.9648 275.707 16.9453C275.508 15.9258 275.408 14.8945 275.408 13.8516C275.408 12.7617 275.508 11.6719 275.707 10.582C275.906 9.49219 276.205 8.44336 276.604 7.43555C277.014 6.42773 277.523 5.49609 278.133 4.64062C278.754 3.77344 279.475 3.01758 280.295 2.37305C281.115 1.72852 282.041 1.22461 283.072 0.861328C284.115 0.498047 285.264 0.316406 286.518 0.316406C287.561 0.316406 288.51 0.462891 289.365 0.755859C290.232 1.03711 291 1.43555 291.668 1.95117C292.348 2.45508 292.934 3.05859 293.426 3.76172C293.93 4.46484 294.34 5.23828 294.656 6.08203C294.984 6.91406 295.225 7.79883 295.377 8.73633C295.541 9.66211 295.623 10.6055 295.623 11.5664ZM288.592 10.6523C288.592 10.3242 288.557 9.99023 288.486 9.65039C288.416 9.29883 288.299 8.98242 288.135 8.70117C287.982 8.41992 287.777 8.19141 287.52 8.01562C287.262 7.82812 286.939 7.73438 286.553 7.73438C286.084 7.73438 285.668 7.86328 285.305 8.12109C284.953 8.36719 284.648 8.68359 284.391 9.07031C284.133 9.44531 283.922 9.85547 283.758 10.3008C283.594 10.7461 283.471 11.1562 283.389 11.5312L288.592 11.0391V10.6523Z" fill="black"/>
<path d="M317.385 8.82422C317.385 9.73828 317.303 10.5703 317.139 11.3203C316.986 12.0586 316.74 12.7383 316.4 13.3594C316.061 13.9805 315.621 14.5547 315.082 15.082C314.543 15.6094 313.893 16.1133 313.131 16.5938L317.314 24.0469L309.404 25.5938L306.697 18.1055L304.518 18.1758L304.201 25.4883H296.643C296.701 22.8164 296.754 20.1562 296.801 17.5078C296.859 14.8594 296.924 12.1992 296.994 9.52734C297.018 8.17969 297.041 6.84375 297.064 5.51953C297.088 4.19531 297.135 2.85938 297.205 1.51172C298.025 1.20703 298.834 0.955078 299.631 0.755859C300.428 0.556641 301.225 0.404297 302.021 0.298828C302.83 0.181641 303.645 0.105469 304.465 0.0703125C305.297 0.0234375 306.146 0 307.014 0C308.35 0 309.639 0.1875 310.881 0.5625C312.135 0.925781 313.242 1.47656 314.203 2.21484C315.164 2.95312 315.932 3.87305 316.506 4.97461C317.092 6.07617 317.385 7.35938 317.385 8.82422ZM309.51 9.38672C309.51 8.89453 309.439 8.44336 309.299 8.0332C309.17 7.62305 308.971 7.27148 308.701 6.97852C308.443 6.67383 308.115 6.43945 307.717 6.27539C307.33 6.09961 306.873 6.01172 306.346 6.01172C306.111 6.01172 305.883 6.0293 305.66 6.06445C305.438 6.08789 305.221 6.12891 305.01 6.1875L304.729 12.7266H305.15C305.654 12.7266 306.164 12.6621 306.68 12.5332C307.207 12.4043 307.676 12.2051 308.086 11.9355C308.508 11.666 308.848 11.3203 309.105 10.8984C309.375 10.4766 309.51 9.97266 309.51 9.38672Z" fill="black"/>
<path d="M334.822 1.01953L333.592 24.9609L326.174 25.3477L325.471 1.51172L334.822 1.01953Z" fill="black"/>
<path d="M358.078 16.875C358.078 18.1992 358.061 19.5117 358.025 20.8125C358.002 22.1016 357.961 23.4023 357.902 24.7148L347.777 24.5391C348.129 22.4648 348.434 20.3965 348.691 18.334C348.949 16.2598 349.078 14.168 349.078 12.0586C349.078 11.9062 349.072 11.6602 349.061 11.3203C349.049 10.9805 349.025 10.5996 348.99 10.1777C348.955 9.74414 348.902 9.30469 348.832 8.85938C348.773 8.40234 348.686 7.98633 348.568 7.61133C348.463 7.23633 348.328 6.93164 348.164 6.69727C348.012 6.45117 347.824 6.32812 347.602 6.32812C347.203 6.32812 346.863 6.44531 346.582 6.67969C346.312 6.91406 346.084 7.21875 345.896 7.59375C345.721 7.95703 345.58 8.36719 345.475 8.82422C345.369 9.28125 345.287 9.73828 345.229 10.1953C345.182 10.6523 345.146 11.0859 345.123 11.4961C345.111 11.8945 345.105 12.2227 345.105 12.4805C345.047 14.5547 345 16.6172 344.965 18.668C344.93 20.707 344.883 22.7695 344.824 24.8555L335.859 25.2422C336.094 21.1055 336.316 16.9922 336.527 12.9023C336.75 8.8125 336.926 4.69922 337.055 0.5625L345.352 0.140625L345.281 2.95312C345.609 2.55469 345.961 2.17969 346.336 1.82812C346.723 1.47656 347.133 1.17773 347.566 0.931641C348 0.673828 348.457 0.474609 348.938 0.333984C349.43 0.181641 349.945 0.105469 350.484 0.105469C351.48 0.105469 352.354 0.269531 353.104 0.597656C353.854 0.925781 354.498 1.37109 355.037 1.93359C355.576 2.49609 356.027 3.16406 356.391 3.9375C356.754 4.69922 357.047 5.51367 357.27 6.38086C357.492 7.24805 357.662 8.15625 357.779 9.10547C357.896 10.043 357.973 10.9688 358.008 11.8828C358.055 12.7969 358.078 13.6816 358.078 14.5371C358.078 15.3926 358.078 16.1719 358.078 16.875Z" fill="black"/>
<path d="M385.395 0.984375L385.219 8.4375L379.98 8.64844L379.348 24.9609L371.93 25.3477L371.262 9.03516L366.023 9.31641L366.234 1.01953L385.395 0.984375Z" fill="black"/>
<path d="M407.262 25.0664L398.473 25.4883L398.402 18.0703H394.359L394.113 25.7695H386.238L386.906 1.05469L395.273 1.44141L394.746 14.0625H398.648L398.684 0.84375L406.699 1.05469L407.262 25.0664Z" fill="black"/>
<path d="M428.549 11.5664C428.549 12.5859 428.479 13.6055 428.338 14.625C426.334 14.7539 424.342 14.9648 422.361 15.2578C420.381 15.5391 418.4 15.8203 416.42 16.1016C416.725 16.9453 417.199 17.6191 417.844 18.123C418.5 18.627 419.279 18.8789 420.182 18.8789C420.65 18.8789 421.16 18.791 421.711 18.6152C422.273 18.4395 422.83 18.2227 423.381 17.9648C423.932 17.6953 424.459 17.4082 424.963 17.1035C425.467 16.7988 425.9 16.5234 426.264 16.2773L425.42 24.2578C424.963 24.6094 424.465 24.9082 423.926 25.1543C423.398 25.4004 422.848 25.5996 422.273 25.752C421.699 25.9043 421.119 26.0156 420.533 26.0859C419.947 26.1562 419.373 26.1914 418.811 26.1914C417.65 26.1914 416.59 26.0332 415.629 25.7168C414.668 25.4004 413.795 24.9609 413.01 24.3984C412.236 23.8242 411.557 23.1504 410.971 22.377C410.385 21.6035 409.898 20.7598 409.512 19.8457C409.125 18.9316 408.832 17.9648 408.633 16.9453C408.434 15.9258 408.334 14.8945 408.334 13.8516C408.334 12.7617 408.434 11.6719 408.633 10.582C408.832 9.49219 409.131 8.44336 409.529 7.43555C409.939 6.42773 410.449 5.49609 411.059 4.64062C411.68 3.77344 412.4 3.01758 413.221 2.37305C414.041 1.72852 414.967 1.22461 415.998 0.861328C417.041 0.498047 418.189 0.316406 419.443 0.316406C420.486 0.316406 421.436 0.462891 422.291 0.755859C423.158 1.03711 423.926 1.43555 424.594 1.95117C425.273 2.45508 425.859 3.05859 426.352 3.76172C426.855 4.46484 427.266 5.23828 427.582 6.08203C427.91 6.91406 428.15 7.79883 428.303 8.73633C428.467 9.66211 428.549 10.6055 428.549 11.5664ZM421.518 10.6523C421.518 10.3242 421.482 9.99023 421.412 9.65039C421.342 9.29883 421.225 8.98242 421.061 8.70117C420.908 8.41992 420.703 8.19141 420.445 8.01562C420.188 7.82812 419.865 7.73438 419.479 7.73438C419.01 7.73438 418.594 7.86328 418.23 8.12109C417.879 8.36719 417.574 8.68359 417.316 9.07031C417.059 9.44531 416.848 9.85547 416.684 10.3008C416.52 10.7461 416.396 11.1562 416.314 11.5312L421.518 11.0391V10.6523Z" fill="black"/>
</svg>
