<svg width="410" height="405" viewBox="0 0 410 405" fill="none" xmlns="http://www.w3.org/2000/svg">
<g clip-path="url(#clip0_361_14338)">
<path d="M359.542 383.272C327.925 394.454 308.855 373.091 304.574 360.986C301.625 352.649 302.397 346.237 303.259 342.809C304.783 347.118 307.253 350.529 310.028 352.012C310.769 352.45 311.597 352.724 312.456 352.815C313.315 352.905 314.185 352.809 315.005 352.534C318.525 351.289 319.977 347.877 318.61 344.011C317.758 341.602 315.694 340.498 313.512 339.327C310.871 337.913 308.112 336.453 306.695 332.446C304.977 327.589 306.311 321.942 307.4 318.701C310.34 327.011 317.198 328.514 320.717 328.052L322.116 327.876L321.465 326.657C321.438 326.579 317.503 318.904 321.112 308.741C321.566 307.464 322.062 306.158 322.557 304.852C325.16 297.981 327.845 290.885 325.794 285.087C324.612 281.81 322.773 278.809 320.387 276.265C336.897 278.906 340.403 289.48 340.99 295.745C341.144 297.358 342.107 305.534 346.24 308.153C346.967 308.608 347.793 308.885 348.65 308.96C349.507 309.035 350.371 308.906 351.171 308.583C354.171 307.522 355.933 304.862 356.26 300.891C356.347 299.728 356.327 298.561 356.202 297.403C365.626 302.586 366.367 310.072 365.249 315.585C364.221 320.631 365.023 325.153 367.294 327.111C367.944 327.665 368.738 328.024 369.585 328.149C370.433 328.273 371.3 328.158 372.087 327.815C372.847 327.562 373.543 327.147 374.127 326.6C374.711 326.053 375.168 325.387 375.468 324.648C376.791 321.491 375.67 316.958 374.627 314.008C378.68 316.814 384.056 321.436 386.931 329.567C389.21 336.009 390.326 346.704 386.642 357.4C383.738 365.857 376.665 377.216 359.542 383.272Z" fill="#F24E1E"/>
<path d="M380.056 315.023C380.594 316.192 381.06 317.392 381.451 318.618C379.186 316.208 376.625 314.089 373.829 312.311C372.972 307.823 370.092 302.819 362.428 299.224C362.58 299.93 362.687 300.645 362.747 301.365C360.568 298.933 357.89 296.994 354.891 295.678C354.891 295.678 357.008 304.699 351.487 307.391C350.381 304.792 349.694 302.034 349.451 299.218C349.094 295.401 347.193 284.324 332.975 280.003C329.457 277.514 324.462 275.577 317.514 274.918C320.852 277.712 323.404 281.318 324.922 285.388C327.23 291.914 323.031 300.553 320.227 308.387C316.422 319.112 320.645 327.085 320.645 327.085C320.077 327.142 319.506 327.145 318.939 327.094C317.316 325.377 315.903 322.869 315.126 319.165C314.274 321.049 313.612 323.011 313.151 325.024C310.849 323.41 308.653 320.57 307.616 315.573C307.616 315.573 303.086 324.989 305.827 332.739C308.568 340.489 316.053 339.653 317.712 344.343C318.924 347.771 317.652 350.598 314.717 351.636L314.671 351.652C312.837 349.102 311.546 346.204 310.878 343.136C309.885 345.375 309.295 347.767 309.133 350.204C306.594 348.087 304.425 344.165 303.358 339.577C303.358 339.577 298.956 348.056 303.648 361.321C306.509 369.412 315.021 380.318 328.418 385.046C337.991 390.814 351.132 393.494 367.366 387.753C399.041 376.55 400.265 346.653 395.364 332.796C391.775 322.584 384.251 317.671 380.056 315.023ZM385.702 357.095C382.857 365.349 375.956 376.43 359.196 382.358C328.281 393.292 309.67 372.462 305.498 360.666C303.771 356.036 303.136 351.068 303.642 346.145C305.204 349.217 307.299 351.65 309.578 352.888C310.441 353.396 311.405 353.712 312.404 353.812C313.404 353.913 314.414 353.797 315.366 353.472C319.373 352.055 321.098 348.031 319.562 343.689C318.585 340.925 316.258 339.675 314.006 338.471C311.411 337.084 308.965 335.767 307.674 332.115C306.439 328.623 306.885 324.66 307.64 321.588C308.858 323.992 310.767 325.981 313.125 327.304C315.483 328.628 318.186 329.227 320.893 329.026L323.682 328.649L322.407 326.2C321.673 324.634 321.164 322.972 320.894 321.263C320.237 317.158 320.647 312.949 322.085 309.035C322.535 307.766 323.037 306.437 323.528 305.161C326.192 298.131 328.939 290.86 326.772 284.734C325.871 282.225 324.579 279.874 322.942 277.767C336.487 280.95 339.49 290.202 340.016 295.843C340.237 298.222 341.301 306.189 345.707 308.979C346.56 309.513 347.529 309.839 348.535 309.93C349.541 310.021 350.556 309.876 351.496 309.505C353.867 308.666 356.784 306.504 357.238 300.95C357.291 300.363 357.309 299.773 357.293 299.184C364.711 304.026 365.277 310.523 364.286 315.382C363.173 320.85 364.073 325.605 366.65 327.832C367.434 328.488 368.387 328.916 369.402 329.068C370.417 329.221 371.457 329.092 372.406 328.695C373.295 328.394 374.109 327.905 374.792 327.263C375.475 326.621 376.012 325.841 376.365 324.976C377.416 322.473 377.104 319.278 376.434 316.536C380.816 319.981 384.128 324.586 385.993 329.826C388.259 336.15 389.332 346.642 385.721 357.088L385.702 357.095Z" fill="black"/>
</g>
<g clip-path="url(#clip1_361_14338)">
<path d="M125.951 360.731L124.434 366.392L122.593 365.898L121.831 365.694C120.831 365.363 119.776 365.227 118.724 365.294L117.774 365.458L117.668 365.59C117.041 366.675 116.55 367.834 116.207 369.041C115.955 369.824 115.739 370.631 115.572 371.409L115.081 373.244L110.098 391.838L5.64721 363.851L13.5236 334.456C16.9403 322.529 24.3724 312.149 34.5624 305.073C34.5659 304.975 34.5643 304.877 34.5575 304.779L34.5452 304.538L33.8586 303.978C32.9383 303.348 31.9032 302.905 30.8121 302.673L30.2331 302.518C30.2331 302.518 32.2346 297.078 32.4884 297.146C33.4891 297.479 34.5454 297.613 35.5976 297.54L36.561 297.38L36.6449 297.249C37.6186 295.697 44.3659 292.923 44.3659 292.923C43.7609 295.181 43.1856 297.328 43.2404 299.023L43.2527 299.264L43.9341 299.844C52.1723 296.252 61.1763 294.772 70.1305 295.539C79.0848 296.305 87.7066 299.292 95.2149 304.231C102.723 309.17 108.881 315.903 113.131 323.822C117.38 331.741 119.587 340.595 119.552 349.582L122.662 350.415L120.42 358.782L120.479 358.798C121.392 359.436 122.425 359.882 123.517 360.107L124.096 360.262L125.951 360.731Z" fill="black"/>
<path d="M112.659 355.942L102.184 353.136C105.084 342.313 103.566 330.782 97.964 321.078C92.3617 311.375 83.1343 304.294 72.3116 301.394C61.4889 298.494 49.9575 300.013 40.2541 305.615C30.5507 311.217 23.4703 320.445 20.5703 331.267L10.0563 328.45C13.702 314.844 22.6034 303.243 34.8022 296.2C47.001 289.157 61.498 287.249 75.1041 290.895C88.7101 294.54 100.311 303.442 107.354 315.641C114.397 327.839 116.305 342.336 112.659 355.942V355.942Z" fill="#F24E1E"/>
<path d="M102.184 353.136L91.6704 350.318C93.8246 342.279 92.6969 333.713 88.5354 326.505C84.3739 319.297 77.5195 314.038 69.4801 311.884C61.4408 309.73 52.8749 310.857 45.667 315.019C38.4591 319.18 33.1996 326.035 31.0454 334.074L20.5509 331.262C23.4508 320.439 30.5313 311.212 40.2347 305.61C49.938 300.007 61.4694 298.489 72.2921 301.389C83.1148 304.289 92.3423 311.37 97.9445 321.073C103.547 330.776 105.065 342.308 102.165 353.13L102.184 353.136Z" fill="#FFC700"/>
<path d="M91.6703 350.318L81.1692 347.505C81.9222 344.885 82.1458 342.142 81.8268 339.435C81.5078 336.728 80.6526 334.112 79.3112 331.739C77.9699 329.366 76.1692 327.285 74.0143 325.616C71.8595 323.947 69.3937 322.724 66.7609 322.018C64.1282 321.313 61.3813 321.139 58.6806 321.507C55.9799 321.875 53.3797 322.778 51.0316 324.162C48.6836 325.546 46.6349 327.384 45.0052 329.569C43.3755 331.753 42.1974 334.241 41.5398 336.886L31.0453 334.074C33.1994 326.035 38.459 319.18 45.6669 315.019C52.8748 310.857 61.4406 309.73 69.48 311.884C77.5194 314.038 84.3737 319.297 88.5352 326.505C92.6967 333.713 93.8244 342.279 91.6703 350.318V350.318Z" fill="#A259FF"/>
<path d="M112.679 355.948L10.0498 328.448L2.66154 356.022L105.291 383.521L112.679 355.948Z" fill="#C7B9FF"/>
<path d="M29.95 304.876L30.1958 303.959C30.8751 301.554 31.4161 299.404 31.3506 297.567L31.3253 296.932L30.3124 296.054C29.296 295.333 28.142 294.83 26.9225 294.574L26.3304 294.415L25.4065 294.168L26.4211 290.381L27.3385 290.627L28.1193 290.836C29.2497 291.207 30.4431 291.346 31.6285 291.247L32.9851 291.024L33.312 290.533C34.3575 288.627 35.1139 286.576 35.5564 284.447L35.8022 283.53L39.6018 284.548L39.356 285.465C38.7092 287.879 38.1357 290.02 38.2012 291.857L38.2329 292.493L39.2459 293.371C40.262 294.093 41.4161 294.596 42.6358 294.851L43.2279 295.01L44.1518 295.258L43.1302 299.07L42.2128 298.824L41.432 298.615C40.3017 298.244 39.1082 298.105 37.9228 298.205L36.5402 298.42L36.2198 298.913C35.1826 300.546 34.5287 302.804 33.9689 304.998L33.7231 305.915L29.95 304.876Z" fill="white"/>
<path d="M12.1288 352.882L16.6807 335.894L23.8375 337.812L24.19 344.929C24.2231 346.653 23.794 348.749 22.8579 352.242L24.3608 352.645C25.3057 349.119 26.0275 347.102 26.9291 345.663L30.8252 339.684L37.6567 341.515L33.1049 358.503L28.6611 357.312L29.9808 352.387C30.9564 349.147 32.5007 346.106 34.5418 343.407L33.1362 342.458L24.4616 356.173L20.7465 355.177L20.1238 338.972L18.4328 339.063C18.8439 342.42 18.6544 345.824 17.8732 349.115L16.5535 354.04L12.1288 352.882Z" fill="black"/>
<path d="M48.2513 362.561L48.0616 358.689L41.705 356.986L39.566 360.206L34.8815 358.951L45.5752 343.609L51.6455 345.235L53.2355 363.869L48.2513 362.561ZM43.7745 353.816L47.8799 354.916L47.7496 352.176C47.8009 350.414 48.1111 348.669 48.67 346.997L47.141 346.587C46.7792 348.326 46.1566 350 45.2945 351.553L43.7745 353.816Z" fill="black"/>
<path d="M55.8892 355.605C57.2473 350.537 61.9455 347.577 67.5473 349.078C72.5506 350.418 74.3201 353.626 74.4838 356.424L69.5956 356.788C69.4979 355.019 68.7815 353.32 66.5043 352.71C63.9018 352.013 61.5791 353.524 60.6691 356.921C59.7259 360.441 61.1311 362.77 63.61 363.434C65.9392 364.058 67.498 363.081 68.0939 361.846L63.3965 360.587L64.3012 357.211L73.4815 359.67L71.0757 368.649L66.9963 367.556C67.448 366.367 68.1799 365.305 69.13 364.46L67.4058 363.998C66.6509 365.071 64.7247 367.393 61.1723 366.442C57.1705 365.397 54.3342 361.409 55.8892 355.605Z" fill="black"/>
<path d="M74.0551 369.475L78.6069 352.487L83.2003 353.718L78.6485 370.706L74.0551 369.475Z" fill="black"/>
<path d="M83.5137 362.958C84.8927 357.812 89.5773 354.981 95.023 356.44C99.2716 357.578 101.732 360.629 101.842 364.097L97.0666 364.428C97.0072 362.229 96.1165 360.687 93.9825 360.115C91.38 359.418 89.319 360.915 88.4212 364.266C87.5233 367.617 88.601 369.893 91.1775 370.583C93.266 371.143 94.8612 370.239 96.0765 368.409L99.999 371.155C97.9627 374.096 94.4761 375.449 90.2081 374.305C84.6982 372.773 82.1016 368.228 83.5137 362.958Z" fill="black"/>
<path d="M83.898 315.538L84.1438 314.62C84.5806 313.334 84.8256 311.989 84.871 310.631L84.8639 310.371L84.3325 309.908C83.7203 309.484 83.0291 309.187 82.2999 309.036L81.9486 308.942L81.0247 308.694L81.8441 305.636L82.7575 305.923L83.252 306.055C83.9256 306.28 84.6377 306.367 85.3456 306.309L86.073 306.198L86.2003 306.009C86.8439 304.824 87.3096 303.55 87.5824 302.23L87.8282 301.312L90.9187 302.14L90.6729 303.058C90.2402 304.346 89.9952 305.689 89.9457 307.047L89.9593 307.309L90.4906 307.772C91.1029 308.196 91.7941 308.492 92.5232 308.644L92.8941 308.744L93.818 308.991L92.9881 312.088L92.0708 311.842L91.5763 311.71C90.9008 311.486 90.1878 311.396 89.4779 311.447L88.7488 311.566L88.6215 311.755C87.9693 312.948 87.4983 314.232 87.2241 315.564L86.9783 316.482L83.898 315.538Z" fill="white"/>
<path d="M106.474 363.88L106.72 362.963C107.368 360.543 107.94 358.409 107.87 356.563L107.845 355.928L106.83 355.057C105.752 354.257 104.52 353.69 103.211 353.39L102.879 353.301L101.955 353.053L102.94 349.377L103.858 349.623L104.639 349.832C105.768 350.205 106.961 350.347 108.146 350.249L109.504 350.02L109.83 349.536C110.878 347.631 111.635 345.579 112.074 343.45L112.32 342.532L116.119 343.55L115.874 344.468C115.227 346.882 114.653 349.022 114.719 350.86L114.744 351.494L115.757 352.372C116.773 353.093 117.927 353.597 119.147 353.852L119.739 354.011L120.663 354.259L119.643 358.065L118.726 357.819L117.945 357.61C116.815 357.236 115.621 357.096 114.436 357.199L113.079 357.422L112.764 357.895C111.727 359.528 111.073 361.786 110.521 363.975L110.274 364.898L106.474 363.88Z" fill="white"/>
<path d="M119.958 353.114L119.379 352.959C118.287 352.732 117.251 352.288 116.333 351.655L115.653 351.068L115.649 350.823C115.579 349.131 116.137 346.972 116.766 344.728L117.256 342.9L115.395 342.401C115.431 333.417 113.226 324.565 108.979 316.648C104.731 308.731 98.5769 301.998 91.0719 297.06C83.5669 292.121 74.9486 289.131 65.9972 288.363C57.0459 287.594 48.0441 289.07 39.8069 292.657L39.1133 291.836C39.0454 290.138 39.6077 287.987 40.2387 285.737L40.7268 283.915L35.1119 282.41L34.6221 284.239C34.1908 286.268 33.4735 288.227 32.4917 290.055L32.403 290.178L31.4378 290.345C30.388 290.415 29.3346 290.282 28.3351 289.953L27.5934 289.754L25.7626 289.222L24.2477 294.875L26.1059 295.332L26.685 295.487C27.775 295.716 28.8081 296.161 29.7232 296.796L30.4076 297.391L30.4216 297.625C30.3972 297.716 30.4266 297.814 30.4182 297.924C20.2318 304.997 12.8028 315.373 9.38944 327.295H9.38944L1.51653 356.677L105.954 384.661L110.944 366.04L111.435 364.206C111.641 363.438 111.857 362.631 112.07 361.837C112.415 360.631 112.908 359.473 113.538 358.388L113.639 358.248L114.585 358.097C115.64 358.019 116.7 358.152 117.703 358.486L118.464 358.69L120.312 359.185L121.829 353.525L119.958 353.114ZM30.9272 295.347C29.8151 294.529 28.5451 293.952 27.1978 293.651L26.5862 293.487L27.1093 291.535L27.903 291.748C29.1554 292.165 30.4819 292.314 31.7958 292.184L33.5178 291.899L34.0676 291.07C35.1813 289.093 35.9885 286.958 36.4616 284.738L38.4135 285.261C37.7045 287.777 37.146 289.991 37.2274 291.952L37.277 292.99L37.9145 293.552L38.5894 294.13C38.9113 294.395 39.2614 294.625 39.6334 294.814C40.4985 295.248 41.4098 295.584 42.3501 295.814L42.9616 295.978L42.4386 297.93L41.6566 297.699C40.401 297.283 39.0718 297.136 37.7556 297.268L35.9911 297.555L35.433 298.389C34.335 300.373 33.5412 302.511 33.0781 304.731L31.1262 304.208C31.661 302.487 32.0428 300.723 32.2671 298.935C32.3188 298.476 32.3332 298.013 32.31 297.552L32.2364 296.681L32.287 296.493L30.9272 295.347ZM30.1358 300.435C29.9224 301.466 29.626 302.572 29.3032 303.699L28.8116 305.533L34.4394 307.041L34.9311 305.206C35.4698 303.196 36.0764 300.932 37.0662 299.398L37.1206 299.273L38.0775 299.111C39.1316 299.046 40.1885 299.182 41.1915 299.513L41.9527 299.717L43.7853 300.243L45.302 294.583L43.442 294.133L42.8695 293.98C42.5962 293.906 42.3359 293.837 42.0887 293.77C49.9776 290.625 58.5152 289.454 66.9597 290.358C75.4042 291.263 83.5001 294.216 90.5437 298.961C97.5874 303.706 103.366 310.099 107.377 317.585C111.388 325.071 113.51 333.423 113.559 341.916L111.652 341.405L111.159 343.246C110.731 345.272 110.017 347.227 109.039 349.052L108.948 349.181L107.983 349.348C106.931 349.415 105.876 349.279 104.876 348.948L104.062 348.73C105.037 342.352 104.571 335.838 102.698 329.664C100.825 323.491 97.5924 317.815 93.2383 313.055L93.6222 313.157L94.9401 308.239L93.0819 307.783L92.7436 307.692C92.1406 307.564 91.566 307.328 91.0479 306.994L90.8516 306.815C90.9362 305.612 91.168 304.424 91.5418 303.277L92.0317 301.448L87.0999 300.127L86.6083 301.962C86.3638 303.121 85.9715 304.244 85.4411 305.303L85.1347 305.353C84.5809 305.376 84.0276 305.299 83.5014 305.125C77.8374 301.743 71.4739 299.704 64.8994 299.165C58.3248 298.625 51.7141 299.6 45.5746 302.013C39.4351 304.426 33.9302 308.213 29.4824 313.085C25.0346 317.957 21.7622 323.783 19.9165 330.116L11.2242 327.787C14.358 316.842 21.003 307.232 30.1358 300.435V300.435ZM66.9238 321.45C61.582 320.025 55.8967 320.716 51.0515 323.378C46.2062 326.041 42.5744 330.469 40.9121 335.742L32.2263 333.414C34.5229 325.858 39.6665 319.49 46.5708 315.656C53.475 311.821 61.5993 310.82 69.2278 312.864C76.8563 314.908 83.3916 319.837 87.4536 326.61C91.5156 333.383 92.7862 341.47 90.997 349.162L82.3177 346.836C83.5037 341.44 82.5652 335.794 79.6972 331.071C76.8293 326.348 72.2522 322.912 66.9169 321.476L66.9238 321.45ZM80.4834 346.317L42.7278 336.2C44.2513 331.399 47.5672 327.369 51.9859 324.95C56.4045 322.531 61.5856 321.909 66.4514 323.213C71.3171 324.517 75.4929 327.646 78.1101 331.95C80.7273 336.255 81.5843 341.402 80.5029 346.322L80.4834 346.317ZM69.7341 310.962C61.61 308.79 52.9596 309.869 45.6181 313.97C38.2766 318.071 32.8218 324.872 30.4111 332.928L21.7513 330.607C24.7905 320.256 31.7546 311.503 41.1578 306.215C50.5609 300.926 61.6584 299.522 72.0822 302.302C75.1276 303.115 78.0687 304.278 80.847 305.767L79.8689 309.416L81.6994 309.872L82.0572 309.968C82.6569 310.093 83.2273 310.331 83.7382 310.669L83.9362 310.841C83.8552 312.045 83.6233 313.234 83.246 314.38L82.7544 316.215L87.6731 317.533L88.1665 315.691C88.4167 314.533 88.811 313.412 89.3402 312.352L89.6401 312.3L89.861 312.282C94.7136 316.903 98.372 322.633 100.522 328.98C102.672 335.327 103.249 342.101 102.203 348.72L101.331 351.973L92.7953 349.685C94.7396 341.502 93.4179 332.882 89.1109 325.657C84.8039 318.432 77.8506 313.17 69.7271 310.988L69.7341 310.962ZM88.4783 302.4L89.7405 302.738C89.2737 304.116 89.0149 305.555 88.9726 307.009L89.0087 307.681L89.8431 308.393C90.562 308.917 91.383 309.285 92.2529 309.471L92.6303 309.572L92.2886 310.848L91.7876 310.713C91.4076 310.61 91.0222 310.528 90.6333 310.467C90.1913 310.384 89.7386 310.376 89.2939 310.443L88.1699 310.63L88.142 310.734L87.8586 311.167C87.1409 312.432 86.6276 313.803 86.3378 315.229L85.0821 314.893C85.5498 313.517 85.806 312.079 85.8417 310.626L85.8169 309.964L84.9712 309.243C84.2591 308.715 83.4425 308.347 82.5762 308.161L82.1858 308.057L82.5205 306.808L83.0215 306.942C83.8235 307.208 84.6725 307.303 85.5134 307.219L86.4964 307.064L86.6504 307.036L86.9877 306.505C87.6902 305.23 88.1907 303.854 88.4713 302.426L88.4783 302.4ZM104.637 382.342L3.82339 355.329L10.7183 329.597L103.985 354.587C104.804 354.851 105.572 355.254 106.252 355.781L106.937 356.376L106.957 356.611C107.02 358.302 106.456 360.459 105.834 362.705L105.342 364.539L109.168 365.564L104.637 382.342ZM118.98 356.897L118.186 356.684C116.926 356.273 115.595 356.128 114.277 356.257L113.546 356.382L112.523 356.554L111.98 357.385C111.251 358.616 110.682 359.936 110.287 361.311C110.047 362.076 109.825 362.903 109.631 363.757L107.679 363.234C108.354 360.716 108.945 358.511 108.863 356.578L108.828 355.927L108.817 355.527L107.442 354.335C106.554 353.656 105.559 353.13 104.497 352.779C104.153 352.687 103.818 352.555 103.454 352.458L103.103 352.364L103.587 350.555L104.381 350.768C105.636 351.182 106.964 351.332 108.28 351.206L110.078 350.899L110.625 350.056C111.68 348.407 112.351 346.216 113.019 343.724L114.97 344.247C114.296 346.765 113.703 348.977 113.793 350.905L113.841 351.949L114.451 352.483L115.147 353.087C116.269 353.91 117.55 354.491 118.909 354.793L119.52 354.957L118.98 356.897Z" fill="black"/>
<path d="M80.496 346.348L42.7209 336.226C44.2444 331.425 47.5603 327.395 51.9789 324.976C56.3976 322.557 61.5787 321.935 66.4445 323.239C71.3102 324.543 75.486 327.672 78.1032 331.976C80.7204 336.281 81.5774 341.428 80.496 346.348V346.348Z" fill="#F5F5F5"/>
</g>
<defs>
<clipPath id="clip0_361_14338">
<rect width="96" height="123" fill="white" transform="translate(278.028 288.884) rotate(-19.478)"/>
</clipPath>
<clipPath id="clip1_361_14338">
<rect width="121.243" height="89.3832" fill="white" transform="translate(23.134 276) rotate(15)"/>
</clipPath>
</defs>
</svg>
