<svg width="325" height="314" viewBox="0 0 325 314" fill="none" xmlns="http://www.w3.org/2000/svg">
<rect x="0.796265" y="0.23941" width="76.991" height="73.6881" rx="12" fill="#CFA120"/>
<rect x="165.368" y="0.23941" width="76.991" height="73.6881" rx="12" fill="#CFA120"/>
<rect x="0.796265" y="80.1839" width="76.991" height="73.6881" rx="12" fill="#CFA120"/>
<rect x="165.368" y="80.1839" width="76.991" height="73.6881" rx="12" fill="#CFA120"/>
<rect x="0.796265" y="159.907" width="76.991" height="73.6881" rx="12" fill="#CFA120"/>
<rect x="165.368" y="159.907" width="76.991" height="73.6881" rx="12" fill="#CFA120"/>
<rect x="0.796265" y="240.154" width="76.991" height="73.6881" rx="12" fill="#CFA120"/>
<rect x="165.368" y="240.154" width="76.991" height="73.6881" rx="12" fill="#CFA120"/>
<rect x="83.0824" y="0.23941" width="76.991" height="73.6881" rx="12" fill="#CFA120"/>
<rect x="247.654" y="0.23941" width="76.991" height="73.6881" rx="12" fill="#CFA120"/>
<rect x="83.0824" y="80.1839" width="76.991" height="73.6881" rx="12" fill="#CFA120"/>
<rect x="247.654" y="80.1839" width="76.991" height="73.6881" rx="12" fill="#CFA120"/>
<rect x="83.0824" y="159.907" width="76.991" height="73.6881" rx="12" fill="#CFA120"/>
<rect x="247.654" y="159.907" width="76.991" height="73.6881" rx="12" fill="#CFA120"/>
<rect x="83.0824" y="240.154" width="76.991" height="73.6881" rx="12" fill="#CFA120"/>
<rect x="247.654" y="240.154" width="76.991" height="73.6881" rx="12" fill="#CFA120"/>
</svg>
