<svg width="168" height="123" viewBox="0 0 168 123" fill="none" xmlns="http://www.w3.org/2000/svg">
<path d="M141.165 82.5832C140.987 85.2574 142.354 87.7534 144.612 89.1796C145.503 89.7145 146.038 91.8538 146.038 91.8538C146.038 91.8538 134.832 95.4656 129.458 91.8538C126.882 90.1229 127.047 87.2394 124.288 85.8198C120.945 84.0998 118.284 86.8245 114.661 85.8198C111.127 84.8397 110.236 80.7736 106.579 81.0381C103.311 81.2745 102.94 85.4479 99.685 85.8198C96.8233 86.1467 95.551 82.4794 92.6726 82.5832C90.0791 82.6767 89.019 86.0345 86.4328 85.8198C82.9061 85.527 81.6336 79.8616 79.3717 82.5832C77.926 84.3228 77.9417 84.6271 76.0197 85.8198C70.6053 89.1796 63.0569 83.6454 55.3525 80.0279C51.2668 78.1095 51.0786 75.3788 51.8511 73.6554C52.6237 71.9321 51.8009 71.9344 53.5837 71.1618C54.5346 70.7458 54.9365 68.1502 55.3525 69.6157C54.9365 67.1792 55.22 69.6822 55.7684 68.7402C53.3319 66.7791 57.2852 67.0428 57.2258 66.0326C57.0475 62.7641 57.1947 59.2878 55.7684 52.9291C53.9856 44.847 55.8873 38.0724 61.0574 34.3284C63.1374 32.8428 65.5144 32.0108 67.9509 32.0108C71.576 32.0108 74.9039 33.853 77.2215 36.9432C79.5392 33.9125 82.8077 32.1297 86.4328 32.1297C88.6316 32.1297 90.7709 32.7833 92.6726 34.0313C94.5148 32.8428 96.6543 32.1891 98.9719 32.1891H99.685C102.3 32.3079 104.677 33.3776 106.579 34.9821C109.609 32.8428 113.532 31.7137 118.048 31.7137C122.148 31.7137 126.308 32.7239 129.458 34.4473C133.202 36.5272 135.876 40.2117 137.005 44.9065C138.431 50.552 137.54 57.2079 134.866 61.4866C133.024 64.3985 130.646 66.4785 127.853 67.7265C126.962 68.1424 126.368 68.9744 126.368 69.9253V70.163C126.308 71.5298 127.437 72.6589 128.804 72.6589H133.618C135.757 72.6589 137.837 73.6097 139.263 75.1548C140.749 76.6999 141.462 78.8393 141.284 80.9787V81.0381C141.284 81.2164 141.225 81.7512 141.165 82.5832Z" fill="white"/>
<path d="M164.126 53.601C162.046 54.5518 161.927 58.5334 161.511 61.8614C161.63 62.0396 161.69 62.2773 161.63 62.5151C161.571 62.6933 160.739 66.6155 159.491 70.3C159.372 70.6566 159.015 70.8943 158.659 70.8943C158.54 70.8943 158.481 70.8943 158.362 70.8348C157.886 70.6566 157.649 70.1812 157.827 69.7057C159.015 66.1401 159.907 62.1585 159.907 62.1585C159.966 61.9208 160.085 61.7425 160.263 61.6237C160.739 54.6707 161.155 42.3099 158.718 41.1213C157.173 40.4082 156.163 41.2402 155.569 42.607C155.093 47.1234 153.667 61.0294 152.419 67.3881C152.36 67.8041 151.944 68.1012 151.528 68.1012C151.468 68.1012 151.409 68.1012 151.349 68.1012C150.874 67.9823 150.577 67.5069 150.636 67.0315C151.944 60.4945 153.489 45.3406 153.845 41.775C153.251 39.9328 152.181 38.8037 150.101 40.4676C148.259 42.0127 148.14 47.3017 146.952 53.0067C147.071 53.185 147.13 53.4227 147.13 53.6604C146.239 59.306 144.812 65.6053 144.812 65.6647C144.693 66.0807 144.337 66.3778 143.921 66.3778C143.861 66.3778 143.802 66.3778 143.743 66.3778C143.267 66.259 142.97 65.7836 143.089 65.3081C143.089 65.2487 144.515 59.0089 145.407 53.4227C145.466 53.1256 145.644 52.8879 145.882 52.769C146.179 48.6686 146.12 43.9738 144.515 42.7853C141.544 40.4676 140.177 43.2607 139.464 50.4514C138.632 59.722 134.234 72.0234 132.927 75.5296C132.63 77.9067 131.679 85.3945 131.085 88.5441C131.025 88.9601 130.609 89.2572 130.193 89.2572C130.134 89.2572 130.074 89.2572 130.015 89.2572C129.54 89.1978 129.183 88.7224 129.302 88.247C129.718 86.0482 130.312 81.5911 130.728 78.3227C128.589 80.878 125.201 85.9293 124.964 92.8823C124.607 103.223 130.312 107.798 132.57 120.159C132.57 120.159 146.357 127.112 156.876 114.573L155.331 104.471C154.856 101.321 155.39 98.1119 156.935 95.2594C160.382 88.8412 166.444 76.3021 166.979 66.7938C167.513 56.3346 166.919 52.2936 164.126 53.601Z" fill="#4BC17E"/>
<path d="M145.347 53.3039C144.456 58.9494 143.03 65.1299 143.03 65.1893C142.911 65.6647 143.208 66.1401 143.683 66.259C143.743 66.259 143.802 66.259 143.861 66.259C144.277 66.259 144.634 65.9618 144.753 65.5459C144.753 65.4864 146.179 59.2466 147.071 53.5416C147.13 53.3039 147.071 53.0662 146.892 52.8879C146.476 55.0867 145.882 57.2855 144.991 59.4249C144.991 59.4249 145.525 56.2752 145.763 52.6502C145.525 52.8285 145.347 53.0662 145.347 53.3039Z" fill="#030401"/>
<path d="M151.29 68.0418C151.349 68.0418 151.409 68.0418 151.468 68.0418C151.884 68.0418 152.241 67.7446 152.36 67.3286C153.608 60.9699 155.093 47.064 155.509 42.5476C154.558 44.5681 154.38 47.5989 154.38 47.5989C154.38 47.5989 154.499 44.0927 153.786 41.7156C153.429 45.2812 151.884 60.4351 150.577 66.9721C150.458 67.4475 150.755 67.9229 151.29 68.0418Z" fill="#030401"/>
<path d="M159.847 62.0991C159.847 62.1585 158.956 66.0807 157.768 69.6463C157.589 70.1217 157.886 70.5971 158.302 70.7754C158.421 70.8349 158.481 70.8349 158.599 70.8349C158.956 70.8349 159.313 70.5972 159.431 70.2406C160.679 66.5561 161.511 62.6339 161.571 62.4556C161.63 62.2179 161.571 61.9802 161.452 61.802C161.214 63.8225 160.798 65.6053 159.847 66.259C159.847 66.259 160.026 64.2979 160.204 61.5048C160.026 61.6831 159.907 61.8614 159.847 62.0991Z" fill="#030401"/>
<path d="M130.015 89.1383C130.074 89.1383 130.134 89.1383 130.193 89.1383C130.609 89.1383 130.966 88.8412 131.085 88.4252C131.62 85.2756 132.63 77.7878 132.927 75.4107C132.689 76.0049 132.57 76.3615 132.57 76.3615C132.57 76.3615 131.798 77.0152 130.788 78.2037C130.372 81.4128 129.777 85.8698 129.361 88.1281C129.183 88.6035 129.54 89.0789 130.015 89.1383Z" fill="#030401"/>
<path d="M85.7138 19.5072C85.6061 19.224 85.3812 18.9603 85.0784 18.9508C85.186 19.234 85.1178 19.5467 84.864 19.8302L84.1513 20.6122C84.6508 22.517 85.7594 29.5016 79.0806 35.319C76.4053 37.6948 73.6415 39.1816 71.0534 40.639C64.8812 44.082 59.5976 47.0749 57.5148 59.1126C54.6436 75.8012 40.1965 79.4841 39.8448 79.5429C39.3661 79.5628 38.9561 79.9929 38.976 80.4716C38.9958 80.9503 39.426 81.3604 39.9047 81.3405C39.9633 81.3307 40.0805 81.3111 40.1977 81.2915C43.0111 80.8207 56.4216 75.6242 59.254 59.4241C61.1713 48.1974 65.908 45.537 71.9142 42.182C74.6096 40.6464 77.3636 39.101 80.205 36.6372C88.8366 29.1675 85.7236 19.5658 85.7138 19.5072Z" fill="#FDFDFD"/>
<path d="M27.0143 30.2336C27.1117 29.7353 27.2188 29.2956 27.3162 28.7973C27.209 29.237 27.1117 29.7353 27.0143 30.2336Z" fill="#FFCA49"/>
<path d="M85.0098 18.902C84.8828 18.863 84.7069 18.8924 84.5311 18.9218C84.072 19.0589 83.7988 19.5867 83.9945 20.0359C84.0043 20.0946 84.0923 20.2606 84.1414 20.5536L84.8541 19.7716C85.0493 19.4979 85.1175 19.1852 85.0098 18.902Z" fill="#FF77E6"/>
<path d="M84.052 18.2187L80.5743 18.6801C78.5716 18.955 76.5693 19.5913 74.8016 20.5499L63.8925 26.2919C63.6681 26.7512 63.3069 27.1129 62.8772 27.4258C62.6136 27.6507 62.3402 27.817 61.9983 27.9344C61.715 28.0421 61.4318 28.1497 61.2169 28.3062C60.8263 28.4921 60.4942 28.6681 60.1523 28.7856C59.8691 28.8932 59.5956 29.0595 59.371 29.1574L58.5212 29.4803L57.6129 29.8131L56.6459 30.1556L56.5872 30.1654C56.5971 30.2241 56.9396 31.191 56.5396 32.0413C56.3152 32.5006 55.8954 32.8721 55.1629 33.1755C54.8796 33.2831 54.5279 33.342 54.1078 33.352C53.5705 33.3817 52.8476 33.3821 52.066 33.3924C52.154 33.5584 52.2519 33.7831 52.2325 34.0273C52.1741 34.3986 51.8617 34.6919 51.51 34.7508C51.3928 34.7704 51.3342 34.7802 51.2071 34.7412L48.6765 34.3814L48.0124 34.7335L32.0151 43.1948C30.4622 43.9969 29.8773 45.9024 30.738 47.4454C31.5401 48.9983 33.4456 49.5833 34.9887 48.7225L49.0523 41.3079L49.6372 39.4024C49.7542 39.0213 50.1839 38.7084 50.5552 38.7668C50.6138 38.7569 50.6822 38.8058 50.7408 38.796C50.8678 38.835 51.0047 38.9326 51.0731 38.9814C51.7363 37.1833 53.0641 35.756 54.4999 35.335C55.0176 35.1881 55.6136 35.1487 56.1217 35.3047C56.5712 35.4704 57.0111 35.9391 57.2853 36.8573L77.7068 26.0288C79.5331 25.0604 81.1345 23.8284 82.5013 22.2741L84.1218 20.4364C84.0728 20.1433 83.9848 19.9773 83.975 19.9187C83.8379 19.4596 84.0525 18.9417 84.5116 18.8046C84.6874 18.7752 84.8633 18.7457 84.9903 18.7847C84.9412 18.4916 84.5307 18.1988 84.052 18.2187Z" fill="#FF77E6"/>
<path d="M51.2107 40.1634L51.2595 40.095L51.2399 39.9778L51.2107 40.1634Z" fill="#FFCA49"/>
<path d="M63.7433 22.1593C61.6015 18.7218 58.3944 14.6792 56.2755 16.4196C58.5144 18.9974 62.1127 23.577 62.7988 26.9569C62.8282 27.1328 62.8674 27.3672 62.8969 27.543C63.3265 27.2301 63.6194 26.8196 63.9122 26.4091C64.5952 25.0897 64.6235 23.4581 63.7433 22.1593Z" fill="#FFCA49"/>
<path d="M58.2475 29.2851C55.1767 24.6172 46.3317 19.2886 46.2046 19.2497C45.9994 19.1032 45.8429 18.8884 45.8037 18.654C43.3312 17.5614 39.6573 16.8506 37.7841 20.7792C38.4193 20.9742 39.377 21.296 40.4616 21.6568C42.4453 22.3491 44.9371 23.1975 47.4584 24.2216C47.9079 24.3874 48.2988 24.563 48.6897 24.7386C53.8105 26.8944 56.2442 28.4755 57.3002 29.7449C57.31 29.8035 57.3784 29.8523 57.3784 29.8523L58.2867 29.5196C58.3941 29.4413 58.3257 29.3925 58.2475 29.2851Z" fill="#FFCA49"/>
<path d="M61.0701 27.7885C61.039 25.0823 56.9812 19.9168 54.4489 17.0266C52.7681 16.3438 49.4262 15.4569 48.5001 18.5643C51.2661 20.3308 57.3261 24.4986 59.7906 28.4244C59.8688 28.5318 59.9471 28.6392 60.0351 28.8053L60.0449 28.8639C60.377 28.6878 60.7676 28.5019 61.1095 28.3845C61.0312 28.2771 61.0018 28.1012 61.0408 27.9742C61.0896 27.9058 61.0799 27.8472 61.0701 27.7885Z" fill="#FFCA49"/>
<path d="M57.2365 36.9257C56.9721 36.0661 56.5224 35.5389 56.0728 35.3731C55.5061 35.2269 54.9687 35.2566 54.451 35.4034C53.0152 35.8245 51.746 37.2419 51.0243 39.0498C51.2393 39.2548 51.3666 39.6553 51.2398 39.9778L51.2496 40.0364L51.318 40.0852L51.2106 40.1634L46.4529 55.2999C46.3261 55.6224 46.0624 55.8472 45.7693 55.8963C45.6521 55.9159 45.4665 55.8867 45.3395 55.8477C44.8899 55.6819 44.6259 55.1838 44.7916 54.7343L48.9936 41.3177L34.93 48.7323C33.3771 49.5345 31.4717 48.9495 30.6794 47.4553C29.8772 45.9024 30.4621 43.9969 31.9564 43.2046L47.9537 34.7433L48.6179 34.3912L47.6897 34.2452L36.5706 32.6112C36.0723 32.5138 35.7594 32.0841 35.7982 31.5956C35.8955 31.0973 36.3251 30.7844 36.8137 30.8232L51.2743 32.9826L51.4014 33.0216C51.6456 33.041 51.8508 33.1874 52.0073 33.4022C52.7987 33.4506 53.5118 33.3915 54.0492 33.3618C54.5279 33.342 54.8796 33.2831 55.1042 33.1853C55.8466 32.9405 56.2566 32.5104 56.481 32.0511C56.393 31.8851 56.3635 31.7092 56.4025 31.5822C56.4805 31.3281 56.2361 30.9473 55.8157 30.5958C55.1021 29.9319 53.7533 29.0731 51.9062 28.1169C48.1534 26.2142 42.4855 24.0295 36.3195 22.1088C36.1925 22.0699 36.0556 21.9723 35.9188 21.8746C35.8405 21.7672 35.7623 21.6598 35.7427 21.5426C33.2808 21.5931 28.9827 22.5533 27.3748 28.7874C27.2676 29.2271 27.1604 29.6669 27.0728 30.2238C24.8176 47.7131 22.192 51.4664 18.2562 53.5108L7.85503 59.0473C7.85503 59.0473 6.24123 71.368 17.7561 80.7688C17.7561 80.7688 46.2893 74.1263 52.9334 60.1805C55.1676 55.5287 54.921 51.8945 56.0813 48.3864C57.934 42.8946 57.9412 38.9769 57.2365 36.9257Z" fill="#FFCA49"/>
<path d="M50.5517 33.3446C46.4776 33.1225 40.6151 32.2959 35.7396 31.6055C35.6422 32.1038 36.0137 32.5236 36.512 32.621L47.6311 34.2551L47.2203 33.6008L47.6311 34.2551L48.5593 34.401L50.5517 33.3446Z" fill="#030401"/>
<path d="M48.5592 34.401L51.0899 34.7609C51.2071 34.7412 51.2755 34.7901 51.3928 34.7704C51.7444 34.7116 52.0568 34.4183 52.1152 34.047C52.1346 33.8028 52.1052 33.6269 51.9487 33.4121C51.5286 33.4221 51.0401 33.3834 50.5516 33.3446L48.5592 34.401Z" fill="#030401"/>
<path d="M51.2157 32.9924L36.7551 30.8329C36.2568 30.7356 35.8369 31.1071 35.7395 31.6054C40.6249 32.3545 46.4775 33.1225 50.5517 33.3445L51.2157 32.9924Z" fill="#030401"/>
<path d="M51.9488 33.4121C51.7923 33.1972 51.587 33.0508 51.3428 33.0315L51.2158 32.9924L50.5517 33.3446C51.0402 33.3833 51.5287 33.4221 51.9488 33.4121Z" fill="#030401"/>
<path d="M50.5953 40.4471L48.9351 41.3275L44.733 54.7441C44.5672 55.1936 44.8314 55.6917 45.2809 55.8575L50.5564 40.5742C50.6052 40.5057 50.5953 40.4471 50.5953 40.4471Z" fill="#030401"/>
<path d="M50.8486 39.4407L50.4477 38.845C50.0178 38.7964 49.637 39.0409 49.5298 39.4806L48.9448 41.3861L50.6051 40.5057C50.6537 40.0758 50.7805 39.7533 50.8486 39.4407Z" fill="#030401"/>
<path d="M51.0243 39.0498C50.9461 38.9424 50.8191 38.9034 50.692 38.8644C50.6334 38.8742 50.565 38.8254 50.5063 38.8352L50.9073 39.4309C50.8877 39.3137 50.9267 39.1867 51.0243 39.0498Z" fill="#030401"/>
<path d="M50.615 40.5644L45.3396 55.8477C45.4666 55.8867 45.6522 55.9159 45.7694 55.8963C46.0625 55.8473 46.3848 55.6126 46.453 55.2999L51.2107 40.1635L50.654 40.4374C50.5954 40.4472 50.6052 40.5058 50.615 40.5644Z" fill="#030401"/>
<path d="M51.2398 39.9778C51.3568 39.5967 51.2393 39.2549 51.0243 39.0498C50.9853 39.1769 50.9462 39.3039 50.9072 39.4309L51.2398 39.9778Z" fill="#030401"/>
<path d="M50.8487 39.4407C50.7219 39.7632 50.6538 40.0759 50.5954 40.4472L51.1521 40.1732L51.1911 40.0462L50.8487 39.4407Z" fill="#030401"/>
<path d="M48.7483 24.7289C49.7844 25.5195 50.7913 26.4958 51.5834 27.6286C51.6715 27.7946 51.8181 27.9509 51.9062 28.1169C53.7435 29.0145 55.0923 29.8734 55.8157 30.5958L56.5384 30.2339L56.597 30.2241L57.4271 29.7839C56.3126 28.5243 53.869 26.8846 48.7483 24.7289Z" fill="#030401"/>
<path d="M37.8428 20.7694C37.7062 21.0333 37.5794 21.3558 37.5112 21.6685C38.5174 21.5603 39.5433 21.5695 40.5203 21.647C39.377 21.296 38.4779 20.9644 37.8428 20.7694Z" fill="#030401"/>
<path d="M37.3354 21.6979C37.0911 21.6785 36.4658 21.5421 35.7428 21.5426C35.7624 21.6598 35.8406 21.7672 35.9188 21.8746C36.3877 21.7962 36.8566 21.7177 37.3354 21.6979Z" fill="#030401"/>
<path d="M35.9188 21.8746C35.9971 21.9821 36.1339 22.0796 36.3196 22.1088C42.4757 23.9708 48.212 26.2044 51.9062 28.1169C51.8182 27.9508 51.7301 27.7848 51.5835 27.6286C50.7914 26.4958 49.8431 25.5097 48.7484 24.7288C48.3575 24.5532 47.908 24.3874 47.5171 24.2118C44.9958 23.1876 42.4942 22.2807 40.5203 21.6469C39.4846 21.5792 38.4588 21.5701 37.5112 21.6684C37.5112 21.6684 37.5112 21.6684 37.521 21.727C37.521 21.727 37.4624 21.7369 37.3939 21.6881C36.8566 21.7177 36.3877 21.7962 35.9188 21.8746Z" fill="#030401"/>
<path d="M56.4026 31.5822C56.3734 31.7678 56.4028 31.9437 56.481 32.0511C56.9396 31.1911 56.5971 30.2241 56.5286 30.1753L55.806 30.5372C56.2459 31.0059 56.4219 31.3379 56.4026 31.5822Z" fill="#030401"/>
<path d="M56.5287 30.1753L57.4957 29.8327C57.4859 29.7741 57.4174 29.7253 57.4174 29.7253L56.5287 30.1753Z" fill="#030401"/>
<path d="M46.2632 19.2398C46.3316 19.2886 55.2354 24.6073 58.3061 29.2753L59.9176 28.4634C57.3846 24.4887 51.3832 20.3112 48.6271 18.6033C48.5199 19.043 48.4127 19.4827 48.3936 20.0884C48.3936 20.0884 47.3673 19.3564 45.8721 18.7028C45.9015 18.8786 45.9993 19.1032 46.2632 19.2398Z" fill="#030401"/>
<path d="M59.8591 28.4732L58.2476 29.2851C58.3258 29.3926 58.3357 29.4512 58.4139 29.5586L59.2636 29.2356C59.4883 29.1378 59.7617 28.9715 60.045 28.8639L60.0352 28.8052C60.0156 28.688 59.9373 28.5806 59.8591 28.4732Z" fill="#030401"/>
<path d="M61.07 27.7885L62.7889 26.8983C62.1712 23.5672 58.5045 18.9388 56.2656 16.361C55.9433 16.5957 55.6993 16.9378 55.4261 17.4655C55.4261 17.4655 55.0352 17.2899 54.4489 17.0265C56.9811 19.9167 61.0389 25.0823 61.07 27.7885Z" fill="#030401"/>
<path d="M62.7889 26.8983L61.0701 27.7885C61.0799 27.8471 61.0897 27.9057 61.0995 27.9643C61.0605 28.0913 61.1485 28.2574 61.1681 28.3746C61.4514 28.267 61.7248 28.1007 61.9494 28.0029C62.2913 27.8854 62.555 27.6605 62.8284 27.4942C62.8576 27.3086 62.8184 27.0742 62.7889 26.8983Z" fill="#030401"/>
<path d="M72.8208 9.43332L80.414 12.6817" stroke="#FDFDFD" stroke-width="1.78281" stroke-miterlimit="10" stroke-linecap="round" stroke-linejoin="round"/>
<path d="M83.959 10.4617L81.7168 2.82318" stroke="#FDFDFD" stroke-width="1.78281" stroke-miterlimit="10" stroke-linecap="round" stroke-linejoin="round"/>
<path d="M88.4576 17.5418L93.8143 21.8272" stroke="#FDFDFD" stroke-width="1.78281" stroke-miterlimit="10" stroke-linecap="round" stroke-linejoin="round"/>
<path d="M88.3652 10.5077L92.7568 3.26542" stroke="#FDFDFD" stroke-width="1.78281" stroke-miterlimit="10" stroke-linecap="round" stroke-linejoin="round"/>
<path d="M97.8237 12.6606L90.0378 13.6622" stroke="#FDFDFD" stroke-width="1.78281" stroke-miterlimit="10" stroke-linecap="round" stroke-linejoin="round"/>
<path d="M91.1868 43.9558C88.6908 42.173 85.6601 42.8861 84.0555 45.798C82.2727 48.9476 83.3424 57.8617 83.7584 61.0113C83.8178 61.6056 83.3424 62.1404 82.7482 62.081C82.1539 62.081 81.7379 61.5462 81.8568 60.9519C82.1539 59.4068 82.6888 56.6137 82.6293 54.3555C82.6293 52.6915 82.0945 51.8596 81.2031 51.2653C79.3608 49.9579 75.2604 50.4927 75.3198 54.3555C75.3792 56.6137 75.7357 59.4662 76.0329 61.0113C76.1517 61.6056 75.7357 62.081 75.1415 62.1405C74.5472 62.1405 74.0718 61.665 74.1907 61.0708C74.6661 57.9211 75.7952 49.0665 74.0718 45.8574C72.4673 42.8861 69.4959 42.173 66.9406 43.8963C63.3155 46.3923 63.9098 51.2059 64.5635 53.9395C67.5943 66.6569 65.6926 71.3516 67.832 74.5607C69.1988 76.6407 71.7542 77.6509 74.369 77.0566C77.3997 76.3435 78.4694 68.8557 78.826 64.9929H78.9448C79.242 68.8557 80.2522 76.2841 83.283 77.0566C85.8978 77.7103 88.4532 76.7001 89.82 74.6201C91.9594 71.4111 90.1766 66.7163 93.3262 54.0584C94.0988 51.2653 94.7524 46.4517 91.1868 43.9558Z" fill="#010101"/>
<path d="M105.925 58.6937C105.271 53.4047 96.5353 53.583 96.1193 58.872C96.1193 59.1691 96.1193 59.4663 96.1193 59.7634C96.4758 66.1221 94.3959 67.7266 95.3467 73.5505C96.1193 78.3046 104.082 78.5424 105.687 74.0853C107.529 68.7963 105.271 65.5873 105.865 61.3085C105.984 60.2983 106.044 59.4663 105.925 58.6937Z" fill="#010101"/>
<path d="M105.865 48.4723C105.687 51.3248 103.31 53.5236 100.517 53.3453C97.7238 53.167 95.5845 50.7305 95.7033 47.878C95.8816 45.0255 98.2587 42.8267 101.052 43.005C103.845 43.1833 106.044 45.6198 105.865 48.4723Z" fill="#010101"/>
<path d="M127.913 44.3717C122.861 41.6975 112.759 41.5787 109.906 47.1054V47.1648C109.55 47.7591 109.312 48.4128 109.253 49.1853C108.658 54.2366 109.609 54.5932 110.025 61.249C110.441 67.9048 107.232 76.9972 113.947 77.7103C123.515 78.7206 121.257 67.2512 119.296 62.7941C119.296 62.7941 126.546 65.8249 130.646 59.6445C132.905 56.1977 133.38 47.2242 127.913 44.3717ZM121.435 54.1178C121.079 56.3166 122.505 58.8719 118.761 58.6936C115.493 58.5748 116.741 56.6731 116.8 54.1178C116.859 51.7407 115.73 49.5419 119.177 49.5419C121.851 49.6013 121.851 51.6218 121.435 54.1178Z" fill="#010101"/>
<path d="M88.5721 39.0233C86.0762 37.2405 83.0454 37.9536 81.4409 40.8655C79.658 44.0151 80.7277 52.9292 81.1437 56.0788C81.2032 56.6731 80.7277 57.208 80.1334 57.1485C79.5392 57.1485 79.1232 56.6137 79.242 56.0194C79.5392 54.4743 80.074 51.6812 80.0146 49.423C80.0146 47.759 79.4797 46.9271 78.5883 46.3328C76.7461 45.0254 72.6456 45.5602 72.705 49.423C72.7645 51.6812 73.1211 54.5337 73.4182 56.0788C73.5371 56.6731 73.1211 57.1485 72.5268 57.2079C71.9325 57.2079 71.4571 56.7325 71.5759 56.1383C72.0513 52.9886 73.1805 44.134 71.4571 40.9249C69.8526 37.9536 66.8812 37.2405 64.3258 38.9638C60.7008 41.4598 61.2951 46.2734 61.9488 49.007C64.9795 61.7244 63.0779 66.4191 65.2172 69.6282C66.5841 71.7082 69.1394 72.7184 71.7542 72.1241C74.785 71.411 75.8547 63.9232 76.2113 60.0605H76.3301C76.6272 63.9232 77.6375 71.3516 80.6683 72.1241C83.2831 72.7778 85.8384 71.7676 87.2053 69.6876C89.3446 66.4786 87.5618 61.7838 90.7115 49.1259C91.5434 46.3922 92.1377 41.5192 88.5721 39.0233Z" fill="#FF77E6"/>
<path d="M103.31 53.7611C102.656 48.4721 93.9205 48.6504 93.5045 53.9394C93.5045 54.2365 93.5045 54.5336 93.5045 54.8308C93.861 61.1895 91.7811 62.794 92.732 68.6179C93.5045 73.372 101.468 73.6097 103.072 69.1527C104.914 63.8637 102.656 60.6546 103.251 56.3759C103.429 55.4251 103.429 54.5337 103.31 53.7611Z" fill="#FF77E6"/>
<path d="M103.251 43.5396C103.072 46.3921 100.695 48.5909 97.9022 48.4127C95.1091 48.2344 92.9697 45.7979 93.0886 42.9454C93.2669 40.0929 95.6439 37.8941 98.437 38.0723C101.29 38.2506 103.429 40.6871 103.251 43.5396Z" fill="#FF77E6"/>
<path d="M125.298 39.4392C120.247 36.765 110.144 36.6462 107.292 42.1729V42.2323C106.935 42.8266 106.697 43.4803 106.638 44.2528C106.044 49.3041 106.995 49.6607 107.411 56.3165C107.826 62.9723 104.617 72.0647 111.333 72.7778C120.9 73.7881 118.642 62.3187 116.681 57.8616C116.681 57.8616 123.931 60.8924 128.032 54.712C130.29 51.2652 130.825 42.2917 125.298 39.4392ZM118.82 49.1853C118.464 51.3841 119.89 53.9394 116.146 53.7612C112.878 53.6423 114.126 51.7406 114.185 49.1853C114.245 46.8082 113.116 44.6094 116.562 44.6094C119.237 44.6688 119.236 46.6893 118.82 49.1853Z" fill="#FF77E6"/>
</svg>
