<svg width="171" height="231" viewBox="0 0 171 231" fill="none" xmlns="http://www.w3.org/2000/svg">
<path d="M0.973633 6.27893C0.973633 2.96522 3.65993 0.278931 6.97363 0.278931H14.1165C17.4302 0.278931 20.1165 2.96522 20.1165 6.27893V14.2789C20.1165 17.5926 17.4302 20.2789 14.1165 20.2789H6.97363C3.65992 20.2789 0.973633 17.5926 0.973633 14.2789V6.27893Z" fill="#181818"/>
<path d="M26.1165 6.27893C26.1165 2.96522 28.8027 0.278931 32.1165 0.278931H39.2593C42.573 0.278931 45.2593 2.96522 45.2593 6.27893V14.2789C45.2593 17.5926 42.573 20.2789 39.2593 20.2789H32.1165C28.8027 20.2789 26.1165 17.5926 26.1165 14.2789V6.27893Z" fill="#181818"/>
<path d="M51.2593 6.27893C51.2593 2.96522 53.9456 0.278931 57.2593 0.278931H64.4021C67.7158 0.278931 70.4021 2.96522 70.4021 6.27893V14.2789C70.4021 17.5926 67.7158 20.2789 64.4021 20.2789H57.2593C53.9456 20.2789 51.2593 17.5926 51.2593 14.2789V6.27893Z" fill="#181818"/>
<path d="M76.4021 6.27893C76.4021 2.96522 79.0884 0.278931 82.4021 0.278931H89.545C92.8587 0.278931 95.545 2.96522 95.545 6.27893V14.2789C95.545 17.5926 92.8587 20.2789 89.545 20.2789H82.4021C79.0884 20.2789 76.4021 17.5926 76.4021 14.2789V6.27893Z" fill="#65C7A6"/>
<path d="M101.545 6.27893C101.545 2.96522 104.231 0.278931 107.545 0.278931H114.688C118.002 0.278931 120.688 2.96522 120.688 6.27893V14.2789C120.688 17.5926 118.002 20.2789 114.688 20.2789H107.545C104.231 20.2789 101.545 17.5926 101.545 14.2789V6.27893Z" fill="#65C7A6"/>
<path d="M126.688 6.27893C126.688 2.96522 129.374 0.278931 132.688 0.278931H139.831C143.145 0.278931 145.831 2.96522 145.831 6.27893V14.2789C145.831 17.5926 143.145 20.2789 139.831 20.2789H132.688C129.374 20.2789 126.688 17.5926 126.688 14.2789V6.27893Z" fill="#3D3D3D"/>
<path d="M151.831 6.27893C151.831 2.96522 154.517 0.278931 157.831 0.278931H164.974C168.287 0.278931 170.974 2.96522 170.974 6.27893V14.2789C170.974 17.5926 168.287 20.2789 164.974 20.2789H157.831C154.517 20.2789 151.831 17.5926 151.831 14.2789V6.27893Z" fill="#65C7A6"/>
<path d="M0.973633 36.2789C0.973633 32.9652 3.65992 30.2789 6.97363 30.2789H14.1165C17.4302 30.2789 20.1165 32.9652 20.1165 36.2789V44.2789C20.1165 47.5926 17.4302 50.2789 14.1165 50.2789H6.97363C3.65992 50.2789 0.973633 47.5926 0.973633 44.2789V36.2789Z" fill="#65C7A6"/>
<path d="M26.1165 36.2789C26.1165 32.9652 28.8027 30.2789 32.1165 30.2789H39.2593C42.573 30.2789 45.2593 32.9652 45.2593 36.2789V44.2789C45.2593 47.5926 42.573 50.2789 39.2593 50.2789H32.1165C28.8027 50.2789 26.1165 47.5926 26.1165 44.2789V36.2789Z" fill="#65C7A6"/>
<path d="M51.2593 36.2789C51.2593 32.9652 53.9456 30.2789 57.2593 30.2789H64.4021C67.7158 30.2789 70.4021 32.9652 70.4021 36.2789V44.2789C70.4021 47.5926 67.7158 50.2789 64.4021 50.2789H57.2593C53.9456 50.2789 51.2593 47.5926 51.2593 44.2789V36.2789Z" fill="#3D3D3D"/>
<path d="M76.4021 36.2789C76.4021 32.9652 79.0884 30.2789 82.4021 30.2789H89.545C92.8587 30.2789 95.545 32.9652 95.545 36.2789V44.2789C95.545 47.5926 92.8587 50.2789 89.545 50.2789H82.4021C79.0884 50.2789 76.4021 47.5926 76.4021 44.2789V36.2789Z" fill="#65C7A6"/>
<path d="M101.545 36.2789C101.545 32.9652 104.231 30.2789 107.545 30.2789H114.688C118.002 30.2789 120.688 32.9652 120.688 36.2789V44.2789C120.688 47.5926 118.002 50.2789 114.688 50.2789H107.545C104.231 50.2789 101.545 47.5926 101.545 44.2789V36.2789Z" fill="#65C7A6"/>
<path d="M126.688 36.2789C126.688 32.9652 129.374 30.2789 132.688 30.2789H139.831C143.145 30.2789 145.831 32.9652 145.831 36.2789V44.2789C145.831 47.5926 143.145 50.2789 139.831 50.2789H132.688C129.374 50.2789 126.688 47.5926 126.688 44.2789V36.2789Z" fill="#65C7A6"/>
<path d="M151.831 36.2789C151.831 32.9652 154.517 30.2789 157.831 30.2789H164.974C168.287 30.2789 170.974 32.9652 170.974 36.2789V44.2789C170.974 47.5926 168.287 50.2789 164.974 50.2789H157.831C154.517 50.2789 151.831 47.5926 151.831 44.2789V36.2789Z" fill="#65C7A6"/>
<path d="M0.973633 66.2789C0.973633 62.9652 3.65992 60.2789 6.97363 60.2789H14.1165C17.4302 60.2789 20.1165 62.9652 20.1165 66.2789V74.2789C20.1165 77.5926 17.4302 80.2789 14.1165 80.2789H6.97363C3.65992 80.2789 0.973633 77.5926 0.973633 74.2789V66.2789Z" fill="#65C7A6"/>
<path d="M26.1165 66.2789C26.1165 62.9652 28.8027 60.2789 32.1165 60.2789H39.2593C42.573 60.2789 45.2593 62.9652 45.2593 66.2789V74.2789C45.2593 77.5926 42.573 80.2789 39.2593 80.2789H32.1165C28.8027 80.2789 26.1165 77.5926 26.1165 74.2789V66.2789Z" fill="#65C7A6"/>
<path d="M51.2593 66.2789C51.2593 62.9652 53.9456 60.2789 57.2593 60.2789H64.4021C67.7158 60.2789 70.4021 62.9652 70.4021 66.2789V74.2789C70.4021 77.5926 67.7158 80.2789 64.4021 80.2789H57.2593C53.9456 80.2789 51.2593 77.5926 51.2593 74.2789V66.2789Z" fill="#65C7A6"/>
<path d="M76.4021 66.2789C76.4021 62.9652 79.0884 60.2789 82.4021 60.2789H89.545C92.8587 60.2789 95.545 62.9652 95.545 66.2789V74.2789C95.545 77.5926 92.8587 80.2789 89.545 80.2789H82.4021C79.0884 80.2789 76.4021 77.5926 76.4021 74.2789V66.2789Z" fill="#65C7A6"/>
<path d="M101.545 66.2789C101.545 62.9652 104.231 60.2789 107.545 60.2789H114.688C118.002 60.2789 120.688 62.9652 120.688 66.2789V74.2789C120.688 77.5926 118.002 80.2789 114.688 80.2789H107.545C104.231 80.2789 101.545 77.5926 101.545 74.2789V66.2789Z" fill="#65C7A6"/>
<path d="M126.688 66.2789C126.688 62.9652 129.374 60.2789 132.688 60.2789H139.831C143.145 60.2789 145.831 62.9652 145.831 66.2789V74.2789C145.831 77.5926 143.145 80.2789 139.831 80.2789H132.688C129.374 80.2789 126.688 77.5926 126.688 74.2789V66.2789Z" fill="#3D3D3D"/>
<path d="M151.831 66.2789C151.831 62.9652 154.517 60.2789 157.831 60.2789H164.974C168.287 60.2789 170.974 62.9652 170.974 66.2789V74.2789C170.974 77.5926 168.287 80.2789 164.974 80.2789H157.831C154.517 80.2789 151.831 77.5926 151.831 74.2789V66.2789Z" fill="#65C7A6"/>
<path d="M0.973633 96.2789C0.973633 92.9652 3.65992 90.2789 6.97363 90.2789H14.1165C17.4302 90.2789 20.1165 92.9652 20.1165 96.2789V104.279C20.1165 107.593 17.4302 110.279 14.1165 110.279H6.97363C3.65992 110.279 0.973633 107.593 0.973633 104.279V96.2789Z" fill="#65C7A6"/>
<path d="M26.1165 96.2789C26.1165 92.9652 28.8027 90.2789 32.1165 90.2789H39.2593C42.573 90.2789 45.2593 92.9652 45.2593 96.2789V104.279C45.2593 107.593 42.573 110.279 39.2593 110.279H32.1165C28.8027 110.279 26.1165 107.593 26.1165 104.279V96.2789Z" fill="#65C7A6"/>
<path d="M51.2593 96.2789C51.2593 92.9652 53.9456 90.2789 57.2593 90.2789H64.4021C67.7158 90.2789 70.4021 92.9652 70.4021 96.2789V104.279C70.4021 107.593 67.7158 110.279 64.4021 110.279H57.2593C53.9456 110.279 51.2593 107.593 51.2593 104.279V96.2789Z" fill="#65C7A6"/>
<path d="M76.4021 96.2789C76.4021 92.9652 79.0884 90.2789 82.4021 90.2789H89.545C92.8587 90.2789 95.545 92.9652 95.545 96.2789V104.279C95.545 107.593 92.8587 110.279 89.545 110.279H82.4021C79.0884 110.279 76.4021 107.593 76.4021 104.279V96.2789Z" fill="#3D3D3D"/>
<path d="M101.545 96.2789C101.545 92.9652 104.231 90.2789 107.545 90.2789H114.688C118.002 90.2789 120.688 92.9652 120.688 96.2789V104.279C120.688 107.593 118.002 110.279 114.688 110.279H107.545C104.231 110.279 101.545 107.593 101.545 104.279V96.2789Z" fill="#65C7A6"/>
<path d="M126.688 96.2789C126.688 92.9652 129.374 90.2789 132.688 90.2789H139.831C143.145 90.2789 145.831 92.9652 145.831 96.2789V104.279C145.831 107.593 143.145 110.279 139.831 110.279H132.688C129.374 110.279 126.688 107.593 126.688 104.279V96.2789Z" fill="#3D3D3D"/>
<path d="M151.831 96.2789C151.831 92.9652 154.517 90.2789 157.831 90.2789H164.974C168.287 90.2789 170.974 92.9652 170.974 96.2789V104.279C170.974 107.593 168.287 110.279 164.974 110.279H157.831C154.517 110.279 151.831 107.593 151.831 104.279V96.2789Z" fill="#3D3D3D"/>
<path d="M0.973633 126.279C0.973633 122.965 3.65992 120.279 6.97363 120.279H14.1165C17.4302 120.279 20.1165 122.965 20.1165 126.279V134.279C20.1165 137.593 17.4302 140.279 14.1165 140.279H6.97363C3.65992 140.279 0.973633 137.593 0.973633 134.279V126.279Z" fill="#3D3D3D"/>
<path d="M26.1165 126.279C26.1165 122.965 28.8027 120.279 32.1165 120.279H39.2593C42.573 120.279 45.2593 122.965 45.2593 126.279V134.279C45.2593 137.593 42.573 140.279 39.2593 140.279H32.1165C28.8027 140.279 26.1165 137.593 26.1165 134.279V126.279Z" fill="#3D3D3D"/>
<path d="M51.2593 126.279C51.2593 122.965 53.9456 120.279 57.2593 120.279H64.4021C67.7158 120.279 70.4021 122.965 70.4021 126.279V134.279C70.4021 137.593 67.7158 140.279 64.4021 140.279H57.2593C53.9456 140.279 51.2593 137.593 51.2593 134.279V126.279Z" fill="#3D3D3D"/>
<path d="M76.4021 126.279C76.4021 122.965 79.0884 120.279 82.4021 120.279H89.545C92.8587 120.279 95.545 122.965 95.545 126.279V134.279C95.545 137.593 92.8587 140.279 89.545 140.279H82.4021C79.0884 140.279 76.4021 137.593 76.4021 134.279V126.279Z" fill="#3D3D3D"/>
<path d="M101.545 126.279C101.545 122.965 104.231 120.279 107.545 120.279H114.688C118.002 120.279 120.688 122.965 120.688 126.279V134.279C120.688 137.593 118.002 140.279 114.688 140.279H107.545C104.231 140.279 101.545 137.593 101.545 134.279V126.279Z" fill="#3D3D3D"/>
<path d="M126.688 126.279C126.688 122.965 129.374 120.279 132.688 120.279H139.831C143.145 120.279 145.831 122.965 145.831 126.279V134.279C145.831 137.593 143.145 140.279 139.831 140.279H132.688C129.374 140.279 126.688 137.593 126.688 134.279V126.279Z" fill="#3D3D3D"/>
<path d="M151.831 126.279C151.831 122.965 154.517 120.279 157.831 120.279H164.974C168.287 120.279 170.974 122.965 170.974 126.279V134.279C170.974 137.593 168.287 140.279 164.974 140.279H157.831C154.517 140.279 151.831 137.593 151.831 134.279V126.279Z" fill="#3D3D3D"/>
<path d="M0.973633 156.279C0.973633 152.965 3.65992 150.279 6.97363 150.279H14.1165C17.4302 150.279 20.1165 152.965 20.1165 156.279V164.279C20.1165 167.593 17.4302 170.279 14.1165 170.279H6.97363C3.65992 170.279 0.973633 167.593 0.973633 164.279V156.279Z" fill="#3D3D3D"/>
<path d="M26.1165 156.279C26.1165 152.965 28.8027 150.279 32.1165 150.279H39.2593C42.573 150.279 45.2593 152.965 45.2593 156.279V164.279C45.2593 167.593 42.573 170.279 39.2593 170.279H32.1165C28.8027 170.279 26.1165 167.593 26.1165 164.279V156.279Z" fill="#3D3D3D"/>
<path d="M51.2593 156.279C51.2593 152.965 53.9456 150.279 57.2593 150.279H64.4021C67.7158 150.279 70.4021 152.965 70.4021 156.279V164.279C70.4021 167.593 67.7158 170.279 64.4021 170.279H57.2593C53.9456 170.279 51.2593 167.593 51.2593 164.279V156.279Z" fill="#3D3D3D"/>
<path d="M76.4021 156.279C76.4021 152.965 79.0884 150.279 82.4021 150.279H89.545C92.8587 150.279 95.545 152.965 95.545 156.279V164.279C95.545 167.593 92.8587 170.279 89.545 170.279H82.4021C79.0884 170.279 76.4021 167.593 76.4021 164.279V156.279Z" fill="#3D3D3D"/>
<path d="M101.545 156.279C101.545 152.965 104.231 150.279 107.545 150.279H114.688C118.002 150.279 120.688 152.965 120.688 156.279V164.279C120.688 167.593 118.002 170.279 114.688 170.279H107.545C104.231 170.279 101.545 167.593 101.545 164.279V156.279Z" fill="#3D3D3D"/>
<path d="M126.688 156.279C126.688 152.965 129.374 150.279 132.688 150.279H139.831C143.145 150.279 145.831 152.965 145.831 156.279V164.279C145.831 167.593 143.145 170.279 139.831 170.279H132.688C129.374 170.279 126.688 167.593 126.688 164.279V156.279Z" fill="#3D3D3D"/>
<path d="M151.831 156.279C151.831 152.965 154.517 150.279 157.831 150.279H164.974C168.287 150.279 170.974 152.965 170.974 156.279V164.279C170.974 167.593 168.287 170.279 164.974 170.279H157.831C154.517 170.279 151.831 167.593 151.831 164.279V156.279Z" fill="#3D3D3D"/>
<path d="M0.973633 186.279C0.973633 182.965 3.65992 180.279 6.97363 180.279H14.1165C17.4302 180.279 20.1165 182.965 20.1165 186.279V194.279C20.1165 197.593 17.4302 200.279 14.1165 200.279H6.97363C3.65992 200.279 0.973633 197.593 0.973633 194.279V186.279Z" fill="#3D3D3D"/>
<path d="M26.1165 186.279C26.1165 182.965 28.8027 180.279 32.1165 180.279H39.2593C42.573 180.279 45.2593 182.965 45.2593 186.279V194.279C45.2593 197.593 42.573 200.279 39.2593 200.279H32.1165C28.8027 200.279 26.1165 197.593 26.1165 194.279V186.279Z" fill="#3D3D3D"/>
<path d="M51.2593 186.279C51.2593 182.965 53.9456 180.279 57.2593 180.279H64.4021C67.7158 180.279 70.4021 182.965 70.4021 186.279V194.279C70.4021 197.593 67.7158 200.279 64.4021 200.279H57.2593C53.9456 200.279 51.2593 197.593 51.2593 194.279V186.279Z" fill="#3D3D3D"/>
<path d="M76.4021 186.279C76.4021 182.965 79.0884 180.279 82.4021 180.279H89.545C92.8587 180.279 95.545 182.965 95.545 186.279V194.279C95.545 197.593 92.8587 200.279 89.545 200.279H82.4021C79.0884 200.279 76.4021 197.593 76.4021 194.279V186.279Z" fill="#3D3D3D"/>
<path d="M101.545 186.279C101.545 182.965 104.231 180.279 107.545 180.279H114.688C118.002 180.279 120.688 182.965 120.688 186.279V194.279C120.688 197.593 118.002 200.279 114.688 200.279H107.545C104.231 200.279 101.545 197.593 101.545 194.279V186.279Z" fill="#3D3D3D"/>
<path d="M126.688 186.279C126.688 182.965 129.374 180.279 132.688 180.279H139.831C143.145 180.279 145.831 182.965 145.831 186.279V194.279C145.831 197.593 143.145 200.279 139.831 200.279H132.688C129.374 200.279 126.688 197.593 126.688 194.279V186.279Z" fill="#3D3D3D"/>
<path d="M151.831 186.279C151.831 182.965 154.517 180.279 157.831 180.279H164.974C168.287 180.279 170.974 182.965 170.974 186.279V194.279C170.974 197.593 168.287 200.279 164.974 200.279H157.831C154.517 200.279 151.831 197.593 151.831 194.279V186.279Z" fill="#3D3D3D"/>
<path d="M0.973633 216.279C0.973633 212.965 3.65992 210.279 6.97363 210.279H14.1165C17.4302 210.279 20.1165 212.965 20.1165 216.279V224.279C20.1165 227.593 17.4302 230.279 14.1165 230.279H6.97363C3.65992 230.279 0.973633 227.593 0.973633 224.279V216.279Z" fill="#3D3D3D"/>
<path d="M26.1165 216.279C26.1165 212.965 28.8027 210.279 32.1165 210.279H39.2593C42.573 210.279 45.2593 212.965 45.2593 216.279V224.279C45.2593 227.593 42.573 230.279 39.2593 230.279H32.1165C28.8027 230.279 26.1165 227.593 26.1165 224.279V216.279Z" fill="#3D3D3D"/>
<path d="M51.2593 216.279C51.2593 212.965 53.9456 210.279 57.2593 210.279H64.4021C67.7158 210.279 70.4021 212.965 70.4021 216.279V224.279C70.4021 227.593 67.7158 230.279 64.4021 230.279H57.2593C53.9456 230.279 51.2593 227.593 51.2593 224.279V216.279Z" fill="#3D3D3D"/>
<path d="M76.4021 216.279C76.4021 212.965 79.0884 210.279 82.4021 210.279H89.545C92.8587 210.279 95.545 212.965 95.545 216.279V224.279C95.545 227.593 92.8587 230.279 89.545 230.279H82.4021C79.0884 230.279 76.4021 227.593 76.4021 224.279V216.279Z" fill="#3D3D3D"/>
<path d="M101.545 216.279C101.545 212.965 104.231 210.279 107.545 210.279H114.688C118.002 210.279 120.688 212.965 120.688 216.279V224.279C120.688 227.593 118.002 230.279 114.688 230.279H107.545C104.231 230.279 101.545 227.593 101.545 224.279V216.279Z" fill="#3D3D3D"/>
<path d="M126.688 216.279C126.688 212.965 129.374 210.279 132.688 210.279H139.831C143.145 210.279 145.831 212.965 145.831 216.279V224.279C145.831 227.593 143.145 230.279 139.831 230.279H132.688C129.374 230.279 126.688 227.593 126.688 224.279V216.279Z" fill="#3D3D3D"/>
<path d="M151.831 216.279C151.831 212.965 154.517 210.279 157.831 210.279H164.974C168.287 210.279 170.974 212.965 170.974 216.279V224.279C170.974 227.593 168.287 230.279 164.974 230.279H157.831C154.517 230.279 151.831 227.593 151.831 224.279V216.279Z" fill="#3D3D3D"/>
</svg>
