<svg width="170" height="457" viewBox="0 0 170 457" fill="none" xmlns="http://www.w3.org/2000/svg">
<path d="M0 6C0 2.68629 2.68629 0 6 0H13.1429C16.4566 0 19.1429 2.68629 19.1429 6V14C19.1429 17.3137 16.4566 20 13.1429 20H6C2.68629 20 0 17.3137 0 14V6Z" fill="#181818"/>
<path d="M25.1428 6C25.1428 2.68629 27.8291 0 31.1428 0H38.2857C41.5994 0 44.2857 2.68629 44.2857 6V14C44.2857 17.3137 41.5994 20 38.2857 20H31.1428C27.8291 20 25.1428 17.3137 25.1428 14V6Z" fill="#181818"/>
<path d="M50.2856 6C50.2856 2.68629 52.9719 0 56.2856 0H63.4285C66.7422 0 69.4285 2.68629 69.4285 6V14C69.4285 17.3137 66.7422 20 63.4285 20H56.2856C52.9719 20 50.2856 17.3137 50.2856 14V6Z" fill="#181818"/>
<path d="M75.4285 6C75.4285 2.68629 78.1148 0 81.4285 0H88.5713C91.885 0 94.5713 2.68629 94.5713 6V14C94.5713 17.3137 91.885 20 88.5713 20H81.4285C78.1148 20 75.4285 17.3137 75.4285 14V6Z" fill="#65C7A6"/>
<path d="M100.572 6C100.572 2.68629 103.258 0 106.572 0H113.714C117.028 0 119.714 2.68629 119.714 6V14C119.714 17.3137 117.028 20 113.714 20H106.572C103.258 20 100.572 17.3137 100.572 14V6Z" fill="#65C7A6"/>
<path d="M125.714 6C125.714 2.68629 128.401 0 131.714 0H138.857C142.171 0 144.857 2.68629 144.857 6V14C144.857 17.3137 142.171 20 138.857 20H131.714C128.401 20 125.714 17.3137 125.714 14V6Z" fill="#65C7A6"/>
<path d="M150.857 6C150.857 2.68629 153.543 0 156.857 0H164C167.314 0 170 2.68629 170 6V14C170 17.3137 167.314 20 164 20H156.857C153.543 20 150.857 17.3137 150.857 14V6Z" fill="#3D3D3D"/>
<path d="M0 36C0 32.6863 2.68629 30 6 30H13.1429C16.4566 30 19.1429 32.6863 19.1429 36V44C19.1429 47.3137 16.4566 50 13.1429 50H6C2.68629 50 0 47.3137 0 44V36Z" fill="#65C7A6"/>
<path d="M25.1428 36C25.1428 32.6863 27.8291 30 31.1428 30H38.2857C41.5994 30 44.2857 32.6863 44.2857 36V44C44.2857 47.3137 41.5994 50 38.2857 50H31.1428C27.8291 50 25.1428 47.3137 25.1428 44V36Z" fill="#65C7A6"/>
<path d="M50.2856 36C50.2856 32.6863 52.9719 30 56.2856 30H63.4285C66.7422 30 69.4285 32.6863 69.4285 36V44C69.4285 47.3137 66.7422 50 63.4285 50H56.2856C52.9719 50 50.2856 47.3137 50.2856 44V36Z" fill="#65C7A6"/>
<path d="M75.4285 36C75.4285 32.6863 78.1148 30 81.4285 30H88.5713C91.885 30 94.5713 32.6863 94.5713 36V44C94.5713 47.3137 91.885 50 88.5713 50H81.4285C78.1148 50 75.4285 47.3137 75.4285 44V36Z" fill="#65C7A6"/>
<path d="M100.572 36C100.572 32.6863 103.258 30 106.572 30H113.714C117.028 30 119.714 32.6863 119.714 36V44C119.714 47.3137 117.028 50 113.714 50H106.572C103.258 50 100.572 47.3137 100.572 44V36Z" fill="#65C7A6"/>
<path d="M125.714 36C125.714 32.6863 128.401 30 131.714 30H138.857C142.171 30 144.857 32.6863 144.857 36V44C144.857 47.3137 142.171 50 138.857 50H131.714C128.401 50 125.714 47.3137 125.714 44V36Z" fill="#65C7A6"/>
<path d="M150.857 36C150.857 32.6863 153.543 30 156.857 30H164C167.314 30 170 32.6863 170 36V44C170 47.3137 167.314 50 164 50H156.857C153.543 50 150.857 47.3137 150.857 44V36Z" fill="#65C7A6"/>
<path d="M0 66C0 62.6863 2.68629 60 6 60H13.1429C16.4566 60 19.1429 62.6863 19.1429 66V74C19.1429 77.3137 16.4566 80 13.1429 80H6C2.68629 80 0 77.3137 0 74V66Z" fill="#65C7A6"/>
<path d="M25.1428 66C25.1428 62.6863 27.8291 60 31.1428 60H38.2857C41.5994 60 44.2857 62.6863 44.2857 66V74C44.2857 77.3137 41.5994 80 38.2857 80H31.1428C27.8291 80 25.1428 77.3137 25.1428 74V66Z" fill="#65C7A6"/>
<path d="M50.2856 66C50.2856 62.6863 52.9719 60 56.2856 60H63.4285C66.7422 60 69.4285 62.6863 69.4285 66V74C69.4285 77.3137 66.7422 80 63.4285 80H56.2856C52.9719 80 50.2856 77.3137 50.2856 74V66Z" fill="#65C7A6"/>
<path d="M75.4285 66C75.4285 62.6863 78.1148 60 81.4285 60H88.5713C91.885 60 94.5713 62.6863 94.5713 66V74C94.5713 77.3137 91.885 80 88.5713 80H81.4285C78.1148 80 75.4285 77.3137 75.4285 74V66Z" fill="#3D3D3D"/>
<path d="M100.572 66C100.572 62.6863 103.258 60 106.572 60H113.714C117.028 60 119.714 62.6863 119.714 66V74C119.714 77.3137 117.028 80 113.714 80H106.572C103.258 80 100.572 77.3137 100.572 74V66Z" fill="#65C7A6"/>
<path d="M125.714 66C125.714 62.6863 128.401 60 131.714 60H138.857C142.171 60 144.857 62.6863 144.857 66V74C144.857 77.3137 142.171 80 138.857 80H131.714C128.401 80 125.714 77.3137 125.714 74V66Z" fill="#3D3D3D"/>
<path d="M150.857 66C150.857 62.6863 153.543 60 156.857 60H164C167.314 60 170 62.6863 170 66V74C170 77.3137 167.314 80 164 80H156.857C153.543 80 150.857 77.3137 150.857 74V66Z" fill="#65C7A6"/>
<path d="M0 96C0 92.6863 2.68629 90 6 90H13.1429C16.4566 90 19.1429 92.6863 19.1429 96V104C19.1429 107.314 16.4566 110 13.1429 110H6C2.68629 110 0 107.314 0 104V96Z" fill="#65C7A6"/>
<path d="M25.1428 96C25.1428 92.6863 27.8291 90 31.1428 90H38.2857C41.5994 90 44.2857 92.6863 44.2857 96V104C44.2857 107.314 41.5994 110 38.2857 110H31.1428C27.8291 110 25.1428 107.314 25.1428 104V96Z" fill="#65C7A6"/>
<path d="M50.2856 96C50.2856 92.6863 52.9719 90 56.2856 90H63.4285C66.7422 90 69.4285 92.6863 69.4285 96V104C69.4285 107.314 66.7422 110 63.4285 110H56.2856C52.9719 110 50.2856 107.314 50.2856 104V96Z" fill="#65C7A6"/>
<path d="M75.4285 96C75.4285 92.6863 78.1148 90 81.4285 90H88.5713C91.885 90 94.5713 92.6863 94.5713 96V104C94.5713 107.314 91.885 110 88.5713 110H81.4285C78.1148 110 75.4285 107.314 75.4285 104V96Z" fill="#3D3D3D"/>
<path d="M81.4285 91H88.5713C91.3328 91 93.5713 93.2386 93.5713 96V104C93.5713 106.761 91.3327 109 88.5713 109H81.4285C78.667 109 76.4285 106.761 76.4285 104V96C76.4285 93.2386 78.667 91 81.4285 91Z" stroke="white" stroke-opacity="0.8" stroke-width="2"/>
<path d="M100.572 96C100.572 92.6863 103.258 90 106.572 90H113.714C117.028 90 119.714 92.6863 119.714 96V104C119.714 107.314 117.028 110 113.714 110H106.572C103.258 110 100.572 107.314 100.572 104V96Z" fill="#3D3D3D"/>
<path d="M125.714 96C125.714 92.6863 128.401 90 131.714 90H138.857C142.171 90 144.857 92.6863 144.857 96V104C144.857 107.314 142.171 110 138.857 110H131.714C128.401 110 125.714 107.314 125.714 104V96Z" fill="#3D3D3D"/>
<path d="M150.857 96C150.857 92.6863 153.543 90 156.857 90H164C167.314 90 170 92.6863 170 96V104C170 107.314 167.314 110 164 110H156.857C153.543 110 150.857 107.314 150.857 104V96Z" fill="#3D3D3D"/>
<path d="M0 126C0 122.686 2.68629 120 6 120H13.1429C16.4566 120 19.1429 122.686 19.1429 126V134C19.1429 137.314 16.4566 140 13.1429 140H6C2.68629 140 0 137.314 0 134V126Z" fill="#3D3D3D"/>
<path d="M25.1428 126C25.1428 122.686 27.8291 120 31.1428 120H38.2857C41.5994 120 44.2857 122.686 44.2857 126V134C44.2857 137.314 41.5994 140 38.2857 140H31.1428C27.8291 140 25.1428 137.314 25.1428 134V126Z" fill="#3D3D3D"/>
<path d="M50.2856 126C50.2856 122.686 52.9719 120 56.2856 120H63.4285C66.7422 120 69.4285 122.686 69.4285 126V134C69.4285 137.314 66.7422 140 63.4285 140H56.2856C52.9719 140 50.2856 137.314 50.2856 134V126Z" fill="#3D3D3D"/>
<path d="M75.4285 126C75.4285 122.686 78.1148 120 81.4285 120H88.5713C91.885 120 94.5713 122.686 94.5713 126V134C94.5713 137.314 91.885 140 88.5713 140H81.4285C78.1148 140 75.4285 137.314 75.4285 134V126Z" fill="#3D3D3D"/>
<path d="M100.572 126C100.572 122.686 103.258 120 106.572 120H113.714C117.028 120 119.714 122.686 119.714 126V134C119.714 137.314 117.028 140 113.714 140H106.572C103.258 140 100.572 137.314 100.572 134V126Z" fill="#3D3D3D"/>
<path d="M125.714 126C125.714 122.686 128.401 120 131.714 120H138.857C142.171 120 144.857 122.686 144.857 126V134C144.857 137.314 142.171 140 138.857 140H131.714C128.401 140 125.714 137.314 125.714 134V126Z" fill="#3D3D3D"/>
<path d="M150.857 126C150.857 122.686 153.543 120 156.857 120H164C167.314 120 170 122.686 170 126V134C170 137.314 167.314 140 164 140H156.857C153.543 140 150.857 137.314 150.857 134V126Z" fill="#3D3D3D"/>
<path d="M0 156C0 152.686 2.68629 150 6 150H13.1429C16.4566 150 19.1429 152.686 19.1429 156V164C19.1429 167.314 16.4566 170 13.1429 170H6C2.68629 170 0 167.314 0 164V156Z" fill="#3D3D3D"/>
<path d="M25.1428 156C25.1428 152.686 27.8291 150 31.1428 150H38.2857C41.5994 150 44.2857 152.686 44.2857 156V164C44.2857 167.314 41.5994 170 38.2857 170H31.1428C27.8291 170 25.1428 167.314 25.1428 164V156Z" fill="#3D3D3D"/>
<path d="M50.2856 156C50.2856 152.686 52.9719 150 56.2856 150H63.4285C66.7422 150 69.4285 152.686 69.4285 156V164C69.4285 167.314 66.7422 170 63.4285 170H56.2856C52.9719 170 50.2856 167.314 50.2856 164V156Z" fill="#3D3D3D"/>
<path d="M75.4285 156C75.4285 152.686 78.1148 150 81.4285 150H88.5713C91.885 150 94.5713 152.686 94.5713 156V164C94.5713 167.314 91.885 170 88.5713 170H81.4285C78.1148 170 75.4285 167.314 75.4285 164V156Z" fill="#3D3D3D"/>
<path d="M100.572 156C100.572 152.686 103.258 150 106.572 150H113.714C117.028 150 119.714 152.686 119.714 156V164C119.714 167.314 117.028 170 113.714 170H106.572C103.258 170 100.572 167.314 100.572 164V156Z" fill="#3D3D3D"/>
<path d="M125.714 156C125.714 152.686 128.401 150 131.714 150H138.857C142.171 150 144.857 152.686 144.857 156V164C144.857 167.314 142.171 170 138.857 170H131.714C128.401 170 125.714 167.314 125.714 164V156Z" fill="#3D3D3D"/>
<path d="M150.857 156C150.857 152.686 153.543 150 156.857 150H164C167.314 150 170 152.686 170 156V164C170 167.314 167.314 170 164 170H156.857C153.543 170 150.857 167.314 150.857 164V156Z" fill="#3D3D3D"/>
<path d="M0 186C0 182.686 2.68629 180 6 180H13.1429C16.4566 180 19.1429 182.686 19.1429 186V194C19.1429 197.314 16.4566 200 13.1429 200H6C2.68629 200 0 197.314 0 194V186Z" fill="#3D3D3D"/>
<path d="M25.1428 186C25.1428 182.686 27.8291 180 31.1428 180H38.2857C41.5994 180 44.2857 182.686 44.2857 186V194C44.2857 197.314 41.5994 200 38.2857 200H31.1428C27.8291 200 25.1428 197.314 25.1428 194V186Z" fill="#3D3D3D"/>
<path d="M50.2856 186C50.2856 182.686 52.9719 180 56.2856 180H63.4285C66.7422 180 69.4285 182.686 69.4285 186V194C69.4285 197.314 66.7422 200 63.4285 200H56.2856C52.9719 200 50.2856 197.314 50.2856 194V186Z" fill="#3D3D3D"/>
<path d="M75.4285 186C75.4285 182.686 78.1148 180 81.4285 180H88.5713C91.885 180 94.5713 182.686 94.5713 186V194C94.5713 197.314 91.885 200 88.5713 200H81.4285C78.1148 200 75.4285 197.314 75.4285 194V186Z" fill="#3D3D3D"/>
<path d="M100.572 186C100.572 182.686 103.258 180 106.572 180H113.714C117.028 180 119.714 182.686 119.714 186V194C119.714 197.314 117.028 200 113.714 200H106.572C103.258 200 100.572 197.314 100.572 194V186Z" fill="#3D3D3D"/>
<path d="M125.714 186C125.714 182.686 128.401 180 131.714 180H138.857C142.171 180 144.857 182.686 144.857 186V194C144.857 197.314 142.171 200 138.857 200H131.714C128.401 200 125.714 197.314 125.714 194V186Z" fill="#3D3D3D"/>
<path d="M150.857 186C150.857 182.686 153.543 180 156.857 180H164C167.314 180 170 182.686 170 186V194C170 197.314 167.314 200 164 200H156.857C153.543 200 150.857 197.314 150.857 194V186Z" fill="#3D3D3D"/>
<path d="M0 216C0 212.686 2.68629 210 6 210H13.1429C16.4566 210 19.1429 212.686 19.1429 216V224C19.1429 227.314 16.4566 230 13.1429 230H6C2.68629 230 0 227.314 0 224V216Z" fill="#3D3D3D"/>
<path d="M25.1428 216C25.1428 212.686 27.8291 210 31.1428 210H38.2857C41.5994 210 44.2857 212.686 44.2857 216V224C44.2857 227.314 41.5994 230 38.2857 230H31.1428C27.8291 230 25.1428 227.314 25.1428 224V216Z" fill="#3D3D3D"/>
<path d="M50.2856 216C50.2856 212.686 52.9719 210 56.2856 210H63.4285C66.7422 210 69.4285 212.686 69.4285 216V224C69.4285 227.314 66.7422 230 63.4285 230H56.2856C52.9719 230 50.2856 227.314 50.2856 224V216Z" fill="#3D3D3D"/>
<path d="M75.4285 216C75.4285 212.686 78.1148 210 81.4285 210H88.5713C91.885 210 94.5713 212.686 94.5713 216V224C94.5713 227.314 91.885 230 88.5713 230H81.4285C78.1148 230 75.4285 227.314 75.4285 224V216Z" fill="#3D3D3D"/>
<path d="M100.572 216C100.572 212.686 103.258 210 106.572 210H113.714C117.028 210 119.714 212.686 119.714 216V224C119.714 227.314 117.028 230 113.714 230H106.572C103.258 230 100.572 227.314 100.572 224V216Z" fill="#3D3D3D"/>
<path d="M125.714 216C125.714 212.686 128.401 210 131.714 210H138.857C142.171 210 144.857 212.686 144.857 216V224C144.857 227.314 142.171 230 138.857 230H131.714C128.401 230 125.714 227.314 125.714 224V216Z" fill="#3D3D3D"/>
<path d="M150.857 216C150.857 212.686 153.543 210 156.857 210H164C167.314 210 170 212.686 170 216V224C170 227.314 167.314 230 164 230H156.857C153.543 230 150.857 227.314 150.857 224V216Z" fill="#3D3D3D"/>
<path d="M0 246C0 242.686 2.68629 240 6 240H13.1429C16.4566 240 19.1429 242.686 19.1429 246V254C19.1429 257.314 16.4566 260 13.1429 260H6C2.68629 260 0 257.314 0 254V246Z" fill="#3D3D3D"/>
<path d="M25.1428 246C25.1428 242.686 27.8291 240 31.1428 240H38.2857C41.5994 240 44.2857 242.686 44.2857 246V254C44.2857 257.314 41.5994 260 38.2857 260H31.1428C27.8291 260 25.1428 257.314 25.1428 254V246Z" fill="#3D3D3D"/>
<path d="M50.2856 246C50.2856 242.686 52.9719 240 56.2856 240H63.4285C66.7422 240 69.4285 242.686 69.4285 246V254C69.4285 257.314 66.7422 260 63.4285 260H56.2856C52.9719 260 50.2856 257.314 50.2856 254V246Z" fill="#3D3D3D"/>
<path d="M75.4285 246C75.4285 242.686 78.1148 240 81.4285 240H88.5713C91.885 240 94.5713 242.686 94.5713 246V254C94.5713 257.314 91.885 260 88.5713 260H81.4285C78.1148 260 75.4285 257.314 75.4285 254V246Z" fill="#3D3D3D"/>
<path d="M100.572 246C100.572 242.686 103.258 240 106.572 240H113.714C117.028 240 119.714 242.686 119.714 246V254C119.714 257.314 117.028 260 113.714 260H106.572C103.258 260 100.572 257.314 100.572 254V246Z" fill="#3D3D3D"/>
<path d="M125.714 246C125.714 242.686 128.401 240 131.714 240H138.857C142.171 240 144.857 242.686 144.857 246V254C144.857 257.314 142.171 260 138.857 260H131.714C128.401 260 125.714 257.314 125.714 254V246Z" fill="#3D3D3D"/>
<path d="M150.857 246C150.857 242.686 153.543 240 156.857 240H164C167.314 240 170 242.686 170 246V254C170 257.314 167.314 260 164 260H156.857C153.543 260 150.857 257.314 150.857 254V246Z" fill="#3D3D3D"/>
<path d="M0 276C0 272.686 2.68629 270 6 270H13.1429C16.4566 270 19.1429 272.686 19.1429 276V284C19.1429 287.314 16.4566 290 13.1429 290H6C2.68629 290 0 287.314 0 284V276Z" fill="#3D3D3D"/>
<path d="M25.1428 276C25.1428 272.686 27.8291 270 31.1428 270H38.2857C41.5994 270 44.2857 272.686 44.2857 276V284C44.2857 287.314 41.5994 290 38.2857 290H31.1428C27.8291 290 25.1428 287.314 25.1428 284V276Z" fill="#3D3D3D"/>
<path d="M50.2856 276C50.2856 272.686 52.9719 270 56.2856 270H63.4285C66.7422 270 69.4285 272.686 69.4285 276V284C69.4285 287.314 66.7422 290 63.4285 290H56.2856C52.9719 290 50.2856 287.314 50.2856 284V276Z" fill="#3D3D3D"/>
<path d="M75.4285 276C75.4285 272.686 78.1148 270 81.4285 270H88.5713C91.885 270 94.5713 272.686 94.5713 276V284C94.5713 287.314 91.885 290 88.5713 290H81.4285C78.1148 290 75.4285 287.314 75.4285 284V276Z" fill="#3D3D3D"/>
<path d="M100.572 276C100.572 272.686 103.258 270 106.572 270H113.714C117.028 270 119.714 272.686 119.714 276V284C119.714 287.314 117.028 290 113.714 290H106.572C103.258 290 100.572 287.314 100.572 284V276Z" fill="#3D3D3D"/>
<path d="M125.714 276C125.714 272.686 128.401 270 131.714 270H138.857C142.171 270 144.857 272.686 144.857 276V284C144.857 287.314 142.171 290 138.857 290H131.714C128.401 290 125.714 287.314 125.714 284V276Z" fill="#3D3D3D"/>
<path d="M150.857 276C150.857 272.686 153.543 270 156.857 270H164C167.314 270 170 272.686 170 276V284C170 287.314 167.314 290 164 290H156.857C153.543 290 150.857 287.314 150.857 284V276Z" fill="#3D3D3D"/>
<path d="M0 306C0 302.686 2.68629 300 6 300H13.1429C16.4566 300 19.1429 302.686 19.1429 306V314C19.1429 317.314 16.4566 320 13.1429 320H6C2.68629 320 0 317.314 0 314V306Z" fill="#3D3D3D"/>
<path d="M25.1428 306C25.1428 302.686 27.8291 300 31.1428 300H38.2857C41.5994 300 44.2857 302.686 44.2857 306V314C44.2857 317.314 41.5994 320 38.2857 320H31.1428C27.8291 320 25.1428 317.314 25.1428 314V306Z" fill="#3D3D3D"/>
<path d="M50.2856 306C50.2856 302.686 52.9719 300 56.2856 300H63.4285C66.7422 300 69.4285 302.686 69.4285 306V314C69.4285 317.314 66.7422 320 63.4285 320H56.2856C52.9719 320 50.2856 317.314 50.2856 314V306Z" fill="#3D3D3D"/>
<path d="M75.4285 306C75.4285 302.686 78.1148 300 81.4285 300H88.5713C91.885 300 94.5713 302.686 94.5713 306V314C94.5713 317.314 91.885 320 88.5713 320H81.4285C78.1148 320 75.4285 317.314 75.4285 314V306Z" fill="#3D3D3D"/>
<path d="M100.572 306C100.572 302.686 103.258 300 106.572 300H113.714C117.028 300 119.714 302.686 119.714 306V314C119.714 317.314 117.028 320 113.714 320H106.572C103.258 320 100.572 317.314 100.572 314V306Z" fill="#3D3D3D"/>
<path d="M125.714 306C125.714 302.686 128.401 300 131.714 300H138.857C142.171 300 144.857 302.686 144.857 306V314C144.857 317.314 142.171 320 138.857 320H131.714C128.401 320 125.714 317.314 125.714 314V306Z" fill="#3D3D3D"/>
<path d="M150.857 306C150.857 302.686 153.543 300 156.857 300H164C167.314 300 170 302.686 170 306V314C170 317.314 167.314 320 164 320H156.857C153.543 320 150.857 317.314 150.857 314V306Z" fill="#3D3D3D"/>
<path d="M0 336C0 332.686 2.68629 330 6 330H13.1429C16.4566 330 19.1429 332.686 19.1429 336V344C19.1429 347.314 16.4566 350 13.1429 350H6C2.68629 350 0 347.314 0 344V336Z" fill="#3D3D3D"/>
<path d="M25.1428 336C25.1428 332.686 27.8291 330 31.1428 330H38.2857C41.5994 330 44.2857 332.686 44.2857 336V344C44.2857 347.314 41.5994 350 38.2857 350H31.1428C27.8291 350 25.1428 347.314 25.1428 344V336Z" fill="#3D3D3D"/>
<path d="M50.2856 336C50.2856 332.686 52.9719 330 56.2856 330H63.4285C66.7422 330 69.4285 332.686 69.4285 336V344C69.4285 347.314 66.7422 350 63.4285 350H56.2856C52.9719 350 50.2856 347.314 50.2856 344V336Z" fill="#3D3D3D"/>
<path d="M75.4285 336C75.4285 332.686 78.1148 330 81.4285 330H88.5713C91.885 330 94.5713 332.686 94.5713 336V344C94.5713 347.314 91.885 350 88.5713 350H81.4285C78.1148 350 75.4285 347.314 75.4285 344V336Z" fill="#3D3D3D"/>
<path d="M100.572 336C100.572 332.686 103.258 330 106.572 330H113.714C117.028 330 119.714 332.686 119.714 336V344C119.714 347.314 117.028 350 113.714 350H106.572C103.258 350 100.572 347.314 100.572 344V336Z" fill="#3D3D3D"/>
<path d="M125.714 336C125.714 332.686 128.401 330 131.714 330H138.857C142.171 330 144.857 332.686 144.857 336V344C144.857 347.314 142.171 350 138.857 350H131.714C128.401 350 125.714 347.314 125.714 344V336Z" fill="#3D3D3D"/>
<path d="M150.857 336C150.857 332.686 153.543 330 156.857 330H164C167.314 330 170 332.686 170 336V344C170 347.314 167.314 350 164 350H156.857C153.543 350 150.857 347.314 150.857 344V336Z" fill="#3D3D3D"/>
<path d="M0 366C0 362.686 2.68629 360 6 360H13.1429C16.4566 360 19.1429 362.686 19.1429 366V374C19.1429 377.314 16.4566 380 13.1429 380H6C2.68629 380 0 377.314 0 374V366Z" fill="#3D3D3D"/>
<path d="M25.1428 366C25.1428 362.686 27.8291 360 31.1428 360H38.2857C41.5994 360 44.2857 362.686 44.2857 366V374C44.2857 377.314 41.5994 380 38.2857 380H31.1428C27.8291 380 25.1428 377.314 25.1428 374V366Z" fill="#3D3D3D"/>
<path d="M50.2856 366C50.2856 362.686 52.9719 360 56.2856 360H63.4285C66.7422 360 69.4285 362.686 69.4285 366V374C69.4285 377.314 66.7422 380 63.4285 380H56.2856C52.9719 380 50.2856 377.314 50.2856 374V366Z" fill="#3D3D3D"/>
<path d="M75.4285 366C75.4285 362.686 78.1148 360 81.4285 360H88.5713C91.885 360 94.5713 362.686 94.5713 366V374C94.5713 377.314 91.885 380 88.5713 380H81.4285C78.1148 380 75.4285 377.314 75.4285 374V366Z" fill="#3D3D3D"/>
<path d="M100.572 366C100.572 362.686 103.258 360 106.572 360H113.714C117.028 360 119.714 362.686 119.714 366V374C119.714 377.314 117.028 380 113.714 380H106.572C103.258 380 100.572 377.314 100.572 374V366Z" fill="#3D3D3D"/>
<path d="M125.714 366C125.714 362.686 128.401 360 131.714 360H138.857C142.171 360 144.857 362.686 144.857 366V374C144.857 377.314 142.171 380 138.857 380H131.714C128.401 380 125.714 377.314 125.714 374V366Z" fill="#3D3D3D"/>
<path d="M150.857 366C150.857 362.686 153.543 360 156.857 360H164C167.314 360 170 362.686 170 366V374C170 377.314 167.314 380 164 380H156.857C153.543 380 150.857 377.314 150.857 374V366Z" fill="#3D3D3D"/>
<path d="M0 396C0 392.686 2.68629 390 6 390H13.1429C16.4566 390 19.1429 392.686 19.1429 396V404C19.1429 407.314 16.4566 410 13.1429 410H6C2.68629 410 0 407.314 0 404V396Z" fill="#3D3D3D"/>
<path d="M25.1428 396C25.1428 392.686 27.8291 390 31.1428 390H38.2857C41.5994 390 44.2857 392.686 44.2857 396V404C44.2857 407.314 41.5994 410 38.2857 410H31.1428C27.8291 410 25.1428 407.314 25.1428 404V396Z" fill="#3D3D3D"/>
<path d="M50.2856 396C50.2856 392.686 52.9719 390 56.2856 390H63.4285C66.7422 390 69.4285 392.686 69.4285 396V404C69.4285 407.314 66.7422 410 63.4285 410H56.2856C52.9719 410 50.2856 407.314 50.2856 404V396Z" fill="#3D3D3D"/>
<path d="M75.4285 396C75.4285 392.686 78.1148 390 81.4285 390H88.5713C91.885 390 94.5713 392.686 94.5713 396V404C94.5713 407.314 91.885 410 88.5713 410H81.4285C78.1148 410 75.4285 407.314 75.4285 404V396Z" fill="#3D3D3D"/>
<path d="M100.572 396C100.572 392.686 103.258 390 106.572 390H113.714C117.028 390 119.714 392.686 119.714 396V404C119.714 407.314 117.028 410 113.714 410H106.572C103.258 410 100.572 407.314 100.572 404V396Z" fill="#3D3D3D"/>
<path d="M125.714 396C125.714 392.686 128.401 390 131.714 390H138.857C142.171 390 144.857 392.686 144.857 396V404C144.857 407.314 142.171 410 138.857 410H131.714C128.401 410 125.714 407.314 125.714 404V396Z" fill="#3D3D3D"/>
<path d="M150.857 396C150.857 392.686 153.543 390 156.857 390H164C167.314 390 170 392.686 170 396V404C170 407.314 167.314 410 164 410H156.857C153.543 410 150.857 407.314 150.857 404V396Z" fill="#3D3D3D"/>
<path d="M0 426C0 422.686 2.68629 420 6 420H13.1429C16.4566 420 19.1429 422.686 19.1429 426V434C19.1429 437.314 16.4566 440 13.1429 440H6C2.68629 440 0 437.314 0 434V426Z" fill="#3D3D3D"/>
<path d="M25.1428 426C25.1428 422.686 27.8291 420 31.1428 420H38.2857C41.5994 420 44.2857 422.686 44.2857 426V434C44.2857 437.314 41.5994 440 38.2857 440H31.1428C27.8291 440 25.1428 437.314 25.1428 434V426Z" fill="#3D3D3D"/>
<path d="M50.2856 426C50.2856 422.686 52.9719 420 56.2856 420H63.4285C66.7422 420 69.4285 422.686 69.4285 426V434C69.4285 437.314 66.7422 440 63.4285 440H56.2856C52.9719 440 50.2856 437.314 50.2856 434V426Z" fill="#3D3D3D"/>
<path d="M75.4285 426C75.4285 422.686 78.1148 420 81.4285 420H88.5713C91.885 420 94.5713 422.686 94.5713 426V434C94.5713 437.314 91.885 440 88.5713 440H81.4285C78.1148 440 75.4285 437.314 75.4285 434V426Z" fill="#3D3D3D"/>
<path d="M100.572 426C100.572 422.686 103.258 420 106.572 420H113.714C117.028 420 119.714 422.686 119.714 426V434C119.714 437.314 117.028 440 113.714 440H106.572C103.258 440 100.572 437.314 100.572 434V426Z" fill="#3D3D3D"/>
<path d="M125.714 426C125.714 422.686 128.401 420 131.714 420H138.857C142.171 420 144.857 422.686 144.857 426V434C144.857 437.314 142.171 440 138.857 440H131.714C128.401 440 125.714 437.314 125.714 434V426Z" fill="#181818"/>
<path d="M150.857 426C150.857 422.686 153.543 420 156.857 420H164C167.314 420 170 422.686 170 426V434C170 437.314 167.314 440 164 440H156.857C153.543 440 150.857 437.314 150.857 434V426Z" fill="#181818"/>
</svg>
